<svg width="200" height="200" viewBox="0 0 250 200" fill="none" xmlns="http://www.w3.org/2000/svg">
<path d="M93.0469 104.4L96.9757 105.151L96.9757 105.151L93.0469 104.4ZM84.6469 127.6L81.2232 125.532L81.2168 125.542L81.2105 125.553L84.6469 127.6ZM69.8469 142L67.9368 138.486L67.9205 138.494L67.9043 138.503L69.8469 142ZM21.4469 138.2L18.8631 141.254L18.8774 141.266L18.8919 141.278L21.4469 138.2ZM5.84688 113L2.01684 114.154L2.0252 114.181L2.03395 114.209L5.84688 113ZM5.44688 33.8L1.60793 32.6764L1.6016 32.698L1.59551 32.7197L5.44688 33.8ZM20.6469 8.79999L23.1959 11.8826L23.2134 11.8682L23.2306 11.8535L20.6469 8.79999ZM74.6469 8.79999L72.0919 11.8776L72.1092 11.892L72.1267 11.9062L74.6469 8.79999ZM90.4469 33.8L94.2598 32.591L94.2598 32.591L90.4469 33.8ZM21.2469 106L17.3365 106.842L17.3427 106.871L17.3493 106.899L21.2469 106ZM30.6469 125.6L27.7753 128.385L27.8181 128.429L27.8623 128.472L30.6469 125.6ZM65.2469 125.6L62.4623 122.728L62.4402 122.75L62.4185 122.772L65.2469 125.6ZM74.8469 106.2L78.7445 107.099L78.7474 107.086L74.8469 106.2ZM74.8469 41L70.9493 41.8994L70.9524 41.9128L74.8469 41ZM65.2469 21.6L62.3753 24.3846L62.4181 24.4288L62.4623 24.4716L65.2469 21.6ZM21.2469 41L17.3493 40.1006L17.3442 40.1229L17.3393 40.1452L21.2469 41ZM91.6469 73.4C91.6469 84.8089 90.7938 94.8833 89.118 103.649L96.9757 105.151C98.7666 95.7834 99.6469 85.191 99.6469 73.4H91.6469ZM89.118 103.649C87.4536 112.355 84.7948 119.62 81.2232 125.532L88.0705 129.668C92.2322 122.78 95.1735 114.578 96.9757 105.151L89.118 103.649ZM81.2105 125.553C77.8276 131.231 73.4098 135.511 67.9368 138.486L71.7569 145.514C78.5506 141.822 83.9995 136.502 88.0833 129.647L81.2105 125.553ZM67.9043 138.503C62.6265 141.435 56.0636 143 48.0469 143V151C57.0969 151 65.0673 149.231 71.7895 145.497L67.9043 138.503ZM48.0469 143C38.1549 143 30.2374 140.299 24.0019 135.122L18.8919 141.278C26.7897 147.834 36.6055 151 48.0469 151V143ZM24.0306 135.146C17.8062 129.88 12.9581 122.193 9.6598 111.791L2.03395 114.209C5.66897 125.673 11.2209 134.787 18.8631 141.254L24.0306 135.146ZM9.67691 111.846C6.48618 101.253 4.84688 88.4619 4.84688 73.4H-3.15312C-3.15312 89.0048 -1.45909 102.614 2.01684 114.154L9.67691 111.846ZM4.84688 73.4C4.84688 58.1763 6.35851 45.3611 9.29824 34.8803L1.59551 32.7197C-1.59809 44.1056 -3.15312 57.6904 -3.15312 73.4H4.84688ZM9.28583 34.9236C12.321 24.5534 17.0243 16.986 23.1959 11.8826L18.0978 5.71741C10.4027 12.0807 4.97275 21.1799 1.60793 32.6764L9.28583 34.9236ZM23.2306 11.8535C29.2764 6.73789 37.4178 4 48.0469 4V-4C36.0093 -4 25.884 -0.871235 18.0631 5.74644L23.2306 11.8535ZM48.0469 4C57.9388 4 65.8564 6.70099 72.0919 11.8776L77.2019 5.72235C69.3041 -0.834337 59.4883 -4 48.0469 -4V4ZM72.1267 11.9062C78.4458 17.033 83.3422 24.6272 86.634 35.009L94.2598 32.591C90.6183 21.1061 84.9813 12.0336 77.167 5.69374L72.1267 11.9062ZM86.634 35.009C89.942 45.442 91.6469 58.2105 91.6469 73.4H99.6469C99.6469 57.6562 97.8851 44.0247 94.2598 32.591L86.634 35.009ZM14.4469 73.4C14.4469 86.6299 15.3894 97.8021 17.3365 106.842L25.1572 105.158C23.371 96.8646 22.4469 86.3034 22.4469 73.4H14.4469ZM17.3493 106.899C19.4436 115.975 22.8221 123.277 27.7753 128.385L33.5185 122.815C29.9383 119.123 27.0502 113.359 25.1444 105.101L17.3493 106.899ZM27.8623 128.472C33.1376 133.587 40.0021 136 48.0469 136V128C41.6916 128 36.9561 126.146 33.4315 122.728L27.8623 128.472ZM48.0469 136C56.0879 136 62.9162 133.588 68.0753 128.428L62.4185 122.772C59.0442 126.146 54.4058 128 48.0469 128V136ZM68.0315 128.472C73.1813 123.478 76.6452 116.196 78.7444 107.099L70.9493 105.301C69.0485 113.537 66.1124 119.189 62.4623 122.728L68.0315 128.472ZM78.7474 107.086C80.8357 97.898 81.8469 86.6447 81.8469 73.4H73.8469C73.8469 86.2886 72.8581 96.902 70.9463 105.314L78.7474 107.086ZM81.8469 73.4C81.8469 60.1604 80.8366 49.0271 78.7413 40.0872L70.9524 41.9128C72.8571 50.0396 73.8469 60.5063 73.8469 73.4H81.8469ZM78.7444 40.1006C76.6452 31.004 73.1813 23.7222 68.0315 18.7284L62.4623 24.4716C66.1124 28.0111 69.0485 33.6627 70.9493 41.8994L78.7444 40.1006ZM68.1185 18.8154C62.9669 13.5029 56.1243 11 48.0469 11V19C54.3694 19 58.9935 20.8971 62.3753 24.3846L68.1185 18.8154ZM48.0469 11C39.9664 11 33.0872 13.5028 27.8185 18.7716L33.4753 24.4284C37.0066 20.8972 41.7274 19 48.0469 19V11ZM27.8185 18.7716C22.827 23.763 19.4429 31.0285 17.3493 40.1006L25.1444 41.8994C27.0509 33.6382 29.9334 27.9703 33.4753 24.4284L27.8185 18.7716ZM17.3393 40.1452C15.389 49.0607 14.4469 60.1725 14.4469 73.4H22.4469C22.4469 60.4941 23.3714 50.006 25.1545 41.8548L17.3393 40.1452ZM176.5 145V149H180.5V145H176.5ZM159.3 145H155.3V149H159.3V145ZM159.3 35.4L155.305 35.2002L155.3 35.3001V35.4H159.3ZM159.7 28L163.693 28.2349L163.694 28.2219L159.7 28ZM160.1 20.6L164.094 20.8102L164.642 10.4008L157.272 17.7716L160.1 20.6ZM154.3 26L156.884 29.0535L156.884 29.0535L154.3 26ZM147.7 31.6L150.229 34.6995L150.26 34.6739L150.291 34.6477L147.7 31.6ZM132.5 44L129.345 46.4595L131.86 49.6844L135.029 47.0995L132.5 44ZM123.3 32.2L120.845 29.0417L117.682 31.5001L120.145 34.6595L123.3 32.2ZM161.9 2.19999V-1.80001H160.528L159.445 -0.958299L161.9 2.19999ZM176.5 2.19999H180.5V-1.80001H176.5V2.19999ZM176.5 141H159.3V149H176.5V141ZM163.3 145V45.2H155.3V145H163.3ZM163.3 45.2C163.3 45.1924 163.3 45.1849 163.3 45.1773C163.3 45.1698 163.3 45.1623 163.3 45.1547C163.3 45.1472 163.3 45.1396 163.3 45.1321C163.3 45.1246 163.3 45.117 163.3 45.1095C163.3 45.1019 163.3 45.0944 163.3 45.0869C163.3 45.0794 163.3 45.0718 163.3 45.0643C163.3 45.0568 163.3 45.0493 163.3 45.0417C163.3 45.0342 163.3 45.0267 163.3 45.0192C163.3 45.0117 163.3 45.0042 163.3 44.9966C163.3 44.9891 163.3 44.9816 163.3 44.9741C163.3 44.9666 163.3 44.9591 163.3 44.9516C163.3 44.9441 163.3 44.9366 163.3 44.9291C163.3 44.9216 163.3 44.9141 163.3 44.9066C163.3 44.8991 163.3 44.8916 163.3 44.8842C163.3 44.8767 163.3 44.8692 163.3 44.8617C163.3 44.8542 163.3 44.8467 163.3 44.8393C163.3 44.8318 163.3 44.8243 163.3 44.8168C163.3 44.8094 163.3 44.8019 163.3 44.7944C163.3 44.7869 163.3 44.7795 163.3 44.772C163.3 44.7645 163.3 44.7571 163.3 44.7496C163.3 44.7422 163.3 44.7347 163.3 44.7272C163.3 44.7198 163.3 44.7123 163.3 44.7049C163.3 44.6974 163.3 44.69 163.3 44.6825C163.3 44.6751 163.3 44.6676 163.3 44.6602C163.3 44.6528 163.3 44.6453 163.3 44.6379C163.3 44.6304 163.3 44.623 163.3 44.6156C163.3 44.6081 163.3 44.6007 163.3 44.5933C163.3 44.5859 163.3 44.5784 163.3 44.571C163.3 44.5636 163.3 44.5562 163.3 44.5487C163.3 44.5413 163.3 44.5339 163.3 44.5265C163.3 44.5191 163.3 44.5117 163.3 44.5043C163.3 44.4968 163.3 44.4894 163.3 44.482C163.3 44.4746 163.3 44.4672 163.3 44.4598C163.3 44.4524 163.3 44.445 163.3 44.4376C163.3 44.4302 163.3 44.4228 163.3 44.4154C163.3 44.408 163.3 44.4007 163.3 44.3933C163.3 44.3859 163.3 44.3785 163.3 44.3711C163.3 44.3637 163.3 44.3564 163.3 44.349C163.3 44.3416 163.3 44.3342 163.3 44.3268C163.3 44.3195 163.3 44.3121 163.3 44.3047C163.3 44.2974 163.3 44.29 163.3 44.2826C163.3 44.2753 163.3 44.2679 163.3 44.2605C163.3 44.2532 163.3 44.2458 163.3 44.2385C163.3 44.2311 163.3 44.2238 163.3 44.2164C163.3 44.2091 163.3 44.2017 163.3 44.1944C163.3 44.187 163.3 44.1797 163.3 44.1723C163.3 44.165 163.3 44.1577 163.3 44.1503C163.3 44.143 163.3 44.1357 163.3 44.1283C163.3 44.121 163.3 44.1137 163.3 44.1063C163.3 44.099 163.3 44.0917 163.3 44.0844C163.3 44.077 163.3 44.0697 163.3 44.0624C163.3 44.0551 163.3 44.0478 163.3 44.0404C163.3 44.0331 163.3 44.0258 163.3 44.0185C163.3 44.0112 163.3 44.0039 163.3 43.9966C163.3 43.9893 163.3 43.982 163.3 43.9747C163.3 43.9674 163.3 43.9601 163.3 43.9528C163.3 43.9455 163.3 43.9382 163.3 43.9309C163.3 43.9236 163.3 43.9163 163.3 43.909C163.3 43.9017 163.3 43.8945 163.3 43.8872C163.3 43.8799 163.3 43.8726 163.3 43.8653C163.3 43.8581 163.3 43.8508 163.3 43.8435C163.3 43.8362 163.3 43.829 163.3 43.8217C163.3 43.8144 163.3 43.8072 163.3 43.7999C163.3 43.7926 163.3 43.7854 163.3 43.7781C163.3 43.7709 163.3 43.7636 163.3 43.7564C163.3 43.7491 163.3 43.7418 163.3 43.7346C163.3 43.7273 163.3 43.7201 163.3 43.7129C163.3 43.7056 163.3 43.6984 163.3 43.6911C163.3 43.6839 163.3 43.6766 163.3 43.6694C163.3 43.6622 163.3 43.6549 163.3 43.6477C163.3 43.6405 163.3 43.6332 163.3 43.626C163.3 43.6188 163.3 43.6116 163.3 43.6043C163.3 43.5971 163.3 43.5899 163.3 43.5827C163.3 43.5755 163.3 43.5682 163.3 43.561C163.3 43.5538 163.3 43.5466 163.3 43.5394C163.3 43.5322 163.3 43.525 163.3 43.5178C163.3 43.5106 163.3 43.5034 163.3 43.4962C163.3 43.489 163.3 43.4818 163.3 43.4746C163.3 43.4674 163.3 43.4602 163.3 43.453C163.3 43.4458 163.3 43.4386 163.3 43.4314C163.3 43.4243 163.3 43.4171 163.3 43.4099C163.3 43.4027 163.3 43.3955 163.3 43.3884C163.3 43.3812 163.3 43.374 163.3 43.3668C163.3 43.3597 163.3 43.3525 163.3 43.3453C163.3 43.3382 163.3 43.331 163.3 43.3238C163.3 43.3167 163.3 43.3095 163.3 43.3023C163.3 43.2952 163.3 43.288 163.3 43.2809C163.3 43.2737 163.3 43.2666 163.3 43.2594C163.3 43.2523 163.3 43.2451 163.3 43.238C163.3 43.2308 163.3 43.2237 163.3 43.2166C163.3 43.2094 163.3 43.2023 163.3 43.1951C163.3 43.188 163.3 43.1809 163.3 43.1737C163.3 43.1666 163.3 43.1595 163.3 43.1524C163.3 43.1452 163.3 43.1381 163.3 43.131C163.3 43.1239 163.3 43.1167 163.3 43.1096C163.3 43.1025 163.3 43.0954 163.3 43.0883C163.3 43.0812 163.3 43.0741 163.3 43.0669C163.3 43.0598 163.3 43.0527 163.3 43.0456C163.3 43.0385 163.3 43.0314 163.3 43.0243C163.3 43.0172 163.3 43.0101 163.3 43.003C163.3 42.9959 163.3 42.9889 163.3 42.9818C163.3 42.9747 163.3 42.9676 163.3 42.9605C163.3 42.9534 163.3 42.9463 163.3 42.9393C163.3 42.9322 163.3 42.9251 163.3 42.918C163.3 42.9109 163.3 42.9039 163.3 42.8968C163.3 42.8897 163.3 42.8827 163.3 42.8756C163.3 42.8685 163.3 42.8615 163.3 42.8544C163.3 42.8473 163.3 42.8403 163.3 42.8332C163.3 42.8262 163.3 42.8191 163.3 42.812C163.3 42.805 163.3 42.7979 163.3 42.7909C163.3 42.7838 163.3 42.7768 163.3 42.7698C163.3 42.7627 163.3 42.7557 163.3 42.7486C163.3 42.7416 163.3 42.7346 163.3 42.7275C163.3 42.7205 163.3 42.7135 163.3 42.7064C163.3 42.6994 163.3 42.6924 163.3 42.6853C163.3 42.6783 163.3 42.6713 163.3 42.6643C163.3 42.6572 163.3 42.6502 163.3 42.6432C163.3 42.6362 163.3 42.6292 163.3 42.6222C163.3 42.6152 163.3 42.6081 163.3 42.6011C163.3 42.5941 163.3 42.5871 163.3 42.5801C163.3 42.5731 163.3 42.5661 163.3 42.5591C163.3 42.5521 163.3 42.5451 163.3 42.5381C163.3 42.5311 163.3 42.5242 163.3 42.5172C163.3 42.5102 163.3 42.5032 163.3 42.4962C163.3 42.4892 163.3 42.4822 163.3 42.4753C163.3 42.4683 163.3 42.4613 163.3 42.4543C163.3 42.4473 163.3 42.4404 163.3 42.4334C163.3 42.4264 163.3 42.4195 163.3 42.4125C163.3 42.4055 163.3 42.3986 163.3 42.3916C163.3 42.3846 163.3 42.3777 163.3 42.3707C163.3 42.3638 163.3 42.3568 163.3 42.3499C163.3 42.3429 163.3 42.336 163.3 42.329C163.3 42.3221 163.3 42.3151 163.3 42.3082C163.3 42.3012 163.3 42.2943 163.3 42.2874C163.3 42.2804 163.3 42.2735 163.3 42.2665C163.3 42.2596 163.3 42.2527 163.3 42.2458C163.3 42.2388 163.3 42.2319 163.3 42.225C163.3 42.218 163.3 42.2111 163.3 42.2042C163.3 42.1973 163.3 42.1904 163.3 42.1834C163.3 42.1765 163.3 42.1696 163.3 42.1627C163.3 42.1558 163.3 42.1489 163.3 42.142C163.3 42.1351 163.3 42.1282 163.3 42.1213C163.3 42.1144 163.3 42.1075 163.3 42.1006C163.3 42.0937 163.3 42.0868 163.3 42.0799C163.3 42.073 163.3 42.0661 163.3 42.0592C163.3 42.0523 163.3 42.0454 163.3 42.0386C163.3 42.0317 163.3 42.0248 163.3 42.0179C163.3 42.011 163.3 42.0042 163.3 41.9973C163.3 41.9904 163.3 41.9835 163.3 41.9767C163.3 41.9698 163.3 41.9629 163.3 41.9561C163.3 41.9492 163.3 41.9423 163.3 41.9355C163.3 41.9286 163.3 41.9217 163.3 41.9149C163.3 41.908 163.3 41.9012 163.3 41.8943C163.3 41.8875 163.3 41.8806 163.3 41.8738C163.3 41.8669 163.3 41.8601 163.3 41.8532C163.3 41.8464 163.3 41.8396 163.3 41.8327C163.3 41.8259 163.3 41.8191 163.3 41.8122C163.3 41.8054 163.3 41.7986 163.3 41.7917C163.3 41.7849 163.3 41.7781 163.3 41.7712C163.3 41.7644 163.3 41.7576 163.3 41.7508C163.3 41.744 163.3 41.7371 163.3 41.7303C163.3 41.7235 163.3 41.7167 163.3 41.7099C163.3 41.7031 163.3 41.6963 163.3 41.6895C163.3 41.6827 163.3 41.6759 163.3 41.6691C163.3 41.6623 163.3 41.6555 163.3 41.6487C163.3 41.6419 163.3 41.6351 163.3 41.6283C163.3 41.6215 163.3 41.6147 163.3 41.6079C163.3 41.6011 163.3 41.5943 163.3 41.5875C163.3 41.5808 163.3 41.574 163.3 41.5672C163.3 41.5604 163.3 41.5537 163.3 41.5469C163.3 41.5401 163.3 41.5333 163.3 41.5266C163.3 41.5198 163.3 41.513 163.3 41.5063C163.3 41.4995 163.3 41.4927 163.3 41.486C163.3 41.4792 163.3 41.4725 163.3 41.4657C163.3 41.4589 163.3 41.4522 163.3 41.4454C163.3 41.4387 163.3 41.4319 163.3 41.4252C163.3 41.4184 163.3 41.4117 163.3 41.405C163.3 41.3982 163.3 41.3915 163.3 41.3847C163.3 41.378 163.3 41.3713 163.3 41.3645C163.3 41.3578 163.3 41.3511 163.3 41.3443C163.3 41.3376 163.3 41.3309 163.3 41.3242C163.3 41.3174 163.3 41.3107 163.3 41.304C163.3 41.2973 163.3 41.2906 163.3 41.2839C163.3 41.2771 163.3 41.2704 163.3 41.2637C163.3 41.257 163.3 41.2503 163.3 41.2436C163.3 41.2369 163.3 41.2302 163.3 41.2235C163.3 41.2168 163.3 41.2101 163.3 41.2034C163.3 41.1967 163.3 41.19 163.3 41.1833C163.3 41.1766 163.3 41.1699 163.3 41.1632C163.3 41.1566 163.3 41.1499 163.3 41.1432C163.3 41.1365 163.3 41.1298 163.3 41.1231C163.3 41.1165 163.3 41.1098 163.3 41.1031C163.3 41.0965 163.3 41.0898 163.3 41.0831C163.3 41.0764 163.3 41.0698 163.3 41.0631C163.3 41.0564 163.3 41.0498 163.3 41.0431C163.3 41.0365 163.3 41.0298 163.3 41.0232C163.3 41.0165 163.3 41.0098 163.3 41.0032C163.3 40.9965 163.3 40.9899 163.3 40.9833C163.3 40.9766 163.3 40.97 163.3 40.9633C163.3 40.9567 163.3 40.95 163.3 40.9434C163.3 40.9368 163.3 40.9301 163.3 40.9235C163.3 40.9169 163.3 40.9102 163.3 40.9036C163.3 40.897 163.3 40.8904 163.3 40.8837C163.3 40.8771 163.3 40.8705 163.3 40.8639C163.3 40.8573 163.3 40.8506 163.3 40.844C163.3 40.8374 163.3 40.8308 163.3 40.8242C163.3 40.8176 163.3 40.811 163.3 40.8044C163.3 40.7978 163.3 40.7912 163.3 40.7846C163.3 40.778 163.3 40.7714 163.3 40.7648C163.3 40.7582 163.3 40.7516 163.3 40.745C163.3 40.7384 163.3 40.7318 163.3 40.7252C163.3 40.7186 163.3 40.7121 163.3 40.7055C163.3 40.6989 163.3 40.6923 163.3 40.6857C163.3 40.6792 163.3 40.6726 163.3 40.666C163.3 40.6594 163.3 40.6529 163.3 40.6463C163.3 40.6397 163.3 40.6332 163.3 40.6266C163.3 40.62 163.3 40.6135 163.3 40.6069C163.3 40.6004 163.3 40.5938 163.3 40.5873C163.3 40.5807 163.3 40.5742 163.3 40.5676C163.3 40.5611 163.3 40.5545 163.3 40.548C163.3 40.5414 163.3 40.5349 163.3 40.5283C163.3 40.5218 163.3 40.5153 163.3 40.5087C163.3 40.5022 163.3 40.4956 163.3 40.4891C163.3 40.4826 163.3 40.4761 163.3 40.4695C163.3 40.463 163.3 40.4565 163.3 40.45C163.3 40.4434 163.3 40.4369 163.3 40.4304C163.3 40.4239 163.3 40.4174 163.3 40.4109C163.3 40.4043 163.3 40.3978 163.3 40.3913C163.3 40.3848 163.3 40.3783 163.3 40.3718C163.3 40.3653 163.3 40.3588 163.3 40.3523C163.3 40.3458 163.3 40.3393 163.3 40.3328C163.3 40.3263 163.3 40.3198 163.3 40.3133C163.3 40.3068 163.3 40.3004 163.3 40.2939C163.3 40.2874 163.3 40.2809 163.3 40.2744C163.3 40.2679 163.3 40.2615 163.3 40.255C163.3 40.2485 163.3 40.242 163.3 40.2356C163.3 40.2291 163.3 40.2226 163.3 40.2161C163.3 40.2097 163.3 40.2032 163.3 40.1968C163.3 40.1903 163.3 40.1838 163.3 40.1774C163.3 40.1709 163.3 40.1645 163.3 40.158C163.3 40.1516 163.3 40.1451 163.3 40.1387C163.3 40.1322 163.3 40.1258 163.3 40.1193C163.3 40.1129 163.3 40.1064 163.3 40.1C163.3 40.0935 163.3 40.0871 163.3 40.0807C163.3 40.0742 163.3 40.0678 163.3 40.0614C163.3 40.0549 163.3 40.0485 163.3 40.0421C163.3 40.0357 163.3 40.0292 163.3 40.0228C163.3 40.0164 163.3 40.01 163.3 40.0036C163.3 39.9971 163.3 39.9907 163.3 39.9843C163.3 39.9779 163.3 39.9715 163.3 39.9651C163.3 39.9587 163.3 39.9523 163.3 39.9459C163.3 39.9395 163.3 39.9331 163.3 39.9267C163.3 39.9203 163.3 39.9139 163.3 39.9075C163.3 39.9011 163.3 39.8947 163.3 39.8883C163.3 39.8819 163.3 39.8755 163.3 39.8691C163.3 39.8628 163.3 39.8564 163.3 39.85C163.3 39.8436 163.3 39.8372 163.3 39.8309C163.3 39.8245 163.3 39.8181 163.3 39.8117C163.3 39.8054 163.3 39.799 163.3 39.7926C163.3 39.7863 163.3 39.7799 163.3 39.7735C163.3 39.7672 163.3 39.7608 163.3 39.7545C163.3 39.7481 163.3 39.7418 163.3 39.7354C163.3 39.729 163.3 39.7227 163.3 39.7163C163.3 39.71 163.3 39.7037 163.3 39.6973C163.3 39.691 163.3 39.6846 163.3 39.6783C163.3 39.6719 163.3 39.6656 163.3 39.6593C163.3 39.6529 163.3 39.6466 163.3 39.6403C163.3 39.634 163.3 39.6276 163.3 39.6213C163.3 39.615 163.3 39.6087 163.3 39.6023C163.3 39.596 163.3 39.5897 163.3 39.5834C163.3 39.5771 163.3 39.5707 163.3 39.5644C163.3 39.5581 163.3 39.5518 163.3 39.5455C163.3 39.5392 163.3 39.5329 163.3 39.5266C163.3 39.5203 163.3 39.514 163.3 39.5077C163.3 39.5014 163.3 39.4951 163.3 39.4888C163.3 39.4825 163.3 39.4762 163.3 39.4699C163.3 39.4636 163.3 39.4574 163.3 39.4511C163.3 39.4448 163.3 39.4385 163.3 39.4322C163.3 39.4259 163.3 39.4197 163.3 39.4134C163.3 39.4071 163.3 39.4008 163.3 39.3946C163.3 39.3883 163.3 39.382 163.3 39.3758C163.3 39.3695 163.3 39.3632 163.3 39.357C163.3 39.3507 163.3 39.3445 163.3 39.3382C163.3 39.3319 163.3 39.3257 163.3 39.3194C163.3 39.3132 163.3 39.3069 163.3 39.3007C163.3 39.2944 163.3 39.2882 163.3 39.282C163.3 39.2757 163.3 39.2695 163.3 39.2632C163.3 39.257 163.3 39.2508 163.3 39.2445C163.3 39.2383 163.3 39.2321 163.3 39.2258C163.3 39.2196 163.3 39.2134 163.3 39.2072C163.3 39.2009 163.3 39.1947 163.3 39.1885C163.3 39.1823 163.3 39.176 163.3 39.1698C163.3 39.1636 163.3 39.1574 163.3 39.1512C163.3 39.145 163.3 39.1388 163.3 39.1326C163.3 39.1264 163.3 39.1202 163.3 39.114C163.3 39.1078 163.3 39.1016 163.3 39.0954C163.3 39.0892 163.3 39.083 163.3 39.0768C163.3 39.0706 163.3 39.0644 163.3 39.0582C163.3 39.052 163.3 39.0458 163.3 39.0396C163.3 39.0335 163.3 39.0273 163.3 39.0211C163.3 39.0149 163.3 39.0087 163.3 39.0026C163.3 38.9964 163.3 38.9902 163.3 38.9841C163.3 38.9779 163.3 38.9717 163.3 38.9656C163.3 38.9594 163.3 38.9532 163.3 38.9471C163.3 38.9409 163.3 38.9347 163.3 38.9286C163.3 38.9224 163.3 38.9163 163.3 38.9101C163.3 38.904 163.3 38.8978 163.3 38.8917C163.3 38.8855 163.3 38.8794 163.3 38.8733C163.3 38.8671 163.3 38.861 163.3 38.8548C163.3 38.8487 163.3 38.8426 163.3 38.8364C163.3 38.8303 163.3 38.8242 163.3 38.818C163.3 38.8119 163.3 38.8058 163.3 38.7997C163.3 38.7935 163.3 38.7874 163.3 38.7813C163.3 38.7752 163.3 38.7691 163.3 38.7629C163.3 38.7568 163.3 38.7507 163.3 38.7446C163.3 38.7385 163.3 38.7324 163.3 38.7263C163.3 38.7202 163.3 38.7141 163.3 38.708C163.3 38.7019 163.3 38.6958 163.3 38.6897C163.3 38.6836 163.3 38.6775 163.3 38.6714C163.3 38.6653 163.3 38.6592 163.3 38.6531C163.3 38.647 163.3 38.6409 163.3 38.6349C163.3 38.6288 163.3 38.6227 163.3 38.6166C163.3 38.6105 163.3 38.6045 163.3 38.5984C163.3 38.5923 163.3 38.5863 163.3 38.5802C163.3 38.5741 163.3 38.568 163.3 38.562C163.3 38.5559 163.3 38.5499 163.3 38.5438C163.3 38.5377 163.3 38.5317 163.3 38.5256C163.3 38.5196 163.3 38.5135 163.3 38.5075C163.3 38.5014 163.3 38.4954 163.3 38.4893C163.3 38.4833 163.3 38.4772 163.3 38.4712C163.3 38.4651 163.3 38.4591 163.3 38.4531C163.3 38.447 163.3 38.441 163.3 38.435C163.3 38.4289 163.3 38.4229 163.3 38.4169C163.3 38.4109 163.3 38.4048 163.3 38.3988C163.3 38.3928 163.3 38.3868 163.3 38.3807C163.3 38.3747 163.3 38.3687 163.3 38.3627C163.3 38.3567 163.3 38.3507 163.3 38.3447C163.3 38.3386 163.3 38.3326 163.3 38.3266C163.3 38.3206 163.3 38.3146 163.3 38.3086C163.3 38.3026 163.3 38.2966 163.3 38.2906C163.3 38.2846 163.3 38.2786 163.3 38.2727C163.3 38.2667 163.3 38.2607 163.3 38.2547C163.3 38.2487 163.3 38.2427 163.3 38.2367C163.3 38.2308 163.3 38.2248 163.3 38.2188C163.3 38.2128 163.3 38.2068 163.3 38.2009C163.3 38.1949 163.3 38.1889 163.3 38.183C163.3 38.177 163.3 38.171 163.3 38.1651C163.3 38.1591 163.3 38.1531 163.3 38.1472C163.3 38.1412 163.3 38.1353 163.3 38.1293C163.3 38.1234 163.3 38.1174 163.3 38.1114C163.3 38.1055 163.3 38.0996 163.3 38.0936C163.3 38.0877 163.3 38.0817 163.3 38.0758C163.3 38.0698 163.3 38.0639 163.3 38.058C163.3 38.052 163.3 38.0461 163.3 38.0402C163.3 38.0342 163.3 38.0283 163.3 38.0224C163.3 38.0164 163.3 38.0105 163.3 38.0046C163.3 37.9987 163.3 37.9928 163.3 37.9868C163.3 37.9809 163.3 37.975 163.3 37.9691C163.3 37.9632 163.3 37.9573 163.3 37.9514C163.3 37.9454 163.3 37.9395 163.3 37.9336C163.3 37.9277 163.3 37.9218 163.3 37.9159C163.3 37.91 163.3 37.9041 163.3 37.8982C163.3 37.8923 163.3 37.8865 163.3 37.8806C163.3 37.8747 163.3 37.8688 163.3 37.8629C163.3 37.857 163.3 37.8511 163.3 37.8452C163.3 37.8394 163.3 37.8335 163.3 37.8276C163.3 37.8217 163.3 37.8159 163.3 37.81C163.3 37.8041 163.3 37.7982 163.3 37.7924C163.3 37.7865 163.3 37.7806 163.3 37.7748C163.3 37.7689 163.3 37.7631 163.3 37.7572C163.3 37.7513 163.3 37.7455 163.3 37.7396C163.3 37.7338 163.3 37.7279 163.3 37.7221C163.3 37.7162 163.3 37.7104 163.3 37.7045C163.3 37.6987 163.3 37.6929 163.3 37.687C163.3 37.6812 163.3 37.6753 163.3 37.6695C163.3 37.6637 163.3 37.6578 163.3 37.652C163.3 37.6462 163.3 37.6403 163.3 37.6345C163.3 37.6287 163.3 37.6229 163.3 37.617C163.3 37.6112 163.3 37.6054 163.3 37.5996C163.3 37.5938 163.3 37.5879 163.3 37.5821C163.3 37.5763 163.3 37.5705 163.3 37.5647C163.3 37.5589 163.3 37.5531 163.3 37.5473C163.3 37.5415 163.3 37.5357 163.3 37.5299C163.3 37.5241 163.3 37.5183 163.3 37.5125C163.3 37.5067 163.3 37.5009 163.3 37.4951C163.3 37.4893 163.3 37.4835 163.3 37.4778C163.3 37.472 163.3 37.4662 163.3 37.4604C163.3 37.4546 163.3 37.4489 163.3 37.4431C163.3 37.4373 163.3 37.4315 163.3 37.4258C163.3 37.42 163.3 37.4142 163.3 37.4084C163.3 37.4027 163.3 37.3969 163.3 37.3912C163.3 37.3854 163.3 37.3796 163.3 37.3739C163.3 37.3681 163.3 37.3624 163.3 37.3566C163.3 37.3509 163.3 37.3451 163.3 37.3394C163.3 37.3336 163.3 37.3279 163.3 37.3221C163.3 37.3164 163.3 37.3106 163.3 37.3049C163.3 37.2992 163.3 37.2934 163.3 37.2877C163.3 37.2819 163.3 37.2762 163.3 37.2705C163.3 37.2648 163.3 37.259 163.3 37.2533C163.3 37.2476 163.3 37.2418 163.3 37.2361C163.3 37.2304 163.3 37.2247 163.3 37.219C163.3 37.2133 163.3 37.2075 163.3 37.2018C163.3 37.1961 163.3 37.1904 163.3 37.1847C163.3 37.179 163.3 37.1733 163.3 37.1676C163.3 37.1619 163.3 37.1562 163.3 37.1505C163.3 37.1448 163.3 37.1391 163.3 37.1334C163.3 37.1277 163.3 37.122 163.3 37.1163C163.3 37.1106 163.3 37.1049 163.3 37.0993C163.3 37.0936 163.3 37.0879 163.3 37.0822C163.3 37.0765 163.3 37.0709 163.3 37.0652C163.3 37.0595 163.3 37.0538 163.3 37.0482C163.3 37.0425 163.3 37.0368 163.3 37.0312C163.3 37.0255 163.3 37.0198 163.3 37.0142C163.3 37.0085 163.3 37.0028 163.3 36.9972C163.3 36.9915 163.3 36.9859 163.3 36.9802C163.3 36.9746 163.3 36.9689 163.3 36.9633C163.3 36.9576 163.3 36.952 163.3 36.9463C163.3 36.9407 163.3 36.9351 163.3 36.9294C163.3 36.9238 163.3 36.9181 163.3 36.9125C163.3 36.9069 163.3 36.9012 163.3 36.8956C163.3 36.89 163.3 36.8844 163.3 36.8787C163.3 36.8731 163.3 36.8675 163.3 36.8619C163.3 36.8562 163.3 36.8506 163.3 36.845C163.3 36.8394 163.3 36.8338 163.3 36.8282C163.3 36.8226 163.3 36.8169 163.3 36.8113C163.3 36.8057 163.3 36.8001 163.3 36.7945C163.3 36.7889 163.3 36.7833 163.3 36.7777C163.3 36.7721 163.3 36.7665 163.3 36.7609C163.3 36.7554 163.3 36.7498 163.3 36.7442C163.3 36.7386 163.3 36.733 163.3 36.7274C163.3 36.7218 163.3 36.7162 163.3 36.7107C163.3 36.7051 163.3 36.6995 163.3 36.6939C163.3 36.6884 163.3 36.6828 163.3 36.6772C163.3 36.6717 163.3 36.6661 163.3 36.6605C163.3 36.655 163.3 36.6494 163.3 36.6438C163.3 36.6383 163.3 36.6327 163.3 36.6272C163.3 36.6216 163.3 36.616 163.3 36.6105C163.3 36.6049 163.3 36.5994 163.3 36.5938C163.3 36.5883 163.3 36.5828 163.3 36.5772C163.3 36.5717 163.3 36.5661 163.3 36.5606C163.3 36.5551 163.3 36.5495 163.3 36.544C163.3 36.5384 163.3 36.5329 163.3 36.5274C163.3 36.5219 163.3 36.5163 163.3 36.5108C163.3 36.5053 163.3 36.4998 163.3 36.4942C163.3 36.4887 163.3 36.4832 163.3 36.4777C163.3 36.4722 163.3 36.4667 163.3 36.4612C163.3 36.4556 163.3 36.4501 163.3 36.4446C163.3 36.4391 163.3 36.4336 163.3 36.4281C163.3 36.4226 163.3 36.4171 163.3 36.4116C163.3 36.4061 163.3 36.4006 163.3 36.3951C163.3 36.3896 163.3 36.3842 163.3 36.3787C163.3 36.3732 163.3 36.3677 163.3 36.3622C163.3 36.3567 163.3 36.3512 163.3 36.3458C163.3 36.3403 163.3 36.3348 163.3 36.3293C163.3 36.3239 163.3 36.3184 163.3 36.3129C163.3 36.3075 163.3 36.302 163.3 36.2965C163.3 36.2911 163.3 36.2856 163.3 36.2801C163.3 36.2747 163.3 36.2692 163.3 36.2638C163.3 36.2583 163.3 36.2529 163.3 36.2474C163.3 36.242 163.3 36.2365 163.3 36.2311C163.3 36.2256 163.3 36.2202 163.3 36.2147C163.3 36.2093 163.3 36.2038 163.3 36.1984C163.3 36.193 163.3 36.1875 163.3 36.1821C163.3 36.1767 163.3 36.1712 163.3 36.1658C163.3 36.1604 163.3 36.155 163.3 36.1495C163.3 36.1441 163.3 36.1387 163.3 36.1333C163.3 36.1279 163.3 36.1224 163.3 36.117C163.3 36.1116 163.3 36.1062 163.3 36.1008C163.3 36.0954 163.3 36.09 163.3 36.0846C163.3 36.0792 163.3 36.0738 163.3 36.0684C163.3 36.063 163.3 36.0576 163.3 36.0522C163.3 36.0468 163.3 36.0414 163.3 36.036C163.3 36.0306 163.3 36.0252 163.3 36.0198C163.3 36.0144 163.3 36.009 163.3 36.0037C163.3 35.9983 163.3 35.9929 163.3 35.9875C163.3 35.9821 163.3 35.9768 163.3 35.9714C163.3 35.966 163.3 35.9606 163.3 35.9553C163.3 35.9499 163.3 35.9445 163.3 35.9392C163.3 35.9338 163.3 35.9285 163.3 35.9231C163.3 35.9177 163.3 35.9124 163.3 35.907C163.3 35.9017 163.3 35.8963 163.3 35.891C163.3 35.8856 163.3 35.8803 163.3 35.8749C163.3 35.8696 163.3 35.8642 163.3 35.8589C163.3 35.8536 163.3 35.8482 163.3 35.8429C163.3 35.8375 163.3 35.8322 163.3 35.8269C163.3 35.8215 163.3 35.8162 163.3 35.8109C163.3 35.8056 163.3 35.8002 163.3 35.7949C163.3 35.7896 163.3 35.7843 163.3 35.7789C163.3 35.7736 163.3 35.7683 163.3 35.763C163.3 35.7577 163.3 35.7524 163.3 35.7471C163.3 35.7418 163.3 35.7365 163.3 35.7311C163.3 35.7258 163.3 35.7205 163.3 35.7152C163.3 35.7099 163.3 35.7046 163.3 35.6993C163.3 35.6941 163.3 35.6888 163.3 35.6835C163.3 35.6782 163.3 35.6729 163.3 35.6676C163.3 35.6623 163.3 35.657 163.3 35.6518C163.3 35.6465 163.3 35.6412 163.3 35.6359C163.3 35.6306 163.3 35.6254 163.3 35.6201C163.3 35.6148 163.3 35.6095 163.3 35.6043C163.3 35.599 163.3 35.5937 163.3 35.5885C163.3 35.5832 163.3 35.578 163.3 35.5727C163.3 35.5674 163.3 35.5622 163.3 35.5569C163.3 35.5517 163.3 35.5464 163.3 35.5412C163.3 35.5359 163.3 35.5307 163.3 35.5254C163.3 35.5202 163.3 35.5149 163.3 35.5097C163.3 35.5045 163.3 35.4992 163.3 35.494C163.3 35.4888 163.3 35.4835 163.3 35.4783C163.3 35.4731 163.3 35.4678 163.3 35.4626C163.3 35.4574 163.3 35.4522 163.3 35.4469C163.3 35.4417 163.3 35.4365 163.3 35.4313C163.3 35.4261 163.3 35.4208 163.3 35.4156C163.3 35.4104 163.3 35.4052 163.3 35.4H155.3C155.3 35.4052 155.3 35.4104 155.3 35.4156C155.3 35.4208 155.3 35.4261 155.3 35.4313C155.3 35.4365 155.3 35.4417 155.3 35.4469C155.3 35.4522 155.3 35.4574 155.3 35.4626C155.3 35.4678 155.3 35.4731 155.3 35.4783C155.3 35.4835 155.3 35.4888 155.3 35.494C155.3 35.4992 155.3 35.5045 155.3 35.5097C155.3 35.5149 155.3 35.5202 155.3 35.5254C155.3 35.5307 155.3 35.5359 155.3 35.5412C155.3 35.5464 155.3 35.5517 155.3 35.5569C155.3 35.5622 155.3 35.5674 155.3 35.5727C155.3 35.578 155.3 35.5832 155.3 35.5885C155.3 35.5937 155.3 35.599 155.3 35.6043C155.3 35.6095 155.3 35.6148 155.3 35.6201C155.3 35.6254 155.3 35.6306 155.3 35.6359C155.3 35.6412 155.3 35.6465 155.3 35.6518C155.3 35.657 155.3 35.6623 155.3 35.6676C155.3 35.6729 155.3 35.6782 155.3 35.6835C155.3 35.6888 155.3 35.6941 155.3 35.6993C155.3 35.7046 155.3 35.7099 155.3 35.7152C155.3 35.7205 155.3 35.7258 155.3 35.7311C155.3 35.7365 155.3 35.7418 155.3 35.7471C155.3 35.7524 155.3 35.7577 155.3 35.763C155.3 35.7683 155.3 35.7736 155.3 35.7789C155.3 35.7843 155.3 35.7896 155.3 35.7949C155.3 35.8002 155.3 35.8056 155.3 35.8109C155.3 35.8162 155.3 35.8215 155.3 35.8269C155.3 35.8322 155.3 35.8375 155.3 35.8429C155.3 35.8482 155.3 35.8536 155.3 35.8589C155.3 35.8642 155.3 35.8696 155.3 35.8749C155.3 35.8803 155.3 35.8856 155.3 35.891C155.3 35.8963 155.3 35.9017 155.3 35.907C155.3 35.9124 155.3 35.9177 155.3 35.9231C155.3 35.9285 155.3 35.9338 155.3 35.9392C155.3 35.9445 155.3 35.9499 155.3 35.9553C155.3 35.9606 155.3 35.966 155.3 35.9714C155.3 35.9768 155.3 35.9821 155.3 35.9875C155.3 35.9929 155.3 35.9983 155.3 36.0037C155.3 36.009 155.3 36.0144 155.3 36.0198C155.3 36.0252 155.3 36.0306 155.3 36.036C155.3 36.0414 155.3 36.0468 155.3 36.0522C155.3 36.0576 155.3 36.063 155.3 36.0684C155.3 36.0738 155.3 36.0792 155.3 36.0846C155.3 36.09 155.3 36.0954 155.3 36.1008C155.3 36.1062 155.3 36.1116 155.3 36.117C155.3 36.1224 155.3 36.1279 155.3 36.1333C155.3 36.1387 155.3 36.1441 155.3 36.1495C155.3 36.155 155.3 36.1604 155.3 36.1658C155.3 36.1712 155.3 36.1767 155.3 36.1821C155.3 36.1875 155.3 36.193 155.3 36.1984C155.3 36.2038 155.3 36.2093 155.3 36.2147C155.3 36.2202 155.3 36.2256 155.3 36.2311C155.3 36.2365 155.3 36.242 155.3 36.2474C155.3 36.2529 155.3 36.2583 155.3 36.2638C155.3 36.2692 155.3 36.2747 155.3 36.2801C155.3 36.2856 155.3 36.2911 155.3 36.2965C155.3 36.302 155.3 36.3075 155.3 36.3129C155.3 36.3184 155.3 36.3239 155.3 36.3293C155.3 36.3348 155.3 36.3403 155.3 36.3458C155.3 36.3512 155.3 36.3567 155.3 36.3622C155.3 36.3677 155.3 36.3732 155.3 36.3787C155.3 36.3842 155.3 36.3896 155.3 36.3951C155.3 36.4006 155.3 36.4061 155.3 36.4116C155.3 36.4171 155.3 36.4226 155.3 36.4281C155.3 36.4336 155.3 36.4391 155.3 36.4446C155.3 36.4501 155.3 36.4556 155.3 36.4612C155.3 36.4667 155.3 36.4722 155.3 36.4777C155.3 36.4832 155.3 36.4887 155.3 36.4942C155.3 36.4998 155.3 36.5053 155.3 36.5108C155.3 36.5163 155.3 36.5219 155.3 36.5274C155.3 36.5329 155.3 36.5384 155.3 36.544C155.3 36.5495 155.3 36.5551 155.3 36.5606C155.3 36.5661 155.3 36.5717 155.3 36.5772C155.3 36.5828 155.3 36.5883 155.3 36.5938C155.3 36.5994 155.3 36.6049 155.3 36.6105C155.3 36.616 155.3 36.6216 155.3 36.6272C155.3 36.6327 155.3 36.6383 155.3 36.6438C155.3 36.6494 155.3 36.655 155.3 36.6605C155.3 36.6661 155.3 36.6717 155.3 36.6772C155.3 36.6828 155.3 36.6884 155.3 36.6939C155.3 36.6995 155.3 36.7051 155.3 36.7107C155.3 36.7162 155.3 36.7218 155.3 36.7274C155.3 36.733 155.3 36.7386 155.3 36.7442C155.3 36.7498 155.3 36.7554 155.3 36.7609C155.3 36.7665 155.3 36.7721 155.3 36.7777C155.3 36.7833 155.3 36.7889 155.3 36.7945C155.3 36.8001 155.3 36.8057 155.3 36.8113C155.3 36.8169 155.3 36.8226 155.3 36.8282C155.3 36.8338 155.3 36.8394 155.3 36.845C155.3 36.8506 155.3 36.8562 155.3 36.8619C155.3 36.8675 155.3 36.8731 155.3 36.8787C155.3 36.8844 155.3 36.89 155.3 36.8956C155.3 36.9012 155.3 36.9069 155.3 36.9125C155.3 36.9181 155.3 36.9238 155.3 36.9294C155.3 36.9351 155.3 36.9407 155.3 36.9463C155.3 36.952 155.3 36.9576 155.3 36.9633C155.3 36.9689 155.3 36.9746 155.3 36.9802C155.3 36.9859 155.3 36.9915 155.3 36.9972C155.3 37.0028 155.3 37.0085 155.3 37.0142C155.3 37.0198 155.3 37.0255 155.3 37.0312C155.3 37.0368 155.3 37.0425 155.3 37.0482C155.3 37.0538 155.3 37.0595 155.3 37.0652C155.3 37.0709 155.3 37.0765 155.3 37.0822C155.3 37.0879 155.3 37.0936 155.3 37.0993C155.3 37.1049 155.3 37.1106 155.3 37.1163C155.3 37.122 155.3 37.1277 155.3 37.1334C155.3 37.1391 155.3 37.1448 155.3 37.1505C155.3 37.1562 155.3 37.1619 155.3 37.1676C155.3 37.1733 155.3 37.179 155.3 37.1847C155.3 37.1904 155.3 37.1961 155.3 37.2018C155.3 37.2075 155.3 37.2133 155.3 37.219C155.3 37.2247 155.3 37.2304 155.3 37.2361C155.3 37.2418 155.3 37.2476 155.3 37.2533C155.3 37.259 155.3 37.2648 155.3 37.2705C155.3 37.2762 155.3 37.2819 155.3 37.2877C155.3 37.2934 155.3 37.2992 155.3 37.3049C155.3 37.3106 155.3 37.3164 155.3 37.3221C155.3 37.3279 155.3 37.3336 155.3 37.3394C155.3 37.3451 155.3 37.3509 155.3 37.3566C155.3 37.3624 155.3 37.3681 155.3 37.3739C155.3 37.3796 155.3 37.3854 155.3 37.3912C155.3 37.3969 155.3 37.4027 155.3 37.4084C155.3 37.4142 155.3 37.42 155.3 37.4258C155.3 37.4315 155.3 37.4373 155.3 37.4431C155.3 37.4489 155.3 37.4546 155.3 37.4604C155.3 37.4662 155.3 37.472 155.3 37.4778C155.3 37.4835 155.3 37.4893 155.3 37.4951C155.3 37.5009 155.3 37.5067 155.3 37.5125C155.3 37.5183 155.3 37.5241 155.3 37.5299C155.3 37.5357 155.3 37.5415 155.3 37.5473C155.3 37.5531 155.3 37.5589 155.3 37.5647C155.3 37.5705 155.3 37.5763 155.3 37.5821C155.3 37.5879 155.3 37.5938 155.3 37.5996C155.3 37.6054 155.3 37.6112 155.3 37.617C155.3 37.6229 155.3 37.6287 155.3 37.6345C155.3 37.6403 155.3 37.6462 155.3 37.652C155.3 37.6578 155.3 37.6637 155.3 37.6695C155.3 37.6753 155.3 37.6812 155.3 37.687C155.3 37.6929 155.3 37.6987 155.3 37.7045C155.3 37.7104 155.3 37.7162 155.3 37.7221C155.3 37.7279 155.3 37.7338 155.3 37.7396C155.3 37.7455 155.3 37.7513 155.3 37.7572C155.3 37.7631 155.3 37.7689 155.3 37.7748C155.3 37.7806 155.3 37.7865 155.3 37.7924C155.3 37.7982 155.3 37.8041 155.3 37.81C155.3 37.8159 155.3 37.8217 155.3 37.8276C155.3 37.8335 155.3 37.8394 155.3 37.8452C155.3 37.8511 155.3 37.857 155.3 37.8629C155.3 37.8688 155.3 37.8747 155.3 37.8806C155.3 37.8865 155.3 37.8923 155.3 37.8982C155.3 37.9041 155.3 37.91 155.3 37.9159C155.3 37.9218 155.3 37.9277 155.3 37.9336C155.3 37.9395 155.3 37.9454 155.3 37.9514C155.3 37.9573 155.3 37.9632 155.3 37.9691C155.3 37.975 155.3 37.9809 155.3 37.9868C155.3 37.9928 155.3 37.9987 155.3 38.0046C155.3 38.0105 155.3 38.0164 155.3 38.0224C155.3 38.0283 155.3 38.0342 155.3 38.0402C155.3 38.0461 155.3 38.052 155.3 38.058C155.3 38.0639 155.3 38.0698 155.3 38.0758C155.3 38.0817 155.3 38.0877 155.3 38.0936C155.3 38.0996 155.3 38.1055 155.3 38.1114C155.3 38.1174 155.3 38.1234 155.3 38.1293C155.3 38.1353 155.3 38.1412 155.3 38.1472C155.3 38.1531 155.3 38.1591 155.3 38.1651C155.3 38.171 155.3 38.177 155.3 38.183C155.3 38.1889 155.3 38.1949 155.3 38.2009C155.3 38.2068 155.3 38.2128 155.3 38.2188C155.3 38.2248 155.3 38.2308 155.3 38.2367C155.3 38.2427 155.3 38.2487 155.3 38.2547C155.3 38.2607 155.3 38.2667 155.3 38.2727C155.3 38.2786 155.3 38.2846 155.3 38.2906C155.3 38.2966 155.3 38.3026 155.3 38.3086C155.3 38.3146 155.3 38.3206 155.3 38.3266C155.3 38.3326 155.3 38.3386 155.3 38.3447C155.3 38.3507 155.3 38.3567 155.3 38.3627C155.3 38.3687 155.3 38.3747 155.3 38.3807C155.3 38.3868 155.3 38.3928 155.3 38.3988C155.3 38.4048 155.3 38.4109 155.3 38.4169C155.3 38.4229 155.3 38.4289 155.3 38.435C155.3 38.441 155.3 38.447 155.3 38.4531C155.3 38.4591 155.3 38.4651 155.3 38.4712C155.3 38.4772 155.3 38.4833 155.3 38.4893C155.3 38.4954 155.3 38.5014 155.3 38.5075C155.3 38.5135 155.3 38.5196 155.3 38.5256C155.3 38.5317 155.3 38.5377 155.3 38.5438C155.3 38.5499 155.3 38.5559 155.3 38.562C155.3 38.568 155.3 38.5741 155.3 38.5802C155.3 38.5863 155.3 38.5923 155.3 38.5984C155.3 38.6045 155.3 38.6105 155.3 38.6166C155.3 38.6227 155.3 38.6288 155.3 38.6349C155.3 38.6409 155.3 38.647 155.3 38.6531C155.3 38.6592 155.3 38.6653 155.3 38.6714C155.3 38.6775 155.3 38.6836 155.3 38.6897C155.3 38.6958 155.3 38.7019 155.3 38.708C155.3 38.7141 155.3 38.7202 155.3 38.7263C155.3 38.7324 155.3 38.7385 155.3 38.7446C155.3 38.7507 155.3 38.7568 155.3 38.7629C155.3 38.7691 155.3 38.7752 155.3 38.7813C155.3 38.7874 155.3 38.7935 155.3 38.7997C155.3 38.8058 155.3 38.8119 155.3 38.818C155.3 38.8242 155.3 38.8303 155.3 38.8364C155.3 38.8426 155.3 38.8487 155.3 38.8548C155.3 38.861 155.3 38.8671 155.3 38.8733C155.3 38.8794 155.3 38.8855 155.3 38.8917C155.3 38.8978 155.3 38.904 155.3 38.9101C155.3 38.9163 155.3 38.9224 155.3 38.9286C155.3 38.9347 155.3 38.9409 155.3 38.9471C155.3 38.9532 155.3 38.9594 155.3 38.9656C155.3 38.9717 155.3 38.9779 155.3 38.9841C155.3 38.9902 155.3 38.9964 155.3 39.0026C155.3 39.0087 155.3 39.0149 155.3 39.0211C155.3 39.0273 155.3 39.0335 155.3 39.0396C155.3 39.0458 155.3 39.052 155.3 39.0582C155.3 39.0644 155.3 39.0706 155.3 39.0768C155.3 39.083 155.3 39.0892 155.3 39.0954C155.3 39.1016 155.3 39.1078 155.3 39.114C155.3 39.1202 155.3 39.1264 155.3 39.1326C155.3 39.1388 155.3 39.145 155.3 39.1512C155.3 39.1574 155.3 39.1636 155.3 39.1698C155.3 39.176 155.3 39.1823 155.3 39.1885C155.3 39.1947 155.3 39.2009 155.3 39.2072C155.3 39.2134 155.3 39.2196 155.3 39.2258C155.3 39.2321 155.3 39.2383 155.3 39.2445C155.3 39.2508 155.3 39.257 155.3 39.2632C155.3 39.2695 155.3 39.2757 155.3 39.282C155.3 39.2882 155.3 39.2944 155.3 39.3007C155.3 39.3069 155.3 39.3132 155.3 39.3194C155.3 39.3257 155.3 39.3319 155.3 39.3382C155.3 39.3445 155.3 39.3507 155.3 39.357C155.3 39.3632 155.3 39.3695 155.3 39.3758C155.3 39.382 155.3 39.3883 155.3 39.3946C155.3 39.4008 155.3 39.4071 155.3 39.4134C155.3 39.4197 155.3 39.4259 155.3 39.4322C155.3 39.4385 155.3 39.4448 155.3 39.4511C155.3 39.4574 155.3 39.4636 155.3 39.4699C155.3 39.4762 155.3 39.4825 155.3 39.4888C155.3 39.4951 155.3 39.5014 155.3 39.5077C155.3 39.514 155.3 39.5203 155.3 39.5266C155.3 39.5329 155.3 39.5392 155.3 39.5455C155.3 39.5518 155.3 39.5581 155.3 39.5644C155.3 39.5707 155.3 39.5771 155.3 39.5834C155.3 39.5897 155.3 39.596 155.3 39.6023C155.3 39.6087 155.3 39.615 155.3 39.6213C155.3 39.6276 155.3 39.634 155.3 39.6403C155.3 39.6466 155.3 39.6529 155.3 39.6593C155.3 39.6656 155.3 39.6719 155.3 39.6783C155.3 39.6846 155.3 39.691 155.3 39.6973C155.3 39.7037 155.3 39.71 155.3 39.7163C155.3 39.7227 155.3 39.729 155.3 39.7354C155.3 39.7418 155.3 39.7481 155.3 39.7545C155.3 39.7608 155.3 39.7672 155.3 39.7735C155.3 39.7799 155.3 39.7863 155.3 39.7926C155.3 39.799 155.3 39.8054 155.3 39.8117C155.3 39.8181 155.3 39.8245 155.3 39.8309C155.3 39.8372 155.3 39.8436 155.3 39.85C155.3 39.8564 155.3 39.8628 155.3 39.8691C155.3 39.8755 155.3 39.8819 155.3 39.8883C155.3 39.8947 155.3 39.9011 155.3 39.9075C155.3 39.9139 155.3 39.9203 155.3 39.9267C155.3 39.9331 155.3 39.9395 155.3 39.9459C155.3 39.9523 155.3 39.9587 155.3 39.9651C155.3 39.9715 155.3 39.9779 155.3 39.9843C155.3 39.9907 155.3 39.9971 155.3 40.0036C155.3 40.01 155.3 40.0164 155.3 40.0228C155.3 40.0292 155.3 40.0357 155.3 40.0421C155.3 40.0485 155.3 40.0549 155.3 40.0614C155.3 40.0678 155.3 40.0742 155.3 40.0807C155.3 40.0871 155.3 40.0935 155.3 40.1C155.3 40.1064 155.3 40.1129 155.3 40.1193C155.3 40.1258 155.3 40.1322 155.3 40.1387C155.3 40.1451 155.3 40.1516 155.3 40.158C155.3 40.1645 155.3 40.1709 155.3 40.1774C155.3 40.1838 155.3 40.1903 155.3 40.1968C155.3 40.2032 155.3 40.2097 155.3 40.2161C155.3 40.2226 155.3 40.2291 155.3 40.2356C155.3 40.242 155.3 40.2485 155.3 40.255C155.3 40.2615 155.3 40.2679 155.3 40.2744C155.3 40.2809 155.3 40.2874 155.3 40.2939C155.3 40.3004 155.3 40.3068 155.3 40.3133C155.3 40.3198 155.3 40.3263 155.3 40.3328C155.3 40.3393 155.3 40.3458 155.3 40.3523C155.3 40.3588 155.3 40.3653 155.3 40.3718C155.3 40.3783 155.3 40.3848 155.3 40.3913C155.3 40.3978 155.3 40.4043 155.3 40.4109C155.3 40.4174 155.3 40.4239 155.3 40.4304C155.3 40.4369 155.3 40.4434 155.3 40.45C155.3 40.4565 155.3 40.463 155.3 40.4695C155.3 40.4761 155.3 40.4826 155.3 40.4891C155.3 40.4956 155.3 40.5022 155.3 40.5087C155.3 40.5153 155.3 40.5218 155.3 40.5283C155.3 40.5349 155.3 40.5414 155.3 40.548C155.3 40.5545 155.3 40.5611 155.3 40.5676C155.3 40.5742 155.3 40.5807 155.3 40.5873C155.3 40.5938 155.3 40.6004 155.3 40.6069C155.3 40.6135 155.3 40.62 155.3 40.6266C155.3 40.6332 155.3 40.6397 155.3 40.6463C155.3 40.6529 155.3 40.6594 155.3 40.666C155.3 40.6726 155.3 40.6792 155.3 40.6857C155.3 40.6923 155.3 40.6989 155.3 40.7055C155.3 40.7121 155.3 40.7186 155.3 40.7252C155.3 40.7318 155.3 40.7384 155.3 40.745C155.3 40.7516 155.3 40.7582 155.3 40.7648C155.3 40.7714 155.3 40.778 155.3 40.7846C155.3 40.7912 155.3 40.7978 155.3 40.8044C155.3 40.811 155.3 40.8176 155.3 40.8242C155.3 40.8308 155.3 40.8374 155.3 40.844C155.3 40.8506 155.3 40.8573 155.3 40.8639C155.3 40.8705 155.3 40.8771 155.3 40.8837C155.3 40.8904 155.3 40.897 155.3 40.9036C155.3 40.9102 155.3 40.9169 155.3 40.9235C155.3 40.9301 155.3 40.9368 155.3 40.9434C155.3 40.95 155.3 40.9567 155.3 40.9633C155.3 40.97 155.3 40.9766 155.3 40.9833C155.3 40.9899 155.3 40.9965 155.3 41.0032C155.3 41.0098 155.3 41.0165 155.3 41.0232C155.3 41.0298 155.3 41.0365 155.3 41.0431C155.3 41.0498 155.3 41.0564 155.3 41.0631C155.3 41.0698 155.3 41.0764 155.3 41.0831C155.3 41.0898 155.3 41.0965 155.3 41.1031C155.3 41.1098 155.3 41.1165 155.3 41.1231C155.3 41.1298 155.3 41.1365 155.3 41.1432C155.3 41.1499 155.3 41.1566 155.3 41.1632C155.3 41.1699 155.3 41.1766 155.3 41.1833C155.3 41.19 155.3 41.1967 155.3 41.2034C155.3 41.2101 155.3 41.2168 155.3 41.2235C155.3 41.2302 155.3 41.2369 155.3 41.2436C155.3 41.2503 155.3 41.257 155.3 41.2637C155.3 41.2704 155.3 41.2771 155.3 41.2839C155.3 41.2906 155.3 41.2973 155.3 41.304C155.3 41.3107 155.3 41.3174 155.3 41.3242C155.3 41.3309 155.3 41.3376 155.3 41.3443C155.3 41.3511 155.3 41.3578 155.3 41.3645C155.3 41.3713 155.3 41.378 155.3 41.3847C155.3 41.3915 155.3 41.3982 155.3 41.405C155.3 41.4117 155.3 41.4184 155.3 41.4252C155.3 41.4319 155.3 41.4387 155.3 41.4454C155.3 41.4522 155.3 41.4589 155.3 41.4657C155.3 41.4725 155.3 41.4792 155.3 41.486C155.3 41.4927 155.3 41.4995 155.3 41.5063C155.3 41.513 155.3 41.5198 155.3 41.5266C155.3 41.5333 155.3 41.5401 155.3 41.5469C155.3 41.5537 155.3 41.5604 155.3 41.5672C155.3 41.574 155.3 41.5808 155.3 41.5875C155.3 41.5943 155.3 41.6011 155.3 41.6079C155.3 41.6147 155.3 41.6215 155.3 41.6283C155.3 41.6351 155.3 41.6419 155.3 41.6487C155.3 41.6555 155.3 41.6623 155.3 41.6691C155.3 41.6759 155.3 41.6827 155.3 41.6895C155.3 41.6963 155.3 41.7031 155.3 41.7099C155.3 41.7167 155.3 41.7235 155.3 41.7303C155.3 41.7371 155.3 41.744 155.3 41.7508C155.3 41.7576 155.3 41.7644 155.3 41.7712C155.3 41.7781 155.3 41.7849 155.3 41.7917C155.3 41.7986 155.3 41.8054 155.3 41.8122C155.3 41.8191 155.3 41.8259 155.3 41.8327C155.3 41.8396 155.3 41.8464 155.3 41.8532C155.3 41.8601 155.3 41.8669 155.3 41.8738C155.3 41.8806 155.3 41.8875 155.3 41.8943C155.3 41.9012 155.3 41.908 155.3 41.9149C155.3 41.9217 155.3 41.9286 155.3 41.9355C155.3 41.9423 155.3 41.9492 155.3 41.9561C155.3 41.9629 155.3 41.9698 155.3 41.9767C155.3 41.9835 155.3 41.9904 155.3 41.9973C155.3 42.0042 155.3 42.011 155.3 42.0179C155.3 42.0248 155.3 42.0317 155.3 42.0386C155.3 42.0454 155.3 42.0523 155.3 42.0592C155.3 42.0661 155.3 42.073 155.3 42.0799C155.3 42.0868 155.3 42.0937 155.3 42.1006C155.3 42.1075 155.3 42.1144 155.3 42.1213C155.3 42.1282 155.3 42.1351 155.3 42.142C155.3 42.1489 155.3 42.1558 155.3 42.1627C155.3 42.1696 155.3 42.1765 155.3 42.1834C155.3 42.1904 155.3 42.1973 155.3 42.2042C155.3 42.2111 155.3 42.218 155.3 42.225C155.3 42.2319 155.3 42.2388 155.3 42.2458C155.3 42.2527 155.3 42.2596 155.3 42.2665C155.3 42.2735 155.3 42.2804 155.3 42.2874C155.3 42.2943 155.3 42.3012 155.3 42.3082C155.3 42.3151 155.3 42.3221 155.3 42.329C155.3 42.336 155.3 42.3429 155.3 42.3499C155.3 42.3568 155.3 42.3638 155.3 42.3707C155.3 42.3777 155.3 42.3846 155.3 42.3916C155.3 42.3986 155.3 42.4055 155.3 42.4125C155.3 42.4195 155.3 42.4264 155.3 42.4334C155.3 42.4404 155.3 42.4473 155.3 42.4543C155.3 42.4613 155.3 42.4683 155.3 42.4753C155.3 42.4822 155.3 42.4892 155.3 42.4962C155.3 42.5032 155.3 42.5102 155.3 42.5172C155.3 42.5242 155.3 42.5311 155.3 42.5381C155.3 42.5451 155.3 42.5521 155.3 42.5591C155.3 42.5661 155.3 42.5731 155.3 42.5801C155.3 42.5871 155.3 42.5941 155.3 42.6011C155.3 42.6081 155.3 42.6152 155.3 42.6222C155.3 42.6292 155.3 42.6362 155.3 42.6432C155.3 42.6502 155.3 42.6572 155.3 42.6643C155.3 42.6713 155.3 42.6783 155.3 42.6853C155.3 42.6924 155.3 42.6994 155.3 42.7064C155.3 42.7135 155.3 42.7205 155.3 42.7275C155.3 42.7346 155.3 42.7416 155.3 42.7486C155.3 42.7557 155.3 42.7627 155.3 42.7698C155.3 42.7768 155.3 42.7838 155.3 42.7909C155.3 42.7979 155.3 42.805 155.3 42.812C155.3 42.8191 155.3 42.8262 155.3 42.8332C155.3 42.8403 155.3 42.8473 155.3 42.8544C155.3 42.8615 155.3 42.8685 155.3 42.8756C155.3 42.8827 155.3 42.8897 155.3 42.8968C155.3 42.9039 155.3 42.9109 155.3 42.918C155.3 42.9251 155.3 42.9322 155.3 42.9393C155.3 42.9463 155.3 42.9534 155.3 42.9605C155.3 42.9676 155.3 42.9747 155.3 42.9818C155.3 42.9889 155.3 42.9959 155.3 43.003C155.3 43.0101 155.3 43.0172 155.3 43.0243C155.3 43.0314 155.3 43.0385 155.3 43.0456C155.3 43.0527 155.3 43.0598 155.3 43.0669C155.3 43.0741 155.3 43.0812 155.3 43.0883C155.3 43.0954 155.3 43.1025 155.3 43.1096C155.3 43.1167 155.3 43.1239 155.3 43.131C155.3 43.1381 155.3 43.1452 155.3 43.1524C155.3 43.1595 155.3 43.1666 155.3 43.1737C155.3 43.1809 155.3 43.188 155.3 43.1951C155.3 43.2023 155.3 43.2094 155.3 43.2166C155.3 43.2237 155.3 43.2308 155.3 43.238C155.3 43.2451 155.3 43.2523 155.3 43.2594C155.3 43.2666 155.3 43.2737 155.3 43.2809C155.3 43.288 155.3 43.2952 155.3 43.3023C155.3 43.3095 155.3 43.3167 155.3 43.3238C155.3 43.331 155.3 43.3382 155.3 43.3453C155.3 43.3525 155.3 43.3597 155.3 43.3668C155.3 43.374 155.3 43.3812 155.3 43.3884C155.3 43.3955 155.3 43.4027 155.3 43.4099C155.3 43.4171 155.3 43.4243 155.3 43.4314C155.3 43.4386 155.3 43.4458 155.3 43.453C155.3 43.4602 155.3 43.4674 155.3 43.4746C155.3 43.4818 155.3 43.489 155.3 43.4962C155.3 43.5034 155.3 43.5106 155.3 43.5178C155.3 43.525 155.3 43.5322 155.3 43.5394C155.3 43.5466 155.3 43.5538 155.3 43.561C155.3 43.5682 155.3 43.5755 155.3 43.5827C155.3 43.5899 155.3 43.5971 155.3 43.6043C155.3 43.6116 155.3 43.6188 155.3 43.626C155.3 43.6332 155.3 43.6405 155.3 43.6477C155.3 43.6549 155.3 43.6622 155.3 43.6694C155.3 43.6766 155.3 43.6839 155.3 43.6911C155.3 43.6984 155.3 43.7056 155.3 43.7129C155.3 43.7201 155.3 43.7273 155.3 43.7346C155.3 43.7418 155.3 43.7491 155.3 43.7564C155.3 43.7636 155.3 43.7709 155.3 43.7781C155.3 43.7854 155.3 43.7926 155.3 43.7999C155.3 43.8072 155.3 43.8144 155.3 43.8217C155.3 43.829 155.3 43.8362 155.3 43.8435C155.3 43.8508 155.3 43.8581 155.3 43.8653C155.3 43.8726 155.3 43.8799 155.3 43.8872C155.3 43.8945 155.3 43.9017 155.3 43.909C155.3 43.9163 155.3 43.9236 155.3 43.9309C155.3 43.9382 155.3 43.9455 155.3 43.9528C155.3 43.9601 155.3 43.9674 155.3 43.9747C155.3 43.982 155.3 43.9893 155.3 43.9966C155.3 44.0039 155.3 44.0112 155.3 44.0185C155.3 44.0258 155.3 44.0331 155.3 44.0404C155.3 44.0478 155.3 44.0551 155.3 44.0624C155.3 44.0697 155.3 44.077 155.3 44.0844C155.3 44.0917 155.3 44.099 155.3 44.1063C155.3 44.1137 155.3 44.121 155.3 44.1283C155.3 44.1357 155.3 44.143 155.3 44.1503C155.3 44.1577 155.3 44.165 155.3 44.1723C155.3 44.1797 155.3 44.187 155.3 44.1944C155.3 44.2017 155.3 44.2091 155.3 44.2164C155.3 44.2238 155.3 44.2311 155.3 44.2385C155.3 44.2458 155.3 44.2532 155.3 44.2605C155.3 44.2679 155.3 44.2753 155.3 44.2826C155.3 44.29 155.3 44.2974 155.3 44.3047C155.3 44.3121 155.3 44.3195 155.3 44.3268C155.3 44.3342 155.3 44.3416 155.3 44.349C155.3 44.3564 155.3 44.3637 155.3 44.3711C155.3 44.3785 155.3 44.3859 155.3 44.3933C155.3 44.4007 155.3 44.408 155.3 44.4154C155.3 44.4228 155.3 44.4302 155.3 44.4376C155.3 44.445 155.3 44.4524 155.3 44.4598C155.3 44.4672 155.3 44.4746 155.3 44.482C155.3 44.4894 155.3 44.4968 155.3 44.5043C155.3 44.5117 155.3 44.5191 155.3 44.5265C155.3 44.5339 155.3 44.5413 155.3 44.5487C155.3 44.5562 155.3 44.5636 155.3 44.571C155.3 44.5784 155.3 44.5859 155.3 44.5933C155.3 44.6007 155.3 44.6081 155.3 44.6156C155.3 44.623 155.3 44.6304 155.3 44.6379C155.3 44.6453 155.3 44.6528 155.3 44.6602C155.3 44.6676 155.3 44.6751 155.3 44.6825C155.3 44.69 155.3 44.6974 155.3 44.7049C155.3 44.7123 155.3 44.7198 155.3 44.7272C155.3 44.7347 155.3 44.7422 155.3 44.7496C155.3 44.7571 155.3 44.7645 155.3 44.772C155.3 44.7795 155.3 44.7869 155.3 44.7944C155.3 44.8019 155.3 44.8094 155.3 44.8168C155.3 44.8243 155.3 44.8318 155.3 44.8393C155.3 44.8467 155.3 44.8542 155.3 44.8617C155.3 44.8692 155.3 44.8767 155.3 44.8842C155.3 44.8916 155.3 44.8991 155.3 44.9066C155.3 44.9141 155.3 44.9216 155.3 44.9291C155.3 44.9366 155.3 44.9441 155.3 44.9516C155.3 44.9591 155.3 44.9666 155.3 44.9741C155.3 44.9816 155.3 44.9891 155.3 44.9966C155.3 45.0042 155.3 45.0117 155.3 45.0192C155.3 45.0267 155.3 45.0342 155.3 45.0417C155.3 45.0493 155.3 45.0568 155.3 45.0643C155.3 45.0718 155.3 45.0794 155.3 45.0869C155.3 45.0944 155.3 45.1019 155.3 45.1095C155.3 45.117 155.3 45.1246 155.3 45.1321C155.3 45.1396 155.3 45.1472 155.3 45.1547C155.3 45.1623 155.3 45.1698 155.3 45.1773C155.3 45.1849 155.3 45.1924 155.3 45.2H163.3ZM163.295 35.5997C163.428 32.9428 163.561 30.488 163.693 28.2349L155.707 27.7651C155.573 30.0453 155.439 32.5238 155.305 35.2002L163.295 35.5997ZM163.694 28.2219C163.827 25.8178 163.961 23.3472 164.094 20.8102L156.106 20.3898C155.972 22.9194 155.839 25.3822 155.706 27.7781L163.694 28.2219ZM157.272 17.7716C155.193 19.8502 153.343 21.5702 151.716 22.9464L156.884 29.0535C158.724 27.4964 160.74 25.6164 162.928 23.4284L157.272 17.7716ZM151.716 22.9464C149.98 24.4158 147.777 26.2845 145.109 28.5522L150.291 34.6477C152.956 32.3821 155.154 30.5175 156.884 29.0535L151.716 22.9464ZM145.171 28.5005L129.971 40.9005L135.029 47.0995L150.229 34.6995L145.171 28.5005ZM135.655 41.5405L126.455 29.7405L120.145 34.6595L129.345 46.4595L135.655 41.5405ZM125.755 35.3583L164.355 5.35828L159.445 -0.958299L120.845 29.0417L125.755 35.3583ZM161.9 6.19999H176.5V-1.80001H161.9V6.19999ZM172.5 2.19999V145H180.5V2.19999H172.5Z" fill="#478DE0"/>
</svg>
