<svg width="200" height="200" viewBox="0 0 250 200" fill="none" xmlns="http://www.w3.org/2000/svg">
<path d="M93.0469 104.4L96.9757 105.151L96.9757 105.151L93.0469 104.4ZM84.6469 127.6L81.2232 125.532L81.2168 125.542L81.2105 125.553L84.6469 127.6ZM69.8469 142L67.9368 138.486L67.9205 138.494L67.9043 138.503L69.8469 142ZM21.4469 138.2L18.8631 141.254L18.8774 141.266L18.8919 141.278L21.4469 138.2ZM5.84688 113L2.01684 114.154L2.0252 114.181L2.03395 114.209L5.84688 113ZM5.44688 33.8L1.60793 32.6764L1.6016 32.698L1.59551 32.7197L5.44688 33.8ZM20.6469 8.79999L23.1959 11.8826L23.2134 11.8682L23.2306 11.8535L20.6469 8.79999ZM74.6469 8.79999L72.0919 11.8776L72.1092 11.892L72.1267 11.9062L74.6469 8.79999ZM90.4469 33.8L94.2598 32.591L94.2598 32.591L90.4469 33.8ZM21.2469 106L17.3365 106.842L17.3427 106.871L17.3493 106.899L21.2469 106ZM30.6469 125.6L27.7753 128.385L27.8181 128.429L27.8623 128.472L30.6469 125.6ZM65.2469 125.6L62.4623 122.728L62.4402 122.75L62.4185 122.772L65.2469 125.6ZM74.8469 106.2L78.7445 107.099L78.7474 107.086L74.8469 106.2ZM74.8469 41L70.9493 41.8994L70.9524 41.9128L74.8469 41ZM65.2469 21.6L62.3753 24.3846L62.4181 24.4288L62.4623 24.4716L65.2469 21.6ZM21.2469 41L17.3493 40.1006L17.3442 40.1229L17.3393 40.1452L21.2469 41ZM91.6469 73.4C91.6469 84.8089 90.7938 94.8833 89.118 103.649L96.9757 105.151C98.7666 95.7834 99.6469 85.191 99.6469 73.4H91.6469ZM89.118 103.649C87.4536 112.355 84.7948 119.62 81.2232 125.532L88.0705 129.668C92.2322 122.78 95.1735 114.578 96.9757 105.151L89.118 103.649ZM81.2105 125.553C77.8276 131.231 73.4098 135.511 67.9368 138.486L71.7569 145.514C78.5506 141.822 83.9995 136.502 88.0833 129.647L81.2105 125.553ZM67.9043 138.503C62.6265 141.435 56.0636 143 48.0469 143V151C57.0969 151 65.0673 149.231 71.7895 145.497L67.9043 138.503ZM48.0469 143C38.1549 143 30.2374 140.299 24.0019 135.122L18.8919 141.278C26.7897 147.834 36.6055 151 48.0469 151V143ZM24.0306 135.146C17.8062 129.88 12.9581 122.193 9.6598 111.791L2.03395 114.209C5.66897 125.673 11.2209 134.787 18.8631 141.254L24.0306 135.146ZM9.67691 111.846C6.48618 101.253 4.84688 88.4619 4.84688 73.4H-3.15312C-3.15312 89.0048 -1.45909 102.614 2.01684 114.154L9.67691 111.846ZM4.84688 73.4C4.84688 58.1763 6.35851 45.3611 9.29824 34.8803L1.59551 32.7197C-1.59809 44.1056 -3.15312 57.6904 -3.15312 73.4H4.84688ZM9.28583 34.9236C12.321 24.5534 17.0243 16.986 23.1959 11.8826L18.0978 5.71741C10.4027 12.0807 4.97275 21.1799 1.60793 32.6764L9.28583 34.9236ZM23.2306 11.8535C29.2764 6.73789 37.4178 4 48.0469 4V-4C36.0093 -4 25.884 -0.871235 18.0631 5.74644L23.2306 11.8535ZM48.0469 4C57.9388 4 65.8564 6.70099 72.0919 11.8776L77.2019 5.72235C69.3041 -0.834337 59.4883 -4 48.0469 -4V4ZM72.1267 11.9062C78.4458 17.033 83.3422 24.6272 86.634 35.009L94.2598 32.591C90.6183 21.1061 84.9813 12.0336 77.167 5.69374L72.1267 11.9062ZM86.634 35.009C89.942 45.442 91.6469 58.2105 91.6469 73.4H99.6469C99.6469 57.6562 97.8851 44.0247 94.2598 32.591L86.634 35.009ZM14.4469 73.4C14.4469 86.6299 15.3894 97.8021 17.3365 106.842L25.1572 105.158C23.371 96.8646 22.4469 86.3034 22.4469 73.4H14.4469ZM17.3493 106.899C19.4436 115.975 22.8221 123.277 27.7753 128.385L33.5185 122.815C29.9383 119.123 27.0502 113.359 25.1444 105.101L17.3493 106.899ZM27.8623 128.472C33.1376 133.587 40.0021 136 48.0469 136V128C41.6916 128 36.9561 126.146 33.4315 122.728L27.8623 128.472ZM48.0469 136C56.0879 136 62.9162 133.588 68.0753 128.428L62.4185 122.772C59.0442 126.146 54.4058 128 48.0469 128V136ZM68.0315 128.472C73.1813 123.478 76.6452 116.196 78.7444 107.099L70.9493 105.301C69.0485 113.537 66.1124 119.189 62.4623 122.728L68.0315 128.472ZM78.7474 107.086C80.8357 97.898 81.8469 86.6447 81.8469 73.4H73.8469C73.8469 86.2886 72.8581 96.902 70.9463 105.314L78.7474 107.086ZM81.8469 73.4C81.8469 60.1604 80.8366 49.0271 78.7413 40.0872L70.9524 41.9128C72.8571 50.0396 73.8469 60.5063 73.8469 73.4H81.8469ZM78.7444 40.1006C76.6452 31.004 73.1813 23.7222 68.0315 18.7284L62.4623 24.4716C66.1124 28.0111 69.0485 33.6627 70.9493 41.8994L78.7444 40.1006ZM68.1185 18.8154C62.9669 13.5029 56.1243 11 48.0469 11V19C54.3694 19 58.9935 20.8971 62.3753 24.3846L68.1185 18.8154ZM48.0469 11C39.9664 11 33.0872 13.5028 27.8185 18.7716L33.4753 24.4284C37.0066 20.8972 41.7274 19 48.0469 19V11ZM27.8185 18.7716C22.827 23.763 19.4429 31.0285 17.3493 40.1006L25.1444 41.8994C27.0509 33.6382 29.9334 27.9703 33.4753 24.4284L27.8185 18.7716ZM17.3393 40.1452C15.389 49.0607 14.4469 60.1725 14.4469 73.4H22.4469C22.4469 60.4941 23.3714 50.006 25.1545 41.8548L17.3393 40.1452ZM209.5 145V149H213.5V145H209.5ZM115.1 145H111.1V149H115.1V145ZM115.1 130.4L112.257 127.587L111.1 128.756V130.4H115.1ZM152.5 92.6L149.672 89.7716L149.664 89.7791L149.657 89.7867L152.5 92.6ZM181.9 57L185.513 58.7162L185.521 58.6991L185.529 58.6818L181.9 57ZM178.7 21.4L176.048 24.3943L176.072 24.4159L176.097 24.437L178.7 21.4ZM142.1 18.8L140.459 15.1523L140.441 15.1601L140.424 15.1682L142.1 18.8ZM126.1 28.8L122.971 31.2923L125.439 34.39L128.561 31.9533L126.1 28.8ZM116.7 17L114.097 13.963L111.167 16.4742L113.571 19.4923L116.7 17ZM128.9 8.39999L126.949 4.90822L126.926 4.92072L126.904 4.9335L128.9 8.39999ZM143.5 2.39999L142.439 -1.45683L142.427 -1.45336L142.414 -1.44981L143.5 2.39999ZM198.3 18L194.877 20.0697L194.906 20.1167L194.935 20.163L198.3 18ZM201.1 54.2L204.874 55.5259L204.879 55.5104L204.885 55.4947L201.1 54.2ZM193.7 68.8L190.372 66.5812L190.372 66.5812L193.7 68.8ZM167.1 98.8L164.307 95.9369L164.299 95.9447L164.291 95.9525L167.1 98.8ZM137.3 128.2L134.491 125.353L133.3 126.527V128.2H137.3ZM137.3 129H133.3V133H137.3V129ZM209.5 129H213.5V125H209.5V129ZM209.5 141H115.1V149H209.5V141ZM119.1 145V130.4H111.1V145H119.1ZM117.943 133.213L155.343 95.4133L149.657 89.7867L112.257 127.587L117.943 133.213ZM155.328 95.4284C162.568 88.1886 168.697 81.7254 173.701 76.0441L167.699 70.7559C162.837 76.2746 156.832 82.6114 149.672 89.7716L155.328 95.4284ZM173.701 76.0441C178.819 70.2347 182.784 64.4607 185.513 58.7162L178.287 55.2838C175.949 60.2059 172.447 65.3653 167.699 70.7559L173.701 76.0441ZM185.529 58.6818C188.322 52.6557 189.7 46.144 189.7 39.2H181.7C181.7 45.056 180.545 50.411 178.271 55.3182L185.529 58.6818ZM189.7 39.2C189.7 30.5169 187.092 23.3251 181.303 18.363L176.097 24.437C179.641 27.4749 181.7 32.1498 181.7 39.2H189.7ZM181.352 18.4056C175.815 13.5012 168.741 11.2 160.5 11.2V19.2C167.193 19.2 172.252 21.0321 176.048 24.3943L181.352 18.4056ZM160.5 11.2C153.104 11.2 146.395 12.481 140.459 15.1523L143.741 22.4477C148.472 20.319 154.029 19.2 160.5 19.2V11.2ZM140.424 15.1682C134.893 17.7206 129.299 21.2291 123.639 25.6467L128.561 31.9533C133.834 27.8376 138.907 24.6794 143.776 22.4318L140.424 15.1682ZM129.229 26.3077L119.829 14.5077L113.571 19.4923L122.971 31.2923L129.229 26.3077ZM119.303 20.037C122.842 17.0039 126.704 14.2799 130.896 11.8665L126.904 4.9335C122.296 7.58679 118.025 10.5961 114.097 13.963L119.303 20.037ZM130.851 11.8918C135.1 9.51731 139.675 7.63485 144.586 6.24979L142.414 -1.44981C136.925 0.098467 131.766 2.21602 126.949 4.90822L130.851 11.8918ZM144.561 6.25681C149.521 4.89284 154.828 4.19999 160.5 4.19999V-3.80001C154.172 -3.80001 148.146 -3.02619 142.439 -1.45683L144.561 6.25681ZM160.5 4.19999C168.986 4.19999 176.032 5.6571 181.772 8.40726L185.228 1.19273C178.168 -2.19045 169.881 -3.80001 160.5 -3.80001V4.19999ZM181.772 8.40726C187.513 11.1583 191.838 15.0432 194.877 20.0697L201.723 15.9303C197.829 9.49009 192.287 4.57506 185.228 1.19273L181.772 8.40726ZM194.935 20.163C198.05 25.0083 199.7 30.9588 199.7 38.2H207.7C207.7 29.7079 205.75 22.1917 201.665 15.837L194.935 20.163ZM199.7 38.2C199.7 43.3798 198.9 48.2742 197.315 52.9052L204.885 55.4947C206.767 49.9925 207.7 44.2202 207.7 38.2H199.7ZM197.326 52.8741C195.714 57.4618 193.405 62.0308 190.372 66.5812L197.028 71.0188C200.395 65.9692 203.019 60.8049 204.874 55.5259L197.326 52.8741ZM190.372 66.5812C187.303 71.1841 183.57 75.8889 179.155 80.6935L185.045 86.1065C189.697 81.0445 193.697 76.0159 197.028 71.0188L190.372 66.5812ZM179.155 80.6935C174.677 85.5665 169.728 90.6475 164.307 95.9369L169.893 101.663C175.405 96.2858 180.457 91.1002 185.045 86.1065L179.155 80.6935ZM164.291 95.9525L134.491 125.353L140.109 131.047L169.909 101.647L164.291 95.9525ZM133.3 128.2V129H141.3V128.2H133.3ZM137.3 133H209.5V125H137.3V133ZM205.5 129V145H213.5V129H205.5Z" fill="#478DE0"/>
</svg>
