<svg width="200" height="200" viewBox="0 0 250 200" fill="none" xmlns="http://www.w3.org/2000/svg">
<path d="M93.0469 104.4L96.9757 105.151L96.9757 105.151L93.0469 104.4ZM84.6469 127.6L81.2232 125.532L81.2168 125.542L81.2105 125.553L84.6469 127.6ZM69.8469 142L67.9368 138.486L67.9205 138.494L67.9043 138.503L69.8469 142ZM21.4469 138.2L18.8631 141.254L18.8774 141.266L18.8919 141.278L21.4469 138.2ZM5.84688 113L2.01684 114.154L2.0252 114.181L2.03395 114.209L5.84688 113ZM5.44688 33.8L1.60793 32.6764L1.6016 32.698L1.59551 32.7197L5.44688 33.8ZM20.6469 8.79999L23.1959 11.8826L23.2134 11.8682L23.2306 11.8535L20.6469 8.79999ZM74.6469 8.79999L72.0919 11.8776L72.1092 11.892L72.1267 11.9062L74.6469 8.79999ZM90.4469 33.8L94.2598 32.591L94.2598 32.591L90.4469 33.8ZM21.2469 106L17.3365 106.842L17.3427 106.871L17.3493 106.899L21.2469 106ZM30.6469 125.6L27.7753 128.385L27.8181 128.429L27.8623 128.472L30.6469 125.6ZM65.2469 125.6L62.4623 122.728L62.4402 122.75L62.4185 122.772L65.2469 125.6ZM74.8469 106.2L78.7445 107.099L78.7474 107.086L74.8469 106.2ZM74.8469 41L70.9493 41.8994L70.9524 41.9128L74.8469 41ZM65.2469 21.6L62.3753 24.3846L62.4181 24.4288L62.4623 24.4716L65.2469 21.6ZM21.2469 41L17.3493 40.1006L17.3442 40.1229L17.3393 40.1452L21.2469 41ZM91.6469 73.4C91.6469 84.8089 90.7938 94.8833 89.118 103.649L96.9757 105.151C98.7666 95.7834 99.6469 85.191 99.6469 73.4H91.6469ZM89.118 103.649C87.4536 112.355 84.7948 119.62 81.2232 125.532L88.0705 129.668C92.2322 122.78 95.1735 114.578 96.9757 105.151L89.118 103.649ZM81.2105 125.553C77.8276 131.231 73.4098 135.511 67.9368 138.486L71.7569 145.514C78.5506 141.822 83.9995 136.502 88.0833 129.647L81.2105 125.553ZM67.9043 138.503C62.6265 141.435 56.0636 143 48.0469 143V151C57.0969 151 65.0673 149.231 71.7895 145.497L67.9043 138.503ZM48.0469 143C38.1549 143 30.2374 140.299 24.0019 135.122L18.8919 141.278C26.7897 147.834 36.6055 151 48.0469 151V143ZM24.0306 135.146C17.8062 129.88 12.9581 122.193 9.6598 111.791L2.03395 114.209C5.66897 125.673 11.2209 134.787 18.8631 141.254L24.0306 135.146ZM9.67691 111.846C6.48618 101.253 4.84688 88.4619 4.84688 73.4H-3.15312C-3.15312 89.0048 -1.45909 102.614 2.01684 114.154L9.67691 111.846ZM4.84688 73.4C4.84688 58.1763 6.35851 45.3611 9.29824 34.8803L1.59551 32.7197C-1.59809 44.1056 -3.15312 57.6904 -3.15312 73.4H4.84688ZM9.28583 34.9236C12.321 24.5534 17.0243 16.986 23.1959 11.8826L18.0978 5.71741C10.4027 12.0807 4.97275 21.1799 1.60793 32.6764L9.28583 34.9236ZM23.2306 11.8535C29.2764 6.73789 37.4178 4 48.0469 4V-4C36.0093 -4 25.884 -0.871235 18.0631 5.74644L23.2306 11.8535ZM48.0469 4C57.9388 4 65.8564 6.70099 72.0919 11.8776L77.2019 5.72235C69.3041 -0.834337 59.4883 -4 48.0469 -4V4ZM72.1267 11.9062C78.4458 17.033 83.3422 24.6272 86.634 35.009L94.2598 32.591C90.6183 21.1061 84.9813 12.0336 77.167 5.69374L72.1267 11.9062ZM86.634 35.009C89.942 45.442 91.6469 58.2105 91.6469 73.4H99.6469C99.6469 57.6562 97.8851 44.0247 94.2598 32.591L86.634 35.009ZM14.4469 73.4C14.4469 86.6299 15.3894 97.8021 17.3365 106.842L25.1572 105.158C23.371 96.8646 22.4469 86.3034 22.4469 73.4H14.4469ZM17.3493 106.899C19.4436 115.975 22.8221 123.277 27.7753 128.385L33.5185 122.815C29.9383 119.123 27.0502 113.359 25.1444 105.101L17.3493 106.899ZM27.8623 128.472C33.1376 133.587 40.0021 136 48.0469 136V128C41.6916 128 36.9561 126.146 33.4315 122.728L27.8623 128.472ZM48.0469 136C56.0879 136 62.9162 133.588 68.0753 128.428L62.4185 122.772C59.0442 126.146 54.4058 128 48.0469 128V136ZM68.0315 128.472C73.1813 123.478 76.6452 116.196 78.7444 107.099L70.9493 105.301C69.0485 113.537 66.1124 119.189 62.4623 122.728L68.0315 128.472ZM78.7474 107.086C80.8357 97.898 81.8469 86.6447 81.8469 73.4H73.8469C73.8469 86.2886 72.8581 96.902 70.9463 105.314L78.7474 107.086ZM81.8469 73.4C81.8469 60.1604 80.8366 49.0271 78.7413 40.0872L70.9524 41.9128C72.8571 50.0396 73.8469 60.5063 73.8469 73.4H81.8469ZM78.7444 40.1006C76.6452 31.004 73.1813 23.7222 68.0315 18.7284L62.4623 24.4716C66.1124 28.0111 69.0485 33.6627 70.9493 41.8994L78.7444 40.1006ZM68.1185 18.8154C62.9669 13.5029 56.1243 11 48.0469 11V19C54.3694 19 58.9935 20.8971 62.3753 24.3846L68.1185 18.8154ZM48.0469 11C39.9664 11 33.0872 13.5028 27.8185 18.7716L33.4753 24.4284C37.0066 20.8972 41.7274 19 48.0469 19V11ZM27.8185 18.7716C22.827 23.763 19.4429 31.0285 17.3493 40.1006L25.1444 41.8994C27.0509 33.6382 29.9334 27.9703 33.4753 24.4284L27.8185 18.7716ZM17.3393 40.1452C15.389 49.0607 14.4469 60.1725 14.4469 73.4H22.4469C22.4469 60.4941 23.3714 50.006 25.1545 41.8548L17.3393 40.1452ZM190.1 63.6L187.927 60.2417L187.904 60.2566L187.881 60.2718L190.1 63.6ZM174.5 69.8L173.716 65.8777L170.5 66.5208V69.8H174.5ZM174.5 70.6H170.5V74.1618L174.038 74.5732L174.5 70.6ZM200.1 81.4L197.207 84.1619L197.207 84.1619L200.1 81.4ZM202.7 126.6L206.124 128.668L206.133 128.653L206.142 128.637L202.7 126.6ZM184.7 141.6L183.081 137.942L183.07 137.947L183.059 137.952L184.7 141.6ZM132.9 145.2L133.637 141.269L133.597 141.261L133.558 141.254L132.9 145.2ZM114.5 139.2H110.5V141.672L112.711 142.778L114.5 139.2ZM114.5 122.8L116.257 119.206L110.5 116.392V122.8H114.5ZM133.9 129.8L132.93 133.681L132.965 133.689L133.001 133.698L133.9 129.8ZM181.5 124.8L184.144 127.801L184.149 127.797L181.5 124.8ZM185.3 89.6L182.209 92.139L182.259 92.1992L182.31 92.2575L185.3 89.6ZM171.7 81.4L172.81 77.5571L172.81 77.5571L171.7 81.4ZM136.3 78.8H132.3V82.8H136.3V78.8ZM136.3 63.8V59.8H132.3V63.8H136.3ZM169.9 60.4L168.335 56.7187L168.319 56.7259L168.302 56.7332L169.9 60.4ZM181.9 51L178.588 48.7566L178.58 48.7689L178.572 48.7812L181.9 51ZM179.1 20.8L176.548 23.8801L176.574 23.902L176.601 23.9235L179.1 20.8ZM146.3 16.6L147.181 20.5018L147.24 20.4883L147.3 20.4731L146.3 16.6ZM134.7 20.8L136.489 24.3777L136.515 24.3645L136.541 24.351L134.7 20.8ZM124.1 27L120.874 29.3654L123.136 32.4499L126.319 30.3282L124.1 27ZM115.3 15L112.861 11.8295L109.763 14.213L112.074 17.3654L115.3 15ZM127.1 7.59999L125.311 4.02228L125.29 4.03306L125.268 4.0441L127.1 7.59999ZM142.1 2.19999L143.048 6.08607L143.048 6.08607L142.1 2.19999ZM193.1 10.2L190.382 13.135L190.396 13.1475L190.409 13.1598L193.1 10.2ZM200.1 35.6C200.1 41.5015 198.995 46.3809 196.943 50.3706L204.057 54.0294C206.805 48.6858 208.1 42.4985 208.1 35.6H200.1ZM196.943 50.3706C194.872 54.3969 191.891 57.6768 187.927 60.2417L192.273 66.9583C197.376 63.6566 201.328 59.3365 204.057 54.0294L196.943 50.3706ZM187.881 60.2718C183.979 62.8735 179.283 64.7642 173.716 65.8777L175.284 73.7223C181.717 72.4358 187.421 70.1932 192.319 66.9282L187.881 60.2718ZM170.5 69.8V70.6H178.5V69.8H170.5ZM174.038 74.5732C184.963 75.8436 192.476 79.2059 197.207 84.1619L202.993 78.6381C196.524 71.8608 186.97 68.0231 174.962 66.6268L174.038 74.5732ZM197.207 84.1619C201.978 89.161 204.5 95.7776 204.5 104.4H212.5C212.5 94.089 209.422 85.3723 202.993 78.6381L197.207 84.1619ZM204.5 104.4C204.5 112.016 202.727 118.7 199.258 124.563L206.142 128.637C210.406 121.433 212.5 113.318 212.5 104.4H204.5ZM199.276 124.532C195.909 130.104 190.609 134.61 183.081 137.942L186.319 145.258C195.057 141.39 201.757 135.896 206.124 128.668L199.276 124.532ZM183.059 137.952C175.751 141.241 166.033 143 153.7 143V151C166.701 151 177.649 149.159 186.341 145.248L183.059 137.952ZM153.7 143C146.445 143 139.762 142.417 133.637 141.269L132.163 149.131C138.838 150.383 146.021 151 153.7 151V143ZM133.558 141.254C127.555 140.254 121.803 138.379 116.289 135.622L112.711 142.778C118.931 145.887 125.445 148.013 132.242 149.146L133.558 141.254ZM118.5 139.2V122.8H110.5V139.2H118.5ZM112.743 126.394C119.012 129.458 125.744 131.884 132.93 133.681L134.87 125.919C128.19 124.249 121.988 122.009 116.257 119.206L112.743 126.394ZM133.001 133.698C140.196 135.358 147.166 136.2 153.9 136.2V128.2C147.834 128.2 141.47 127.442 134.799 125.902L133.001 133.698ZM153.9 136.2C167.035 136.2 177.446 133.702 184.144 127.801L178.856 121.799C174.354 125.764 166.365 128.2 153.9 128.2V136.2ZM184.149 127.797C190.874 121.854 194.1 113.756 194.1 104H186.1C186.1 111.844 183.592 117.613 178.851 121.803L184.149 127.797ZM194.1 104C194.1 97.2704 192.289 91.4423 188.29 86.9425L182.31 92.2575C184.711 94.9577 186.1 98.7296 186.1 104H194.1ZM188.391 87.061C184.68 82.5429 179.361 79.4496 172.81 77.5571L170.59 85.2429C176.039 86.817 179.787 89.1904 182.209 92.139L188.391 87.061ZM172.81 77.5571C166.35 75.6907 158.755 74.8 150.1 74.8V82.8C158.245 82.8 165.051 83.6426 170.59 85.2429L172.81 77.5571ZM150.1 74.8H136.3V82.8H150.1V74.8ZM140.3 78.8V63.8H132.3V78.8H140.3ZM136.3 67.8H150.3V59.8H136.3V67.8ZM150.3 67.8C158.518 67.8 165.639 66.6208 171.498 64.0668L168.302 56.7332C163.761 58.7125 157.816 59.8 150.3 59.8V67.8ZM171.465 64.0813C177.367 61.573 182.047 57.9908 185.228 53.2188L178.572 48.7812C176.42 52.0092 173.1 54.6937 168.335 56.7187L171.465 64.0813ZM185.212 53.2434C188.491 48.4019 190.1 42.8757 190.1 36.8H182.1C182.1 41.391 180.909 45.3314 178.588 48.7566L185.212 53.2434ZM190.1 36.8C190.1 28.87 187.373 22.2957 181.599 17.6765L176.601 23.9235C180.161 26.771 182.1 30.8633 182.1 36.8H190.1ZM181.652 17.7199C176.066 13.0914 168.731 11 160.1 11V19C167.469 19 172.801 20.7752 176.548 23.8801L181.652 17.7199ZM160.1 11C154.757 11 149.814 11.562 145.3 12.7269L147.3 20.4731C151.052 19.5046 155.31 19 160.1 19V11ZM145.419 12.6982C140.967 13.7035 136.776 15.2179 132.859 17.249L136.541 24.351C139.824 22.6488 143.366 21.3631 147.181 20.5018L145.419 12.6982ZM132.911 17.2223C129.28 19.0377 125.604 21.1902 121.881 23.6718L126.319 30.3282C129.796 28.0098 133.186 26.0289 136.489 24.3777L132.911 17.2223ZM127.326 24.6345L118.526 12.6345L112.074 17.3654L120.874 29.3654L127.326 24.6345ZM117.739 18.1705C120.992 15.6679 124.718 13.3267 128.932 11.1559L125.268 4.0441C120.682 6.40666 116.541 8.99877 112.861 11.8295L117.739 18.1705ZM128.889 11.1777C133.127 9.05874 137.841 7.35611 143.048 6.08607L141.152 -1.68609C135.426 -0.28946 130.14 1.6079 125.311 4.02228L128.889 11.1777ZM143.048 6.08607C148.165 4.83793 153.777 4.19999 159.9 4.19999V-3.80001C153.223 -3.80001 146.968 -3.10461 141.152 -1.68609L143.048 6.08607ZM159.9 4.19999C174.336 4.19999 184.226 7.43507 190.382 13.135L195.818 7.26495C187.574 -0.368413 175.33 -3.80001 159.9 -3.80001V4.19999ZM190.409 13.1598C196.875 19.038 200.1 26.4144 200.1 35.6H208.1C208.1 24.2523 203.991 14.6953 195.791 7.24023L190.409 13.1598Z" fill="#478DE0"/>
</svg>
