<svg width="200" height="200" viewBox="0 0 250 200" fill="none" xmlns="http://www.w3.org/2000/svg">
<path d="M93.0469 104.4L96.9757 105.151L96.9757 105.151L93.0469 104.4ZM84.6469 127.6L81.2232 125.532L81.2168 125.542L81.2105 125.553L84.6469 127.6ZM69.8469 142L67.9368 138.486L67.9205 138.494L67.9043 138.503L69.8469 142ZM21.4469 138.2L18.8631 141.254L18.8774 141.266L18.8919 141.278L21.4469 138.2ZM5.84688 113L2.01684 114.154L2.0252 114.181L2.03395 114.209L5.84688 113ZM5.44688 33.8L1.60793 32.6764L1.6016 32.698L1.59551 32.7197L5.44688 33.8ZM20.6469 8.79999L23.1959 11.8826L23.2134 11.8682L23.2306 11.8535L20.6469 8.79999ZM74.6469 8.79999L72.0919 11.8776L72.1092 11.892L72.1267 11.9062L74.6469 8.79999ZM90.4469 33.8L94.2598 32.591L94.2598 32.591L90.4469 33.8ZM21.2469 106L17.3365 106.842L17.3427 106.871L17.3493 106.899L21.2469 106ZM30.6469 125.6L27.7753 128.385L27.8181 128.429L27.8623 128.472L30.6469 125.6ZM65.2469 125.6L62.4623 122.728L62.4402 122.75L62.4185 122.772L65.2469 125.6ZM74.8469 106.2L78.7445 107.099L78.7474 107.086L74.8469 106.2ZM74.8469 41L70.9493 41.8994L70.9524 41.9128L74.8469 41ZM65.2469 21.6L62.3753 24.3846L62.4181 24.4288L62.4623 24.4716L65.2469 21.6ZM21.2469 41L17.3493 40.1006L17.3442 40.1229L17.3393 40.1452L21.2469 41ZM91.6469 73.4C91.6469 84.8089 90.7938 94.8833 89.118 103.649L96.9757 105.151C98.7666 95.7834 99.6469 85.191 99.6469 73.4H91.6469ZM89.118 103.649C87.4536 112.355 84.7948 119.62 81.2232 125.532L88.0705 129.668C92.2322 122.78 95.1735 114.578 96.9757 105.151L89.118 103.649ZM81.2105 125.553C77.8276 131.231 73.4098 135.511 67.9368 138.486L71.7569 145.514C78.5506 141.822 83.9995 136.502 88.0833 129.647L81.2105 125.553ZM67.9043 138.503C62.6265 141.435 56.0636 143 48.0469 143V151C57.0969 151 65.0673 149.231 71.7895 145.497L67.9043 138.503ZM48.0469 143C38.1549 143 30.2374 140.299 24.0019 135.122L18.8919 141.278C26.7897 147.834 36.6055 151 48.0469 151V143ZM24.0306 135.146C17.8062 129.88 12.9581 122.193 9.6598 111.791L2.03395 114.209C5.66897 125.673 11.2209 134.787 18.8631 141.254L24.0306 135.146ZM9.67691 111.846C6.48618 101.253 4.84688 88.4619 4.84688 73.4H-3.15312C-3.15312 89.0048 -1.45909 102.614 2.01684 114.154L9.67691 111.846ZM4.84688 73.4C4.84688 58.1763 6.35851 45.3611 9.29824 34.8803L1.59551 32.7197C-1.59809 44.1056 -3.15312 57.6904 -3.15312 73.4H4.84688ZM9.28583 34.9236C12.321 24.5534 17.0243 16.986 23.1959 11.8826L18.0978 5.71741C10.4027 12.0807 4.97275 21.1799 1.60793 32.6764L9.28583 34.9236ZM23.2306 11.8535C29.2764 6.73789 37.4178 4 48.0469 4V-4C36.0093 -4 25.884 -0.871235 18.0631 5.74644L23.2306 11.8535ZM48.0469 4C57.9388 4 65.8564 6.70099 72.0919 11.8776L77.2019 5.72235C69.3041 -0.834337 59.4883 -4 48.0469 -4V4ZM72.1267 11.9062C78.4458 17.033 83.3422 24.6272 86.634 35.009L94.2598 32.591C90.6183 21.1061 84.9813 12.0336 77.167 5.69374L72.1267 11.9062ZM86.634 35.009C89.942 45.442 91.6469 58.2105 91.6469 73.4H99.6469C99.6469 57.6562 97.8851 44.0247 94.2598 32.591L86.634 35.009ZM14.4469 73.4C14.4469 86.6299 15.3894 97.8021 17.3365 106.842L25.1572 105.158C23.371 96.8646 22.4469 86.3034 22.4469 73.4H14.4469ZM17.3493 106.899C19.4436 115.975 22.8221 123.277 27.7753 128.385L33.5185 122.815C29.9383 119.123 27.0502 113.359 25.1444 105.101L17.3493 106.899ZM27.8623 128.472C33.1376 133.587 40.0021 136 48.0469 136V128C41.6916 128 36.9561 126.146 33.4315 122.728L27.8623 128.472ZM48.0469 136C56.0879 136 62.9162 133.588 68.0753 128.428L62.4185 122.772C59.0442 126.146 54.4058 128 48.0469 128V136ZM68.0315 128.472C73.1813 123.478 76.6452 116.196 78.7444 107.099L70.9493 105.301C69.0485 113.537 66.1124 119.189 62.4623 122.728L68.0315 128.472ZM78.7474 107.086C80.8357 97.898 81.8469 86.6447 81.8469 73.4H73.8469C73.8469 86.2886 72.8581 96.902 70.9463 105.314L78.7474 107.086ZM81.8469 73.4C81.8469 60.1604 80.8366 49.0271 78.7413 40.0872L70.9524 41.9128C72.8571 50.0396 73.8469 60.5063 73.8469 73.4H81.8469ZM78.7444 40.1006C76.6452 31.004 73.1813 23.7222 68.0315 18.7284L62.4623 24.4716C66.1124 28.0111 69.0485 33.6627 70.9493 41.8994L78.7444 40.1006ZM68.1185 18.8154C62.9669 13.5029 56.1243 11 48.0469 11V19C54.3694 19 58.9935 20.8971 62.3753 24.3846L68.1185 18.8154ZM48.0469 11C39.9664 11 33.0872 13.5028 27.8185 18.7716L33.4753 24.4284C37.0066 20.8972 41.7274 19 48.0469 19V11ZM27.8185 18.7716C22.827 23.763 19.4429 31.0285 17.3493 40.1006L25.1444 41.8994C27.0509 33.6382 29.9334 27.9703 33.4753 24.4284L27.8185 18.7716ZM17.3393 40.1452C15.389 49.0607 14.4469 60.1725 14.4469 73.4H22.4469C22.4469 60.4941 23.3714 50.006 25.1545 41.8548L17.3393 40.1452ZM215.9 112.6V116.6H219.9V112.6H215.9ZM195.1 112.6V108.6H191.1V112.6H195.1ZM195.1 145V149H199.1V145H195.1ZM178.1 145H174.1V149H178.1V145ZM178.1 112.6H182.1V108.6H178.1V112.6ZM109.7 112.6H105.7V116.6H109.7V112.6ZM109.7 97.6L106.421 95.3094L105.7 96.3413V97.6H109.7ZM176.9 1.39999V-2.60001H174.815L173.621 -0.890656L176.9 1.39999ZM195.1 1.39999H199.1V-2.60001H195.1V1.39999ZM195.1 96.8H191.1V100.8H195.1V96.8ZM215.9 96.8H219.9V92.8H215.9V96.8ZM178.1 42.4L174.104 42.2184L174.1 42.3091V42.4H178.1ZM178.5 34.2L174.506 33.9898L174.506 33.9898L178.5 34.2ZM178.7 27L174.706 26.7781L174.7 26.889V27H178.7ZM179.1 20.2L183.092 20.4495L183.358 16.2H179.1V20.2ZM178.3 20.2V16.2H175.644L174.613 18.6478L178.3 20.2ZM174.3 28.4L177.812 30.3154L177.812 30.3154L174.3 28.4ZM169.7 35.8L166.474 33.4345L166.45 33.4683L166.426 33.5025L169.7 35.8ZM126.9 96.8L123.626 94.5025L119.207 100.8H126.9V96.8ZM178.1 96.8V100.8H182.1V96.8H178.1ZM215.9 108.6H195.1V116.6H215.9V108.6ZM191.1 112.6V145H199.1V112.6H191.1ZM195.1 141H178.1V149H195.1V141ZM182.1 145V112.6H174.1V145H182.1ZM178.1 108.6H109.7V116.6H178.1V108.6ZM113.7 112.6V97.6H105.7V112.6H113.7ZM112.979 99.8906L180.179 3.69063L173.621 -0.890656L106.421 95.3094L112.979 99.8906ZM176.9 5.39999H195.1V-2.60001H176.9V5.39999ZM191.1 1.39999V96.8H199.1V1.39999H191.1ZM195.1 100.8H215.9V92.8H195.1V100.8ZM211.9 96.8V112.6H219.9V96.8H211.9ZM182.1 51.8C182.1 51.7932 182.1 51.7865 182.1 51.7797C182.1 51.7729 182.1 51.7662 182.1 51.7594C182.1 51.7526 182.1 51.7459 182.1 51.7391C182.1 51.7323 182.1 51.7256 182.1 51.7188C182.1 51.712 182.1 51.7053 182.1 51.6985C182.1 51.6918 182.1 51.685 182.1 51.6783C182.1 51.6715 182.1 51.6647 182.1 51.658C182.1 51.6512 182.1 51.6445 182.1 51.6377C182.1 51.631 182.1 51.6242 182.1 51.6175C182.1 51.6107 182.1 51.604 182.1 51.5973C182.1 51.5905 182.1 51.5838 182.1 51.577C182.1 51.5703 182.1 51.5635 182.1 51.5568C182.1 51.5501 182.1 51.5433 182.1 51.5366C182.1 51.5298 182.1 51.5231 182.1 51.5164C182.1 51.5096 182.1 51.5029 182.1 51.4962C182.1 51.4894 182.1 51.4827 182.1 51.476C182.1 51.4692 182.1 51.4625 182.1 51.4558C182.1 51.4491 182.1 51.4423 182.1 51.4356C182.1 51.4289 182.1 51.4222 182.1 51.4154C182.1 51.4087 182.1 51.402 182.1 51.3953C182.1 51.3886 182.1 51.3818 182.1 51.3751C182.1 51.3684 182.1 51.3617 182.1 51.355C182.1 51.3483 182.1 51.3415 182.1 51.3348C182.1 51.3281 182.1 51.3214 182.1 51.3147C182.1 51.308 182.1 51.3013 182.1 51.2946C182.1 51.2879 182.1 51.2812 182.1 51.2744C182.1 51.2677 182.1 51.261 182.1 51.2543C182.1 51.2476 182.1 51.2409 182.1 51.2342C182.1 51.2275 182.1 51.2208 182.1 51.2141C182.1 51.2074 182.1 51.2007 182.1 51.1941C182.1 51.1874 182.1 51.1807 182.1 51.174C182.1 51.1673 182.1 51.1606 182.1 51.1539C182.1 51.1472 182.1 51.1405 182.1 51.1338C182.1 51.1272 182.1 51.1205 182.1 51.1138C182.1 51.1071 182.1 51.1004 182.1 51.0937C182.1 51.087 182.1 51.0804 182.1 51.0737C182.1 51.067 182.1 51.0603 182.1 51.0537C182.1 51.047 182.1 51.0403 182.1 51.0336C182.1 51.027 182.1 51.0203 182.1 51.0136C182.1 51.0069 182.1 51.0003 182.1 50.9936C182.1 50.9869 182.1 50.9803 182.1 50.9736C182.1 50.9669 182.1 50.9603 182.1 50.9536C182.1 50.9469 182.1 50.9403 182.1 50.9336C182.1 50.927 182.1 50.9203 182.1 50.9136C182.1 50.907 182.1 50.9003 182.1 50.8937C182.1 50.887 182.1 50.8803 182.1 50.8737C182.1 50.867 182.1 50.8604 182.1 50.8537C182.1 50.8471 182.1 50.8404 182.1 50.8338C182.1 50.8271 182.1 50.8205 182.1 50.8138C182.1 50.8072 182.1 50.8006 182.1 50.7939C182.1 50.7873 182.1 50.7806 182.1 50.774C182.1 50.7673 182.1 50.7607 182.1 50.7541C182.1 50.7474 182.1 50.7408 182.1 50.7341C182.1 50.7275 182.1 50.7209 182.1 50.7142C182.1 50.7076 182.1 50.701 182.1 50.6943C182.1 50.6877 182.1 50.6811 182.1 50.6745C182.1 50.6678 182.1 50.6612 182.1 50.6546C182.1 50.648 182.1 50.6413 182.1 50.6347C182.1 50.6281 182.1 50.6215 182.1 50.6148C182.1 50.6082 182.1 50.6016 182.1 50.595C182.1 50.5884 182.1 50.5817 182.1 50.5751C182.1 50.5685 182.1 50.5619 182.1 50.5553C182.1 50.5487 182.1 50.5421 182.1 50.5354C182.1 50.5288 182.1 50.5222 182.1 50.5156C182.1 50.509 182.1 50.5024 182.1 50.4958C182.1 50.4892 182.1 50.4826 182.1 50.476C182.1 50.4694 182.1 50.4628 182.1 50.4562C182.1 50.4496 182.1 50.443 182.1 50.4364C182.1 50.4298 182.1 50.4232 182.1 50.4166C182.1 50.41 182.1 50.4034 182.1 50.3968C182.1 50.3902 182.1 50.3836 182.1 50.377C182.1 50.3704 182.1 50.3639 182.1 50.3573C182.1 50.3507 182.1 50.3441 182.1 50.3375C182.1 50.3309 182.1 50.3243 182.1 50.3178C182.1 50.3112 182.1 50.3046 182.1 50.298C182.1 50.2914 182.1 50.2849 182.1 50.2783C182.1 50.2717 182.1 50.2651 182.1 50.2586C182.1 50.252 182.1 50.2454 182.1 50.2388C182.1 50.2323 182.1 50.2257 182.1 50.2191C182.1 50.2125 182.1 50.206 182.1 50.1994C182.1 50.1928 182.1 50.1863 182.1 50.1797C182.1 50.1731 182.1 50.1666 182.1 50.16C182.1 50.1535 182.1 50.1469 182.1 50.1403C182.1 50.1338 182.1 50.1272 182.1 50.1207C182.1 50.1141 182.1 50.1075 182.1 50.101C182.1 50.0944 182.1 50.0879 182.1 50.0813C182.1 50.0748 182.1 50.0682 182.1 50.0617C182.1 50.0551 182.1 50.0486 182.1 50.042C182.1 50.0355 182.1 50.0289 182.1 50.0224C182.1 50.0159 182.1 50.0093 182.1 50.0028C182.1 49.9962 182.1 49.9897 182.1 49.9831C182.1 49.9766 182.1 49.9701 182.1 49.9635C182.1 49.957 182.1 49.9505 182.1 49.9439C182.1 49.9374 182.1 49.9309 182.1 49.9243C182.1 49.9178 182.1 49.9113 182.1 49.9047C182.1 49.8982 182.1 49.8917 182.1 49.8852C182.1 49.8786 182.1 49.8721 182.1 49.8656C182.1 49.8591 182.1 49.8525 182.1 49.846C182.1 49.8395 182.1 49.833 182.1 49.8264C182.1 49.8199 182.1 49.8134 182.1 49.8069C182.1 49.8004 182.1 49.7939 182.1 49.7873C182.1 49.7808 182.1 49.7743 182.1 49.7678C182.1 49.7613 182.1 49.7548 182.1 49.7483C182.1 49.7418 182.1 49.7353 182.1 49.7288C182.1 49.7222 182.1 49.7157 182.1 49.7092C182.1 49.7027 182.1 49.6962 182.1 49.6897C182.1 49.6832 182.1 49.6767 182.1 49.6702C182.1 49.6637 182.1 49.6572 182.1 49.6507C182.1 49.6442 182.1 49.6377 182.1 49.6313C182.1 49.6248 182.1 49.6183 182.1 49.6118C182.1 49.6053 182.1 49.5988 182.1 49.5923C182.1 49.5858 182.1 49.5793 182.1 49.5728C182.1 49.5664 182.1 49.5599 182.1 49.5534C182.1 49.5469 182.1 49.5404 182.1 49.5339C182.1 49.5275 182.1 49.521 182.1 49.5145C182.1 49.508 182.1 49.5016 182.1 49.4951C182.1 49.4886 182.1 49.4821 182.1 49.4757C182.1 49.4692 182.1 49.4627 182.1 49.4562C182.1 49.4498 182.1 49.4433 182.1 49.4368C182.1 49.4304 182.1 49.4239 182.1 49.4174C182.1 49.411 182.1 49.4045 182.1 49.398C182.1 49.3916 182.1 49.3851 182.1 49.3786C182.1 49.3722 182.1 49.3657 182.1 49.3593C182.1 49.3528 182.1 49.3464 182.1 49.3399C182.1 49.3334 182.1 49.327 182.1 49.3205C182.1 49.3141 182.1 49.3076 182.1 49.3012C182.1 49.2947 182.1 49.2883 182.1 49.2818C182.1 49.2754 182.1 49.2689 182.1 49.2625C182.1 49.2561 182.1 49.2496 182.1 49.2432C182.1 49.2367 182.1 49.2303 182.1 49.2238C182.1 49.2174 182.1 49.211 182.1 49.2045C182.1 49.1981 182.1 49.1916 182.1 49.1852C182.1 49.1788 182.1 49.1723 182.1 49.1659C182.1 49.1595 182.1 49.153 182.1 49.1466C182.1 49.1402 182.1 49.1338 182.1 49.1273C182.1 49.1209 182.1 49.1145 182.1 49.1081C182.1 49.1016 182.1 49.0952 182.1 49.0888C182.1 49.0824 182.1 49.0759 182.1 49.0695C182.1 49.0631 182.1 49.0567 182.1 49.0503C182.1 49.0438 182.1 49.0374 182.1 49.031C182.1 49.0246 182.1 49.0182 182.1 49.0118C182.1 49.0054 182.1 48.999 182.1 48.9925C182.1 48.9861 182.1 48.9797 182.1 48.9733C182.1 48.9669 182.1 48.9605 182.1 48.9541C182.1 48.9477 182.1 48.9413 182.1 48.9349C182.1 48.9285 182.1 48.9221 182.1 48.9157C182.1 48.9093 182.1 48.9029 182.1 48.8965C182.1 48.8901 182.1 48.8837 182.1 48.8773C182.1 48.8709 182.1 48.8645 182.1 48.8581C182.1 48.8517 182.1 48.8453 182.1 48.839C182.1 48.8326 182.1 48.8262 182.1 48.8198C182.1 48.8134 182.1 48.807 182.1 48.8006C182.1 48.7942 182.1 48.7879 182.1 48.7815C182.1 48.7751 182.1 48.7687 182.1 48.7623C182.1 48.756 182.1 48.7496 182.1 48.7432C182.1 48.7368 182.1 48.7305 182.1 48.7241C182.1 48.7177 182.1 48.7113 182.1 48.705C182.1 48.6986 182.1 48.6922 182.1 48.6859C182.1 48.6795 182.1 48.6731 182.1 48.6667C182.1 48.6604 182.1 48.654 182.1 48.6477C182.1 48.6413 182.1 48.6349 182.1 48.6286C182.1 48.6222 182.1 48.6158 182.1 48.6095C182.1 48.6031 182.1 48.5968 182.1 48.5904C182.1 48.5841 182.1 48.5777 182.1 48.5713C182.1 48.565 182.1 48.5586 182.1 48.5523C182.1 48.5459 182.1 48.5396 182.1 48.5332C182.1 48.5269 182.1 48.5205 182.1 48.5142C182.1 48.5079 182.1 48.5015 182.1 48.4952C182.1 48.4888 182.1 48.4825 182.1 48.4761C182.1 48.4698 182.1 48.4635 182.1 48.4571C182.1 48.4508 182.1 48.4444 182.1 48.4381C182.1 48.4318 182.1 48.4254 182.1 48.4191C182.1 48.4128 182.1 48.4064 182.1 48.4001C182.1 48.3938 182.1 48.3874 182.1 48.3811C182.1 48.3748 182.1 48.3685 182.1 48.3621C182.1 48.3558 182.1 48.3495 182.1 48.3432C182.1 48.3368 182.1 48.3305 182.1 48.3242C182.1 48.3179 182.1 48.3116 182.1 48.3052C182.1 48.2989 182.1 48.2926 182.1 48.2863C182.1 48.28 182.1 48.2737 182.1 48.2673C182.1 48.261 182.1 48.2547 182.1 48.2484C182.1 48.2421 182.1 48.2358 182.1 48.2295C182.1 48.2232 182.1 48.2169 182.1 48.2106C182.1 48.2043 182.1 48.198 182.1 48.1916C182.1 48.1853 182.1 48.179 182.1 48.1727C182.1 48.1664 182.1 48.1601 182.1 48.1538C182.1 48.1475 182.1 48.1413 182.1 48.135C182.1 48.1287 182.1 48.1224 182.1 48.1161C182.1 48.1098 182.1 48.1035 182.1 48.0972C182.1 48.0909 182.1 48.0846 182.1 48.0783C182.1 48.072 182.1 48.0658 182.1 48.0595C182.1 48.0532 182.1 48.0469 182.1 48.0406C182.1 48.0343 182.1 48.0281 182.1 48.0218C182.1 48.0155 182.1 48.0092 182.1 48.0029C182.1 47.9967 182.1 47.9904 182.1 47.9841C182.1 47.9778 182.1 47.9716 182.1 47.9653C182.1 47.959 182.1 47.9527 182.1 47.9465C182.1 47.9402 182.1 47.9339 182.1 47.9277C182.1 47.9214 182.1 47.9151 182.1 47.9089C182.1 47.9026 182.1 47.8963 182.1 47.8901C182.1 47.8838 182.1 47.8776 182.1 47.8713C182.1 47.865 182.1 47.8588 182.1 47.8525C182.1 47.8463 182.1 47.84 182.1 47.8338C182.1 47.8275 182.1 47.8213 182.1 47.815C182.1 47.8087 182.1 47.8025 182.1 47.7962C182.1 47.79 182.1 47.7837 182.1 47.7775C182.1 47.7713 182.1 47.765 182.1 47.7588C182.1 47.7525 182.1 47.7463 182.1 47.74C182.1 47.7338 182.1 47.7276 182.1 47.7213C182.1 47.7151 182.1 47.7088 182.1 47.7026C182.1 47.6964 182.1 47.6901 182.1 47.6839C182.1 47.6777 182.1 47.6714 182.1 47.6652C182.1 47.659 182.1 47.6527 182.1 47.6465C182.1 47.6403 182.1 47.634 182.1 47.6278C182.1 47.6216 182.1 47.6154 182.1 47.6091C182.1 47.6029 182.1 47.5967 182.1 47.5905C182.1 47.5843 182.1 47.578 182.1 47.5718C182.1 47.5656 182.1 47.5594 182.1 47.5532C182.1 47.5469 182.1 47.5407 182.1 47.5345C182.1 47.5283 182.1 47.5221 182.1 47.5159C182.1 47.5097 182.1 47.5035 182.1 47.4972C182.1 47.491 182.1 47.4848 182.1 47.4786C182.1 47.4724 182.1 47.4662 182.1 47.46C182.1 47.4538 182.1 47.4476 182.1 47.4414C182.1 47.4352 182.1 47.429 182.1 47.4228C182.1 47.4166 182.1 47.4104 182.1 47.4042C182.1 47.398 182.1 47.3918 182.1 47.3856C182.1 47.3794 182.1 47.3732 182.1 47.3671C182.1 47.3609 182.1 47.3547 182.1 47.3485C182.1 47.3423 182.1 47.3361 182.1 47.3299C182.1 47.3237 182.1 47.3175 182.1 47.3114C182.1 47.3052 182.1 47.299 182.1 47.2928C182.1 47.2866 182.1 47.2805 182.1 47.2743C182.1 47.2681 182.1 47.2619 182.1 47.2557C182.1 47.2496 182.1 47.2434 182.1 47.2372C182.1 47.2311 182.1 47.2249 182.1 47.2187C182.1 47.2125 182.1 47.2064 182.1 47.2002C182.1 47.194 182.1 47.1879 182.1 47.1817C182.1 47.1755 182.1 47.1694 182.1 47.1632C182.1 47.157 182.1 47.1509 182.1 47.1447C182.1 47.1386 182.1 47.1324 182.1 47.1262C182.1 47.1201 182.1 47.1139 182.1 47.1078C182.1 47.1016 182.1 47.0955 182.1 47.0893C182.1 47.0832 182.1 47.077 182.1 47.0709C182.1 47.0647 182.1 47.0586 182.1 47.0524C182.1 47.0463 182.1 47.0401 182.1 47.034C182.1 47.0278 182.1 47.0217 182.1 47.0155C182.1 47.0094 182.1 47.0033 182.1 46.9971C182.1 46.991 182.1 46.9848 182.1 46.9787C182.1 46.9726 182.1 46.9664 182.1 46.9603C182.1 46.9542 182.1 46.948 182.1 46.9419C182.1 46.9358 182.1 46.9296 182.1 46.9235C182.1 46.9174 182.1 46.9112 182.1 46.9051C182.1 46.899 182.1 46.8929 182.1 46.8867C182.1 46.8806 182.1 46.8745 182.1 46.8684C182.1 46.8622 182.1 46.8561 182.1 46.85C182.1 46.8439 182.1 46.8378 182.1 46.8316C182.1 46.8255 182.1 46.8194 182.1 46.8133C182.1 46.8072 182.1 46.8011 182.1 46.795C182.1 46.7888 182.1 46.7827 182.1 46.7766C182.1 46.7705 182.1 46.7644 182.1 46.7583C182.1 46.7522 182.1 46.7461 182.1 46.74C182.1 46.7339 182.1 46.7278 182.1 46.7217C182.1 46.7156 182.1 46.7095 182.1 46.7034C182.1 46.6973 182.1 46.6912 182.1 46.6851C182.1 46.679 182.1 46.6729 182.1 46.6668C182.1 46.6607 182.1 46.6546 182.1 46.6485C182.1 46.6424 182.1 46.6363 182.1 46.6302C182.1 46.6241 182.1 46.6181 182.1 46.612C182.1 46.6059 182.1 46.5998 182.1 46.5937C182.1 46.5876 182.1 46.5815 182.1 46.5755C182.1 46.5694 182.1 46.5633 182.1 46.5572C182.1 46.5511 182.1 46.5451 182.1 46.539C182.1 46.5329 182.1 46.5268 182.1 46.5208C182.1 46.5147 182.1 46.5086 182.1 46.5025C182.1 46.4965 182.1 46.4904 182.1 46.4843C182.1 46.4783 182.1 46.4722 182.1 46.4661C182.1 46.4601 182.1 46.454 182.1 46.4479C182.1 46.4419 182.1 46.4358 182.1 46.4297C182.1 46.4237 182.1 46.4176 182.1 46.4116C182.1 46.4055 182.1 46.3995 182.1 46.3934C182.1 46.3873 182.1 46.3813 182.1 46.3752C182.1 46.3692 182.1 46.3631 182.1 46.3571C182.1 46.351 182.1 46.345 182.1 46.3389C182.1 46.3329 182.1 46.3268 182.1 46.3208C182.1 46.3147 182.1 46.3087 182.1 46.3026C182.1 46.2966 182.1 46.2906 182.1 46.2845C182.1 46.2785 182.1 46.2724 182.1 46.2664C182.1 46.2604 182.1 46.2543 182.1 46.2483C182.1 46.2423 182.1 46.2362 182.1 46.2302C182.1 46.2242 182.1 46.2181 182.1 46.2121C182.1 46.2061 182.1 46.2 182.1 46.194C182.1 46.188 182.1 46.1819 182.1 46.1759C182.1 46.1699 182.1 46.1639 182.1 46.1578C182.1 46.1518 182.1 46.1458 182.1 46.1398C182.1 46.1338 182.1 46.1277 182.1 46.1217C182.1 46.1157 182.1 46.1097 182.1 46.1037C182.1 46.0977 182.1 46.0916 182.1 46.0856C182.1 46.0796 182.1 46.0736 182.1 46.0676C182.1 46.0616 182.1 46.0556 182.1 46.0496C182.1 46.0436 182.1 46.0376 182.1 46.0316C182.1 46.0255 182.1 46.0195 182.1 46.0135C182.1 46.0075 182.1 46.0015 182.1 45.9955C182.1 45.9895 182.1 45.9835 182.1 45.9775C182.1 45.9715 182.1 45.9655 182.1 45.9595C182.1 45.9536 182.1 45.9476 182.1 45.9416C182.1 45.9356 182.1 45.9296 182.1 45.9236C182.1 45.9176 182.1 45.9116 182.1 45.9056C182.1 45.8996 182.1 45.8937 182.1 45.8877C182.1 45.8817 182.1 45.8757 182.1 45.8697C182.1 45.8637 182.1 45.8578 182.1 45.8518C182.1 45.8458 182.1 45.8398 182.1 45.8338C182.1 45.8279 182.1 45.8219 182.1 45.8159C182.1 45.8099 182.1 45.804 182.1 45.798C182.1 45.792 182.1 45.786 182.1 45.7801C182.1 45.7741 182.1 45.7681 182.1 45.7622C182.1 45.7562 182.1 45.7502 182.1 45.7443C182.1 45.7383 182.1 45.7323 182.1 45.7264C182.1 45.7204 182.1 45.7145 182.1 45.7085C182.1 45.7025 182.1 45.6966 182.1 45.6906C182.1 45.6847 182.1 45.6787 182.1 45.6728C182.1 45.6668 182.1 45.6608 182.1 45.6549C182.1 45.6489 182.1 45.643 182.1 45.637C182.1 45.6311 182.1 45.6251 182.1 45.6192C182.1 45.6133 182.1 45.6073 182.1 45.6014C182.1 45.5954 182.1 45.5895 182.1 45.5835C182.1 45.5776 182.1 45.5717 182.1 45.5657C182.1 45.5598 182.1 45.5538 182.1 45.5479C182.1 45.542 182.1 45.536 182.1 45.5301C182.1 45.5242 182.1 45.5182 182.1 45.5123C182.1 45.5064 182.1 45.5004 182.1 45.4945C182.1 45.4886 182.1 45.4826 182.1 45.4767C182.1 45.4708 182.1 45.4649 182.1 45.4589C182.1 45.453 182.1 45.4471 182.1 45.4412C182.1 45.4353 182.1 45.4293 182.1 45.4234C182.1 45.4175 182.1 45.4116 182.1 45.4057C182.1 45.3997 182.1 45.3938 182.1 45.3879C182.1 45.382 182.1 45.3761 182.1 45.3702C182.1 45.3643 182.1 45.3584 182.1 45.3524C182.1 45.3465 182.1 45.3406 182.1 45.3347C182.1 45.3288 182.1 45.3229 182.1 45.317C182.1 45.3111 182.1 45.3052 182.1 45.2993C182.1 45.2934 182.1 45.2875 182.1 45.2816C182.1 45.2757 182.1 45.2698 182.1 45.2639C182.1 45.258 182.1 45.2521 182.1 45.2462C182.1 45.2403 182.1 45.2344 182.1 45.2286C182.1 45.2227 182.1 45.2168 182.1 45.2109C182.1 45.205 182.1 45.1991 182.1 45.1932C182.1 45.1873 182.1 45.1815 182.1 45.1756C182.1 45.1697 182.1 45.1638 182.1 45.1579C182.1 45.152 182.1 45.1462 182.1 45.1403C182.1 45.1344 182.1 45.1285 182.1 45.1227C182.1 45.1168 182.1 45.1109 182.1 45.105C182.1 45.0992 182.1 45.0933 182.1 45.0874C182.1 45.0815 182.1 45.0757 182.1 45.0698C182.1 45.0639 182.1 45.0581 182.1 45.0522C182.1 45.0463 182.1 45.0405 182.1 45.0346C182.1 45.0288 182.1 45.0229 182.1 45.017C182.1 45.0112 182.1 45.0053 182.1 44.9995C182.1 44.9936 182.1 44.9877 182.1 44.9819C182.1 44.976 182.1 44.9702 182.1 44.9643C182.1 44.9585 182.1 44.9526 182.1 44.9468C182.1 44.9409 182.1 44.9351 182.1 44.9292C182.1 44.9234 182.1 44.9175 182.1 44.9117C182.1 44.9058 182.1 44.9 182.1 44.8941C182.1 44.8883 182.1 44.8825 182.1 44.8766C182.1 44.8708 182.1 44.8649 182.1 44.8591C182.1 44.8533 182.1 44.8474 182.1 44.8416C182.1 44.8358 182.1 44.8299 182.1 44.8241C182.1 44.8183 182.1 44.8124 182.1 44.8066C182.1 44.8008 182.1 44.7949 182.1 44.7891C182.1 44.7833 182.1 44.7775 182.1 44.7716C182.1 44.7658 182.1 44.76 182.1 44.7542C182.1 44.7483 182.1 44.7425 182.1 44.7367C182.1 44.7309 182.1 44.7251 182.1 44.7193C182.1 44.7134 182.1 44.7076 182.1 44.7018C182.1 44.696 182.1 44.6902 182.1 44.6844C182.1 44.6786 182.1 44.6727 182.1 44.6669C182.1 44.6611 182.1 44.6553 182.1 44.6495C182.1 44.6437 182.1 44.6379 182.1 44.6321C182.1 44.6263 182.1 44.6205 182.1 44.6147C182.1 44.6089 182.1 44.6031 182.1 44.5973C182.1 44.5915 182.1 44.5857 182.1 44.5799C182.1 44.5741 182.1 44.5683 182.1 44.5625C182.1 44.5567 182.1 44.5509 182.1 44.5451C182.1 44.5393 182.1 44.5335 182.1 44.5277C182.1 44.522 182.1 44.5162 182.1 44.5104C182.1 44.5046 182.1 44.4988 182.1 44.493C182.1 44.4872 182.1 44.4815 182.1 44.4757C182.1 44.4699 182.1 44.4641 182.1 44.4583C182.1 44.4526 182.1 44.4468 182.1 44.441C182.1 44.4352 182.1 44.4295 182.1 44.4237C182.1 44.4179 182.1 44.4121 182.1 44.4064C182.1 44.4006 182.1 44.3948 182.1 44.3891C182.1 44.3833 182.1 44.3775 182.1 44.3717C182.1 44.366 182.1 44.3602 182.1 44.3545C182.1 44.3487 182.1 44.3429 182.1 44.3372C182.1 44.3314 182.1 44.3256 182.1 44.3199C182.1 44.3141 182.1 44.3084 182.1 44.3026C182.1 44.2969 182.1 44.2911 182.1 44.2853C182.1 44.2796 182.1 44.2738 182.1 44.2681C182.1 44.2623 182.1 44.2566 182.1 44.2508C182.1 44.2451 182.1 44.2393 182.1 44.2336C182.1 44.2279 182.1 44.2221 182.1 44.2164C182.1 44.2106 182.1 44.2049 182.1 44.1991C182.1 44.1934 182.1 44.1877 182.1 44.1819C182.1 44.1762 182.1 44.1704 182.1 44.1647C182.1 44.159 182.1 44.1532 182.1 44.1475C182.1 44.1418 182.1 44.136 182.1 44.1303C182.1 44.1246 182.1 44.1189 182.1 44.1131C182.1 44.1074 182.1 44.1017 182.1 44.0959C182.1 44.0902 182.1 44.0845 182.1 44.0788C182.1 44.073 182.1 44.0673 182.1 44.0616C182.1 44.0559 182.1 44.0502 182.1 44.0444C182.1 44.0387 182.1 44.033 182.1 44.0273C182.1 44.0216 182.1 44.0159 182.1 44.0102C182.1 44.0044 182.1 43.9987 182.1 43.993C182.1 43.9873 182.1 43.9816 182.1 43.9759C182.1 43.9702 182.1 43.9645 182.1 43.9588C182.1 43.9531 182.1 43.9474 182.1 43.9417C182.1 43.936 182.1 43.9303 182.1 43.9246C182.1 43.9189 182.1 43.9132 182.1 43.9075C182.1 43.9018 182.1 43.8961 182.1 43.8904C182.1 43.8847 182.1 43.879 182.1 43.8733C182.1 43.8676 182.1 43.8619 182.1 43.8562C182.1 43.8505 182.1 43.8448 182.1 43.8391C182.1 43.8335 182.1 43.8278 182.1 43.8221C182.1 43.8164 182.1 43.8107 182.1 43.805C182.1 43.7994 182.1 43.7937 182.1 43.788C182.1 43.7823 182.1 43.7766 182.1 43.771C182.1 43.7653 182.1 43.7596 182.1 43.7539C182.1 43.7483 182.1 43.7426 182.1 43.7369C182.1 43.7312 182.1 43.7256 182.1 43.7199C182.1 43.7142 182.1 43.7086 182.1 43.7029C182.1 43.6972 182.1 43.6916 182.1 43.6859C182.1 43.6802 182.1 43.6746 182.1 43.6689C182.1 43.6632 182.1 43.6576 182.1 43.6519C182.1 43.6463 182.1 43.6406 182.1 43.6349C182.1 43.6293 182.1 43.6236 182.1 43.618C182.1 43.6123 182.1 43.6067 182.1 43.601C182.1 43.5954 182.1 43.5897 182.1 43.5841C182.1 43.5784 182.1 43.5728 182.1 43.5671C182.1 43.5615 182.1 43.5558 182.1 43.5502C182.1 43.5445 182.1 43.5389 182.1 43.5333C182.1 43.5276 182.1 43.522 182.1 43.5163C182.1 43.5107 182.1 43.5051 182.1 43.4994C182.1 43.4938 182.1 43.4882 182.1 43.4825C182.1 43.4769 182.1 43.4713 182.1 43.4656C182.1 43.46 182.1 43.4544 182.1 43.4487C182.1 43.4431 182.1 43.4375 182.1 43.4318C182.1 43.4262 182.1 43.4206 182.1 43.415C182.1 43.4093 182.1 43.4037 182.1 43.3981C182.1 43.3925 182.1 43.3869 182.1 43.3812C182.1 43.3756 182.1 43.37 182.1 43.3644C182.1 43.3588 182.1 43.3532 182.1 43.3475C182.1 43.3419 182.1 43.3363 182.1 43.3307C182.1 43.3251 182.1 43.3195 182.1 43.3139C182.1 43.3083 182.1 43.3027 182.1 43.2971C182.1 43.2915 182.1 43.2858 182.1 43.2802C182.1 43.2746 182.1 43.269 182.1 43.2634C182.1 43.2578 182.1 43.2522 182.1 43.2466C182.1 43.241 182.1 43.2354 182.1 43.2298C182.1 43.2243 182.1 43.2187 182.1 43.2131C182.1 43.2075 182.1 43.2019 182.1 43.1963C182.1 43.1907 182.1 43.1851 182.1 43.1795C182.1 43.1739 182.1 43.1683 182.1 43.1628C182.1 43.1572 182.1 43.1516 182.1 43.146C182.1 43.1404 182.1 43.1348 182.1 43.1293C182.1 43.1237 182.1 43.1181 182.1 43.1125C182.1 43.1069 182.1 43.1014 182.1 43.0958C182.1 43.0902 182.1 43.0846 182.1 43.0791C182.1 43.0735 182.1 43.0679 182.1 43.0624C182.1 43.0568 182.1 43.0512 182.1 43.0456C182.1 43.0401 182.1 43.0345 182.1 43.0289C182.1 43.0234 182.1 43.0178 182.1 43.0123C182.1 43.0067 182.1 43.0011 182.1 42.9956C182.1 42.99 182.1 42.9844 182.1 42.9789C182.1 42.9733 182.1 42.9678 182.1 42.9622C182.1 42.9567 182.1 42.9511 182.1 42.9456C182.1 42.94 182.1 42.9345 182.1 42.9289C182.1 42.9234 182.1 42.9178 182.1 42.9123C182.1 42.9067 182.1 42.9012 182.1 42.8956C182.1 42.8901 182.1 42.8845 182.1 42.879C182.1 42.8734 182.1 42.8679 182.1 42.8624C182.1 42.8568 182.1 42.8513 182.1 42.8457C182.1 42.8402 182.1 42.8347 182.1 42.8291C182.1 42.8236 182.1 42.8181 182.1 42.8125C182.1 42.807 182.1 42.8015 182.1 42.7959C182.1 42.7904 182.1 42.7849 182.1 42.7794C182.1 42.7738 182.1 42.7683 182.1 42.7628C182.1 42.7573 182.1 42.7517 182.1 42.7462C182.1 42.7407 182.1 42.7352 182.1 42.7296C182.1 42.7241 182.1 42.7186 182.1 42.7131C182.1 42.7076 182.1 42.7021 182.1 42.6965C182.1 42.691 182.1 42.6855 182.1 42.68C182.1 42.6745 182.1 42.669 182.1 42.6635C182.1 42.658 182.1 42.6525 182.1 42.6469C182.1 42.6414 182.1 42.6359 182.1 42.6304C182.1 42.6249 182.1 42.6194 182.1 42.6139C182.1 42.6084 182.1 42.6029 182.1 42.5974C182.1 42.5919 182.1 42.5864 182.1 42.5809C182.1 42.5754 182.1 42.5699 182.1 42.5644C182.1 42.5589 182.1 42.5535 182.1 42.548C182.1 42.5425 182.1 42.537 182.1 42.5315C182.1 42.526 182.1 42.5205 182.1 42.515C182.1 42.5095 182.1 42.5041 182.1 42.4986C182.1 42.4931 182.1 42.4876 182.1 42.4821C182.1 42.4766 182.1 42.4712 182.1 42.4657C182.1 42.4602 182.1 42.4547 182.1 42.4493C182.1 42.4438 182.1 42.4383 182.1 42.4328C182.1 42.4274 182.1 42.4219 182.1 42.4164C182.1 42.4109 182.1 42.4055 182.1 42.4H174.1C174.1 42.4055 174.1 42.4109 174.1 42.4164C174.1 42.4219 174.1 42.4274 174.1 42.4328C174.1 42.4383 174.1 42.4438 174.1 42.4493C174.1 42.4547 174.1 42.4602 174.1 42.4657C174.1 42.4712 174.1 42.4766 174.1 42.4821C174.1 42.4876 174.1 42.4931 174.1 42.4986C174.1 42.5041 174.1 42.5095 174.1 42.515C174.1 42.5205 174.1 42.526 174.1 42.5315C174.1 42.537 174.1 42.5425 174.1 42.548C174.1 42.5535 174.1 42.5589 174.1 42.5644C174.1 42.5699 174.1 42.5754 174.1 42.5809C174.1 42.5864 174.1 42.5919 174.1 42.5974C174.1 42.6029 174.1 42.6084 174.1 42.6139C174.1 42.6194 174.1 42.6249 174.1 42.6304C174.1 42.6359 174.1 42.6414 174.1 42.6469C174.1 42.6525 174.1 42.658 174.1 42.6635C174.1 42.669 174.1 42.6745 174.1 42.68C174.1 42.6855 174.1 42.691 174.1 42.6965C174.1 42.7021 174.1 42.7076 174.1 42.7131C174.1 42.7186 174.1 42.7241 174.1 42.7296C174.1 42.7352 174.1 42.7407 174.1 42.7462C174.1 42.7517 174.1 42.7573 174.1 42.7628C174.1 42.7683 174.1 42.7738 174.1 42.7794C174.1 42.7849 174.1 42.7904 174.1 42.7959C174.1 42.8015 174.1 42.807 174.1 42.8125C174.1 42.8181 174.1 42.8236 174.1 42.8291C174.1 42.8347 174.1 42.8402 174.1 42.8457C174.1 42.8513 174.1 42.8568 174.1 42.8624C174.1 42.8679 174.1 42.8734 174.1 42.879C174.1 42.8845 174.1 42.8901 174.1 42.8956C174.1 42.9012 174.1 42.9067 174.1 42.9123C174.1 42.9178 174.1 42.9234 174.1 42.9289C174.1 42.9345 174.1 42.94 174.1 42.9456C174.1 42.9511 174.1 42.9567 174.1 42.9622C174.1 42.9678 174.1 42.9733 174.1 42.9789C174.1 42.9844 174.1 42.99 174.1 42.9956C174.1 43.0011 174.1 43.0067 174.1 43.0123C174.1 43.0178 174.1 43.0234 174.1 43.0289C174.1 43.0345 174.1 43.0401 174.1 43.0456C174.1 43.0512 174.1 43.0568 174.1 43.0624C174.1 43.0679 174.1 43.0735 174.1 43.0791C174.1 43.0846 174.1 43.0902 174.1 43.0958C174.1 43.1014 174.1 43.1069 174.1 43.1125C174.1 43.1181 174.1 43.1237 174.1 43.1293C174.1 43.1348 174.1 43.1404 174.1 43.146C174.1 43.1516 174.1 43.1572 174.1 43.1628C174.1 43.1683 174.1 43.1739 174.1 43.1795C174.1 43.1851 174.1 43.1907 174.1 43.1963C174.1 43.2019 174.1 43.2075 174.1 43.2131C174.1 43.2187 174.1 43.2243 174.1 43.2298C174.1 43.2354 174.1 43.241 174.1 43.2466C174.1 43.2522 174.1 43.2578 174.1 43.2634C174.1 43.269 174.1 43.2746 174.1 43.2802C174.1 43.2858 174.1 43.2915 174.1 43.2971C174.1 43.3027 174.1 43.3083 174.1 43.3139C174.1 43.3195 174.1 43.3251 174.1 43.3307C174.1 43.3363 174.1 43.3419 174.1 43.3475C174.1 43.3532 174.1 43.3588 174.1 43.3644C174.1 43.37 174.1 43.3756 174.1 43.3812C174.1 43.3869 174.1 43.3925 174.1 43.3981C174.1 43.4037 174.1 43.4093 174.1 43.415C174.1 43.4206 174.1 43.4262 174.1 43.4318C174.1 43.4375 174.1 43.4431 174.1 43.4487C174.1 43.4544 174.1 43.46 174.1 43.4656C174.1 43.4713 174.1 43.4769 174.1 43.4825C174.1 43.4882 174.1 43.4938 174.1 43.4994C174.1 43.5051 174.1 43.5107 174.1 43.5163C174.1 43.522 174.1 43.5276 174.1 43.5333C174.1 43.5389 174.1 43.5445 174.1 43.5502C174.1 43.5558 174.1 43.5615 174.1 43.5671C174.1 43.5728 174.1 43.5784 174.1 43.5841C174.1 43.5897 174.1 43.5954 174.1 43.601C174.1 43.6067 174.1 43.6123 174.1 43.618C174.1 43.6236 174.1 43.6293 174.1 43.6349C174.1 43.6406 174.1 43.6463 174.1 43.6519C174.1 43.6576 174.1 43.6632 174.1 43.6689C174.1 43.6746 174.1 43.6802 174.1 43.6859C174.1 43.6916 174.1 43.6972 174.1 43.7029C174.1 43.7086 174.1 43.7142 174.1 43.7199C174.1 43.7256 174.1 43.7312 174.1 43.7369C174.1 43.7426 174.1 43.7483 174.1 43.7539C174.1 43.7596 174.1 43.7653 174.1 43.771C174.1 43.7766 174.1 43.7823 174.1 43.788C174.1 43.7937 174.1 43.7994 174.1 43.805C174.1 43.8107 174.1 43.8164 174.1 43.8221C174.1 43.8278 174.1 43.8335 174.1 43.8391C174.1 43.8448 174.1 43.8505 174.1 43.8562C174.1 43.8619 174.1 43.8676 174.1 43.8733C174.1 43.879 174.1 43.8847 174.1 43.8904C174.1 43.8961 174.1 43.9018 174.1 43.9075C174.1 43.9132 174.1 43.9189 174.1 43.9246C174.1 43.9303 174.1 43.936 174.1 43.9417C174.1 43.9474 174.1 43.9531 174.1 43.9588C174.1 43.9645 174.1 43.9702 174.1 43.9759C174.1 43.9816 174.1 43.9873 174.1 43.993C174.1 43.9987 174.1 44.0044 174.1 44.0102C174.1 44.0159 174.1 44.0216 174.1 44.0273C174.1 44.033 174.1 44.0387 174.1 44.0444C174.1 44.0502 174.1 44.0559 174.1 44.0616C174.1 44.0673 174.1 44.073 174.1 44.0788C174.1 44.0845 174.1 44.0902 174.1 44.0959C174.1 44.1017 174.1 44.1074 174.1 44.1131C174.1 44.1189 174.1 44.1246 174.1 44.1303C174.1 44.136 174.1 44.1418 174.1 44.1475C174.1 44.1532 174.1 44.159 174.1 44.1647C174.1 44.1704 174.1 44.1762 174.1 44.1819C174.1 44.1877 174.1 44.1934 174.1 44.1991C174.1 44.2049 174.1 44.2106 174.1 44.2164C174.1 44.2221 174.1 44.2279 174.1 44.2336C174.1 44.2393 174.1 44.2451 174.1 44.2508C174.1 44.2566 174.1 44.2623 174.1 44.2681C174.1 44.2738 174.1 44.2796 174.1 44.2853C174.1 44.2911 174.1 44.2969 174.1 44.3026C174.1 44.3084 174.1 44.3141 174.1 44.3199C174.1 44.3256 174.1 44.3314 174.1 44.3372C174.1 44.3429 174.1 44.3487 174.1 44.3545C174.1 44.3602 174.1 44.366 174.1 44.3717C174.1 44.3775 174.1 44.3833 174.1 44.3891C174.1 44.3948 174.1 44.4006 174.1 44.4064C174.1 44.4121 174.1 44.4179 174.1 44.4237C174.1 44.4295 174.1 44.4352 174.1 44.441C174.1 44.4468 174.1 44.4526 174.1 44.4583C174.1 44.4641 174.1 44.4699 174.1 44.4757C174.1 44.4815 174.1 44.4872 174.1 44.493C174.1 44.4988 174.1 44.5046 174.1 44.5104C174.1 44.5162 174.1 44.522 174.1 44.5277C174.1 44.5335 174.1 44.5393 174.1 44.5451C174.1 44.5509 174.1 44.5567 174.1 44.5625C174.1 44.5683 174.1 44.5741 174.1 44.5799C174.1 44.5857 174.1 44.5915 174.1 44.5973C174.1 44.6031 174.1 44.6089 174.1 44.6147C174.1 44.6205 174.1 44.6263 174.1 44.6321C174.1 44.6379 174.1 44.6437 174.1 44.6495C174.1 44.6553 174.1 44.6611 174.1 44.6669C174.1 44.6727 174.1 44.6786 174.1 44.6844C174.1 44.6902 174.1 44.696 174.1 44.7018C174.1 44.7076 174.1 44.7134 174.1 44.7193C174.1 44.7251 174.1 44.7309 174.1 44.7367C174.1 44.7425 174.1 44.7483 174.1 44.7542C174.1 44.76 174.1 44.7658 174.1 44.7716C174.1 44.7775 174.1 44.7833 174.1 44.7891C174.1 44.7949 174.1 44.8008 174.1 44.8066C174.1 44.8124 174.1 44.8183 174.1 44.8241C174.1 44.8299 174.1 44.8358 174.1 44.8416C174.1 44.8474 174.1 44.8533 174.1 44.8591C174.1 44.8649 174.1 44.8708 174.1 44.8766C174.1 44.8825 174.1 44.8883 174.1 44.8941C174.1 44.9 174.1 44.9058 174.1 44.9117C174.1 44.9175 174.1 44.9234 174.1 44.9292C174.1 44.9351 174.1 44.9409 174.1 44.9468C174.1 44.9526 174.1 44.9585 174.1 44.9643C174.1 44.9702 174.1 44.976 174.1 44.9819C174.1 44.9877 174.1 44.9936 174.1 44.9995C174.1 45.0053 174.1 45.0112 174.1 45.017C174.1 45.0229 174.1 45.0288 174.1 45.0346C174.1 45.0405 174.1 45.0463 174.1 45.0522C174.1 45.0581 174.1 45.0639 174.1 45.0698C174.1 45.0757 174.1 45.0815 174.1 45.0874C174.1 45.0933 174.1 45.0992 174.1 45.105C174.1 45.1109 174.1 45.1168 174.1 45.1227C174.1 45.1285 174.1 45.1344 174.1 45.1403C174.1 45.1462 174.1 45.152 174.1 45.1579C174.1 45.1638 174.1 45.1697 174.1 45.1756C174.1 45.1815 174.1 45.1873 174.1 45.1932C174.1 45.1991 174.1 45.205 174.1 45.2109C174.1 45.2168 174.1 45.2227 174.1 45.2286C174.1 45.2344 174.1 45.2403 174.1 45.2462C174.1 45.2521 174.1 45.258 174.1 45.2639C174.1 45.2698 174.1 45.2757 174.1 45.2816C174.1 45.2875 174.1 45.2934 174.1 45.2993C174.1 45.3052 174.1 45.3111 174.1 45.317C174.1 45.3229 174.1 45.3288 174.1 45.3347C174.1 45.3406 174.1 45.3465 174.1 45.3524C174.1 45.3584 174.1 45.3643 174.1 45.3702C174.1 45.3761 174.1 45.382 174.1 45.3879C174.1 45.3938 174.1 45.3997 174.1 45.4057C174.1 45.4116 174.1 45.4175 174.1 45.4234C174.1 45.4293 174.1 45.4353 174.1 45.4412C174.1 45.4471 174.1 45.453 174.1 45.4589C174.1 45.4649 174.1 45.4708 174.1 45.4767C174.1 45.4826 174.1 45.4886 174.1 45.4945C174.1 45.5004 174.1 45.5064 174.1 45.5123C174.1 45.5182 174.1 45.5242 174.1 45.5301C174.1 45.536 174.1 45.542 174.1 45.5479C174.1 45.5538 174.1 45.5598 174.1 45.5657C174.1 45.5717 174.1 45.5776 174.1 45.5835C174.1 45.5895 174.1 45.5954 174.1 45.6014C174.1 45.6073 174.1 45.6133 174.1 45.6192C174.1 45.6251 174.1 45.6311 174.1 45.637C174.1 45.643 174.1 45.6489 174.1 45.6549C174.1 45.6608 174.1 45.6668 174.1 45.6728C174.1 45.6787 174.1 45.6847 174.1 45.6906C174.1 45.6966 174.1 45.7025 174.1 45.7085C174.1 45.7145 174.1 45.7204 174.1 45.7264C174.1 45.7323 174.1 45.7383 174.1 45.7443C174.1 45.7502 174.1 45.7562 174.1 45.7622C174.1 45.7681 174.1 45.7741 174.1 45.7801C174.1 45.786 174.1 45.792 174.1 45.798C174.1 45.804 174.1 45.8099 174.1 45.8159C174.1 45.8219 174.1 45.8279 174.1 45.8338C174.1 45.8398 174.1 45.8458 174.1 45.8518C174.1 45.8578 174.1 45.8637 174.1 45.8697C174.1 45.8757 174.1 45.8817 174.1 45.8877C174.1 45.8937 174.1 45.8996 174.1 45.9056C174.1 45.9116 174.1 45.9176 174.1 45.9236C174.1 45.9296 174.1 45.9356 174.1 45.9416C174.1 45.9476 174.1 45.9536 174.1 45.9595C174.1 45.9655 174.1 45.9715 174.1 45.9775C174.1 45.9835 174.1 45.9895 174.1 45.9955C174.1 46.0015 174.1 46.0075 174.1 46.0135C174.1 46.0195 174.1 46.0255 174.1 46.0316C174.1 46.0376 174.1 46.0436 174.1 46.0496C174.1 46.0556 174.1 46.0616 174.1 46.0676C174.1 46.0736 174.1 46.0796 174.1 46.0856C174.1 46.0916 174.1 46.0977 174.1 46.1037C174.1 46.1097 174.1 46.1157 174.1 46.1217C174.1 46.1277 174.1 46.1338 174.1 46.1398C174.1 46.1458 174.1 46.1518 174.1 46.1578C174.1 46.1639 174.1 46.1699 174.1 46.1759C174.1 46.1819 174.1 46.188 174.1 46.194C174.1 46.2 174.1 46.2061 174.1 46.2121C174.1 46.2181 174.1 46.2242 174.1 46.2302C174.1 46.2362 174.1 46.2423 174.1 46.2483C174.1 46.2543 174.1 46.2604 174.1 46.2664C174.1 46.2724 174.1 46.2785 174.1 46.2845C174.1 46.2906 174.1 46.2966 174.1 46.3026C174.1 46.3087 174.1 46.3147 174.1 46.3208C174.1 46.3268 174.1 46.3329 174.1 46.3389C174.1 46.345 174.1 46.351 174.1 46.3571C174.1 46.3631 174.1 46.3692 174.1 46.3752C174.1 46.3813 174.1 46.3873 174.1 46.3934C174.1 46.3995 174.1 46.4055 174.1 46.4116C174.1 46.4176 174.1 46.4237 174.1 46.4297C174.1 46.4358 174.1 46.4419 174.1 46.4479C174.1 46.454 174.1 46.4601 174.1 46.4661C174.1 46.4722 174.1 46.4783 174.1 46.4843C174.1 46.4904 174.1 46.4965 174.1 46.5025C174.1 46.5086 174.1 46.5147 174.1 46.5208C174.1 46.5268 174.1 46.5329 174.1 46.539C174.1 46.5451 174.1 46.5511 174.1 46.5572C174.1 46.5633 174.1 46.5694 174.1 46.5755C174.1 46.5815 174.1 46.5876 174.1 46.5937C174.1 46.5998 174.1 46.6059 174.1 46.612C174.1 46.6181 174.1 46.6241 174.1 46.6302C174.1 46.6363 174.1 46.6424 174.1 46.6485C174.1 46.6546 174.1 46.6607 174.1 46.6668C174.1 46.6729 174.1 46.679 174.1 46.6851C174.1 46.6912 174.1 46.6973 174.1 46.7034C174.1 46.7095 174.1 46.7156 174.1 46.7217C174.1 46.7278 174.1 46.7339 174.1 46.74C174.1 46.7461 174.1 46.7522 174.1 46.7583C174.1 46.7644 174.1 46.7705 174.1 46.7766C174.1 46.7827 174.1 46.7888 174.1 46.795C174.1 46.8011 174.1 46.8072 174.1 46.8133C174.1 46.8194 174.1 46.8255 174.1 46.8316C174.1 46.8378 174.1 46.8439 174.1 46.85C174.1 46.8561 174.1 46.8622 174.1 46.8684C174.1 46.8745 174.1 46.8806 174.1 46.8867C174.1 46.8929 174.1 46.899 174.1 46.9051C174.1 46.9112 174.1 46.9174 174.1 46.9235C174.1 46.9296 174.1 46.9358 174.1 46.9419C174.1 46.948 174.1 46.9542 174.1 46.9603C174.1 46.9664 174.1 46.9726 174.1 46.9787C174.1 46.9848 174.1 46.991 174.1 46.9971C174.1 47.0033 174.1 47.0094 174.1 47.0155C174.1 47.0217 174.1 47.0278 174.1 47.034C174.1 47.0401 174.1 47.0463 174.1 47.0524C174.1 47.0586 174.1 47.0647 174.1 47.0709C174.1 47.077 174.1 47.0832 174.1 47.0893C174.1 47.0955 174.1 47.1016 174.1 47.1078C174.1 47.1139 174.1 47.1201 174.1 47.1262C174.1 47.1324 174.1 47.1386 174.1 47.1447C174.1 47.1509 174.1 47.157 174.1 47.1632C174.1 47.1694 174.1 47.1755 174.1 47.1817C174.1 47.1879 174.1 47.194 174.1 47.2002C174.1 47.2064 174.1 47.2125 174.1 47.2187C174.1 47.2249 174.1 47.2311 174.1 47.2372C174.1 47.2434 174.1 47.2496 174.1 47.2557C174.1 47.2619 174.1 47.2681 174.1 47.2743C174.1 47.2805 174.1 47.2866 174.1 47.2928C174.1 47.299 174.1 47.3052 174.1 47.3114C174.1 47.3175 174.1 47.3237 174.1 47.3299C174.1 47.3361 174.1 47.3423 174.1 47.3485C174.1 47.3547 174.1 47.3609 174.1 47.3671C174.1 47.3732 174.1 47.3794 174.1 47.3856C174.1 47.3918 174.1 47.398 174.1 47.4042C174.1 47.4104 174.1 47.4166 174.1 47.4228C174.1 47.429 174.1 47.4352 174.1 47.4414C174.1 47.4476 174.1 47.4538 174.1 47.46C174.1 47.4662 174.1 47.4724 174.1 47.4786C174.1 47.4848 174.1 47.491 174.1 47.4972C174.1 47.5035 174.1 47.5097 174.1 47.5159C174.1 47.5221 174.1 47.5283 174.1 47.5345C174.1 47.5407 174.1 47.5469 174.1 47.5532C174.1 47.5594 174.1 47.5656 174.1 47.5718C174.1 47.578 174.1 47.5843 174.1 47.5905C174.1 47.5967 174.1 47.6029 174.1 47.6091C174.1 47.6154 174.1 47.6216 174.1 47.6278C174.1 47.634 174.1 47.6403 174.1 47.6465C174.1 47.6527 174.1 47.659 174.1 47.6652C174.1 47.6714 174.1 47.6777 174.1 47.6839C174.1 47.6901 174.1 47.6964 174.1 47.7026C174.1 47.7088 174.1 47.7151 174.1 47.7213C174.1 47.7276 174.1 47.7338 174.1 47.74C174.1 47.7463 174.1 47.7525 174.1 47.7588C174.1 47.765 174.1 47.7713 174.1 47.7775C174.1 47.7837 174.1 47.79 174.1 47.7962C174.1 47.8025 174.1 47.8087 174.1 47.815C174.1 47.8213 174.1 47.8275 174.1 47.8338C174.1 47.84 174.1 47.8463 174.1 47.8525C174.1 47.8588 174.1 47.865 174.1 47.8713C174.1 47.8776 174.1 47.8838 174.1 47.8901C174.1 47.8963 174.1 47.9026 174.1 47.9089C174.1 47.9151 174.1 47.9214 174.1 47.9277C174.1 47.9339 174.1 47.9402 174.1 47.9465C174.1 47.9527 174.1 47.959 174.1 47.9653C174.1 47.9716 174.1 47.9778 174.1 47.9841C174.1 47.9904 174.1 47.9967 174.1 48.0029C174.1 48.0092 174.1 48.0155 174.1 48.0218C174.1 48.0281 174.1 48.0343 174.1 48.0406C174.1 48.0469 174.1 48.0532 174.1 48.0595C174.1 48.0658 174.1 48.072 174.1 48.0783C174.1 48.0846 174.1 48.0909 174.1 48.0972C174.1 48.1035 174.1 48.1098 174.1 48.1161C174.1 48.1224 174.1 48.1287 174.1 48.135C174.1 48.1413 174.1 48.1475 174.1 48.1538C174.1 48.1601 174.1 48.1664 174.1 48.1727C174.1 48.179 174.1 48.1853 174.1 48.1916C174.1 48.198 174.1 48.2043 174.1 48.2106C174.1 48.2169 174.1 48.2232 174.1 48.2295C174.1 48.2358 174.1 48.2421 174.1 48.2484C174.1 48.2547 174.1 48.261 174.1 48.2673C174.1 48.2737 174.1 48.28 174.1 48.2863C174.1 48.2926 174.1 48.2989 174.1 48.3052C174.1 48.3116 174.1 48.3179 174.1 48.3242C174.1 48.3305 174.1 48.3368 174.1 48.3432C174.1 48.3495 174.1 48.3558 174.1 48.3621C174.1 48.3685 174.1 48.3748 174.1 48.3811C174.1 48.3874 174.1 48.3938 174.1 48.4001C174.1 48.4064 174.1 48.4128 174.1 48.4191C174.1 48.4254 174.1 48.4318 174.1 48.4381C174.1 48.4444 174.1 48.4508 174.1 48.4571C174.1 48.4635 174.1 48.4698 174.1 48.4761C174.1 48.4825 174.1 48.4888 174.1 48.4952C174.1 48.5015 174.1 48.5079 174.1 48.5142C174.1 48.5205 174.1 48.5269 174.1 48.5332C174.1 48.5396 174.1 48.5459 174.1 48.5523C174.1 48.5586 174.1 48.565 174.1 48.5713C174.1 48.5777 174.1 48.5841 174.1 48.5904C174.1 48.5968 174.1 48.6031 174.1 48.6095C174.1 48.6158 174.1 48.6222 174.1 48.6286C174.1 48.6349 174.1 48.6413 174.1 48.6477C174.1 48.654 174.1 48.6604 174.1 48.6667C174.1 48.6731 174.1 48.6795 174.1 48.6859C174.1 48.6922 174.1 48.6986 174.1 48.705C174.1 48.7113 174.1 48.7177 174.1 48.7241C174.1 48.7305 174.1 48.7368 174.1 48.7432C174.1 48.7496 174.1 48.756 174.1 48.7623C174.1 48.7687 174.1 48.7751 174.1 48.7815C174.1 48.7879 174.1 48.7942 174.1 48.8006C174.1 48.807 174.1 48.8134 174.1 48.8198C174.1 48.8262 174.1 48.8326 174.1 48.839C174.1 48.8453 174.1 48.8517 174.1 48.8581C174.1 48.8645 174.1 48.8709 174.1 48.8773C174.1 48.8837 174.1 48.8901 174.1 48.8965C174.1 48.9029 174.1 48.9093 174.1 48.9157C174.1 48.9221 174.1 48.9285 174.1 48.9349C174.1 48.9413 174.1 48.9477 174.1 48.9541C174.1 48.9605 174.1 48.9669 174.1 48.9733C174.1 48.9797 174.1 48.9861 174.1 48.9925C174.1 48.999 174.1 49.0054 174.1 49.0118C174.1 49.0182 174.1 49.0246 174.1 49.031C174.1 49.0374 174.1 49.0438 174.1 49.0503C174.1 49.0567 174.1 49.0631 174.1 49.0695C174.1 49.0759 174.1 49.0824 174.1 49.0888C174.1 49.0952 174.1 49.1016 174.1 49.1081C174.1 49.1145 174.1 49.1209 174.1 49.1273C174.1 49.1338 174.1 49.1402 174.1 49.1466C174.1 49.153 174.1 49.1595 174.1 49.1659C174.1 49.1723 174.1 49.1788 174.1 49.1852C174.1 49.1916 174.1 49.1981 174.1 49.2045C174.1 49.211 174.1 49.2174 174.1 49.2238C174.1 49.2303 174.1 49.2367 174.1 49.2432C174.1 49.2496 174.1 49.2561 174.1 49.2625C174.1 49.2689 174.1 49.2754 174.1 49.2818C174.1 49.2883 174.1 49.2947 174.1 49.3012C174.1 49.3076 174.1 49.3141 174.1 49.3205C174.1 49.327 174.1 49.3334 174.1 49.3399C174.1 49.3464 174.1 49.3528 174.1 49.3593C174.1 49.3657 174.1 49.3722 174.1 49.3786C174.1 49.3851 174.1 49.3916 174.1 49.398C174.1 49.4045 174.1 49.411 174.1 49.4174C174.1 49.4239 174.1 49.4304 174.1 49.4368C174.1 49.4433 174.1 49.4498 174.1 49.4562C174.1 49.4627 174.1 49.4692 174.1 49.4757C174.1 49.4821 174.1 49.4886 174.1 49.4951C174.1 49.5016 174.1 49.508 174.1 49.5145C174.1 49.521 174.1 49.5275 174.1 49.5339C174.1 49.5404 174.1 49.5469 174.1 49.5534C174.1 49.5599 174.1 49.5664 174.1 49.5728C174.1 49.5793 174.1 49.5858 174.1 49.5923C174.1 49.5988 174.1 49.6053 174.1 49.6118C174.1 49.6183 174.1 49.6248 174.1 49.6313C174.1 49.6377 174.1 49.6442 174.1 49.6507C174.1 49.6572 174.1 49.6637 174.1 49.6702C174.1 49.6767 174.1 49.6832 174.1 49.6897C174.1 49.6962 174.1 49.7027 174.1 49.7092C174.1 49.7157 174.1 49.7222 174.1 49.7288C174.1 49.7353 174.1 49.7418 174.1 49.7483C174.1 49.7548 174.1 49.7613 174.1 49.7678C174.1 49.7743 174.1 49.7808 174.1 49.7873C174.1 49.7939 174.1 49.8004 174.1 49.8069C174.1 49.8134 174.1 49.8199 174.1 49.8264C174.1 49.833 174.1 49.8395 174.1 49.846C174.1 49.8525 174.1 49.8591 174.1 49.8656C174.1 49.8721 174.1 49.8786 174.1 49.8852C174.1 49.8917 174.1 49.8982 174.1 49.9047C174.1 49.9113 174.1 49.9178 174.1 49.9243C174.1 49.9309 174.1 49.9374 174.1 49.9439C174.1 49.9505 174.1 49.957 174.1 49.9635C174.1 49.9701 174.1 49.9766 174.1 49.9831C174.1 49.9897 174.1 49.9962 174.1 50.0028C174.1 50.0093 174.1 50.0159 174.1 50.0224C174.1 50.0289 174.1 50.0355 174.1 50.042C174.1 50.0486 174.1 50.0551 174.1 50.0617C174.1 50.0682 174.1 50.0748 174.1 50.0813C174.1 50.0879 174.1 50.0944 174.1 50.101C174.1 50.1075 174.1 50.1141 174.1 50.1207C174.1 50.1272 174.1 50.1338 174.1 50.1403C174.1 50.1469 174.1 50.1535 174.1 50.16C174.1 50.1666 174.1 50.1731 174.1 50.1797C174.1 50.1863 174.1 50.1928 174.1 50.1994C174.1 50.206 174.1 50.2125 174.1 50.2191C174.1 50.2257 174.1 50.2323 174.1 50.2388C174.1 50.2454 174.1 50.252 174.1 50.2586C174.1 50.2651 174.1 50.2717 174.1 50.2783C174.1 50.2849 174.1 50.2914 174.1 50.298C174.1 50.3046 174.1 50.3112 174.1 50.3178C174.1 50.3243 174.1 50.3309 174.1 50.3375C174.1 50.3441 174.1 50.3507 174.1 50.3573C174.1 50.3639 174.1 50.3704 174.1 50.377C174.1 50.3836 174.1 50.3902 174.1 50.3968C174.1 50.4034 174.1 50.41 174.1 50.4166C174.1 50.4232 174.1 50.4298 174.1 50.4364C174.1 50.443 174.1 50.4496 174.1 50.4562C174.1 50.4628 174.1 50.4694 174.1 50.476C174.1 50.4826 174.1 50.4892 174.1 50.4958C174.1 50.5024 174.1 50.509 174.1 50.5156C174.1 50.5222 174.1 50.5288 174.1 50.5354C174.1 50.5421 174.1 50.5487 174.1 50.5553C174.1 50.5619 174.1 50.5685 174.1 50.5751C174.1 50.5817 174.1 50.5884 174.1 50.595C174.1 50.6016 174.1 50.6082 174.1 50.6148C174.1 50.6215 174.1 50.6281 174.1 50.6347C174.1 50.6413 174.1 50.648 174.1 50.6546C174.1 50.6612 174.1 50.6678 174.1 50.6745C174.1 50.6811 174.1 50.6877 174.1 50.6943C174.1 50.701 174.1 50.7076 174.1 50.7142C174.1 50.7209 174.1 50.7275 174.1 50.7341C174.1 50.7408 174.1 50.7474 174.1 50.7541C174.1 50.7607 174.1 50.7673 174.1 50.774C174.1 50.7806 174.1 50.7873 174.1 50.7939C174.1 50.8006 174.1 50.8072 174.1 50.8138C174.1 50.8205 174.1 50.8271 174.1 50.8338C174.1 50.8404 174.1 50.8471 174.1 50.8537C174.1 50.8604 174.1 50.867 174.1 50.8737C174.1 50.8803 174.1 50.887 174.1 50.8937C174.1 50.9003 174.1 50.907 174.1 50.9136C174.1 50.9203 174.1 50.927 174.1 50.9336C174.1 50.9403 174.1 50.9469 174.1 50.9536C174.1 50.9603 174.1 50.9669 174.1 50.9736C174.1 50.9803 174.1 50.9869 174.1 50.9936C174.1 51.0003 174.1 51.0069 174.1 51.0136C174.1 51.0203 174.1 51.027 174.1 51.0336C174.1 51.0403 174.1 51.047 174.1 51.0537C174.1 51.0603 174.1 51.067 174.1 51.0737C174.1 51.0804 174.1 51.087 174.1 51.0937C174.1 51.1004 174.1 51.1071 174.1 51.1138C174.1 51.1205 174.1 51.1272 174.1 51.1338C174.1 51.1405 174.1 51.1472 174.1 51.1539C174.1 51.1606 174.1 51.1673 174.1 51.174C174.1 51.1807 174.1 51.1874 174.1 51.1941C174.1 51.2007 174.1 51.2074 174.1 51.2141C174.1 51.2208 174.1 51.2275 174.1 51.2342C174.1 51.2409 174.1 51.2476 174.1 51.2543C174.1 51.261 174.1 51.2677 174.1 51.2744C174.1 51.2812 174.1 51.2879 174.1 51.2946C174.1 51.3013 174.1 51.308 174.1 51.3147C174.1 51.3214 174.1 51.3281 174.1 51.3348C174.1 51.3415 174.1 51.3483 174.1 51.355C174.1 51.3617 174.1 51.3684 174.1 51.3751C174.1 51.3818 174.1 51.3886 174.1 51.3953C174.1 51.402 174.1 51.4087 174.1 51.4154C174.1 51.4222 174.1 51.4289 174.1 51.4356C174.1 51.4423 174.1 51.4491 174.1 51.4558C174.1 51.4625 174.1 51.4692 174.1 51.476C174.1 51.4827 174.1 51.4894 174.1 51.4962C174.1 51.5029 174.1 51.5096 174.1 51.5164C174.1 51.5231 174.1 51.5298 174.1 51.5366C174.1 51.5433 174.1 51.5501 174.1 51.5568C174.1 51.5635 174.1 51.5703 174.1 51.577C174.1 51.5838 174.1 51.5905 174.1 51.5973C174.1 51.604 174.1 51.6107 174.1 51.6175C174.1 51.6242 174.1 51.631 174.1 51.6377C174.1 51.6445 174.1 51.6512 174.1 51.658C174.1 51.6647 174.1 51.6715 174.1 51.6783C174.1 51.685 174.1 51.6918 174.1 51.6985C174.1 51.7053 174.1 51.712 174.1 51.7188C174.1 51.7256 174.1 51.7323 174.1 51.7391C174.1 51.7459 174.1 51.7526 174.1 51.7594C174.1 51.7662 174.1 51.7729 174.1 51.7797C174.1 51.7865 174.1 51.7932 174.1 51.8H182.1ZM182.096 42.5816C182.229 39.6564 182.362 36.9327 182.494 34.4102L174.506 33.9898C174.372 36.534 174.238 39.2769 174.104 42.2184L182.096 42.5816ZM182.494 34.4102C182.631 31.815 182.7 29.3444 182.7 27H174.7C174.7 29.1889 174.636 31.5183 174.506 33.9898L182.494 34.4102ZM182.694 27.2219C182.827 24.83 182.96 22.5726 183.092 20.4495L175.108 19.9505C174.974 22.0941 174.84 24.37 174.706 26.7781L182.694 27.2219ZM179.1 16.2H178.3V24.2H179.1V16.2ZM174.613 18.6478C173.609 21.0342 172.337 23.6452 170.788 26.4846L177.812 30.3154C179.463 27.2882 180.858 24.4325 181.987 21.7522L174.613 18.6478ZM170.788 26.4846C169.246 29.3115 167.807 31.6175 166.474 33.4345L172.926 38.1655C174.526 35.9825 176.154 33.3551 177.812 30.3154L170.788 26.4846ZM166.426 33.5025L123.626 94.5025L130.174 99.0974L172.974 38.0974L166.426 33.5025ZM126.9 100.8H178.1V92.8H126.9V100.8ZM182.1 96.8V51.8H174.1V96.8H182.1Z" fill="#478DE0"/>
</svg>
