<svg width="40" height="28" viewBox="0 0 71 48" fill="none" xmlns="http://www.w3.org/2000/svg">
<path fill-rule="evenodd" clip-rule="evenodd" d="M21.9758 20.2857C26.6464 20.2857 30.4282 16.5039 30.4282 11.8333C30.4282 7.16272 26.6464 3.38095 21.9758 3.38095C17.3052 3.38095 13.5234 7.16272 13.5234 11.8333C13.5234 16.5039 17.3052 20.2857 21.9758 20.2857ZM21.9758 23.6667C28.5137 23.6667 33.8092 18.3712 33.8092 11.8333C33.8092 5.29542 28.5137 0 21.9758 0C15.4379 0 10.1425 5.29542 10.1425 11.8333C10.1425 18.3712 15.4379 23.6667 21.9758 23.6667ZM4.6758 35.643C3.62665 36.5964 3.38059 37.3301 3.38059 37.8666V43.9523H40.5711V37.8666C40.5711 37.3301 40.3249 36.5964 39.2758 35.643C38.2059 34.6708 36.5592 33.7268 34.4739 32.9042C30.2997 31.2579 25.2273 30.4285 21.9758 30.4285C18.7244 30.4285 13.6519 31.2579 9.47783 32.9042C7.39246 33.7268 5.7457 34.6708 4.6758 35.643ZM21.9758 27.0476C14.6412 27.0476 -0.000366211 30.6719 -0.000366211 37.8666V47.3333H43.952L67.6187 47.3333H70.9996V43.9523V39.4443C70.9996 33.4489 59.7368 30.4285 54.0949 30.4285C50.8214 30.4285 45.6558 31.4452 41.8957 33.4699C37.6039 29.1966 27.6235 27.0476 21.9758 27.0476ZM43.7208 36.3296C43.872 36.8224 43.952 37.3347 43.952 37.8666V43.9523H67.6187V39.4443C67.6187 39.1055 67.4853 38.6102 66.7797 37.9156C66.0447 37.1919 64.8757 36.4557 63.3345 35.7971C60.2372 34.4736 56.4632 33.8095 54.0949 33.8095C51.7263 33.8095 47.9525 34.4736 44.8552 35.7971C44.4511 35.9698 44.0726 36.1478 43.7208 36.3296ZM59.1663 18.5952C59.1663 21.3979 56.8975 23.6666 54.0949 23.6666C51.2922 23.6666 49.0234 21.3979 49.0234 18.5952C49.0234 15.7926 51.2922 13.5238 54.0949 13.5238C56.8975 13.5238 59.1663 15.7926 59.1663 18.5952ZM62.5473 18.5952C62.5473 23.2652 58.7648 27.0476 54.0949 27.0476C49.4249 27.0476 45.6425 23.2652 45.6425 18.5952C45.6425 13.9253 49.4249 10.1428 54.0949 10.1428C58.7648 10.1428 62.5473 13.9253 62.5473 18.5952Z" fill="#478DE0"/>
</svg>
