<svg width="52" height="27" viewBox="0 0 78 40" fill="none" xmlns="http://www.w3.org/2000/svg">
<path fill-rule="evenodd" clip-rule="evenodd" d="M40.9881 16.9535C37.1009 16.9535 33.9534 13.793 33.9534 9.88955C33.9534 5.98614 37.1009 2.82558 40.9881 2.82558C44.8754 2.82558 48.0229 5.98614 48.0229 9.88955C48.0229 13.793 44.8754 16.9535 40.9881 16.9535ZM40.9881 19.7791C35.5467 19.7791 31.1395 15.3535 31.1395 9.88955C31.1395 4.42557 35.5467 0 40.9881 0C46.4295 0 50.8368 4.42557 50.8368 9.88955C50.8368 15.3535 46.4295 19.7791 40.9881 19.7791ZM59.2552 37.3351H75.1767V34.3709C75.1767 34.1482 75.0923 33.8225 74.6454 33.3658C74.1799 32.8899 73.4396 32.4058 72.4635 31.9728C70.502 31.1025 68.1119 30.6658 66.612 30.6658C65.112 30.6658 62.722 31.1025 60.7605 31.9728C60.1694 32.2351 59.6647 32.5161 59.2552 32.8026V37.3351ZM59.1179 39.5582H24.0114H2.82455H-0.000366211V36.7467V32.9978C-0.000366211 28.0121 9.41013 25.5004 14.1242 25.5004C16.8449 25.5004 21.13 26.337 24.2674 28.003C27.8469 24.4344 36.1878 22.6397 40.9064 22.6397C46.5667 22.6397 57.439 25.2221 59.0529 30.3512C61.4182 29.0807 64.5869 28.4427 66.612 28.4427C70.1851 28.4427 77.3179 30.4287 77.3179 34.3709V37.3351V39.5582H75.1767H59.1179ZM22.7492 30.3857C22.4674 30.2422 22.1655 30.1015 21.8443 29.9649C19.2564 28.8643 16.1032 28.3119 14.1242 28.3119C12.1454 28.3119 8.99205 28.8643 6.40414 29.9649C5.1164 30.5126 4.13969 31.1248 3.52555 31.7266C2.93599 32.3042 2.82455 32.7161 2.82455 32.9978V36.7467H22.5576V31.6629C22.5576 31.221 22.6239 30.7953 22.7492 30.3857ZM56.4323 31.6629C56.4323 31.2154 56.2268 30.6035 55.3509 29.8084C54.4576 28.9975 53.0826 28.2103 51.3415 27.5242C47.8563 26.1512 43.6212 25.4595 40.9064 25.4595C38.1916 25.4595 33.9564 26.1512 30.4713 27.5242C28.7301 28.2103 27.3552 28.9975 26.4619 29.8084C25.586 30.6035 25.3805 31.2154 25.3805 31.6629V36.7385H56.4323V31.6629ZM14.1392 19.8118C11.8086 19.8118 9.92186 17.9141 9.92186 15.5699C9.92186 13.2257 11.8086 11.328 14.1392 11.328C16.4699 11.328 18.3566 13.2257 18.3566 15.5699C18.3566 17.9141 16.4699 19.8118 14.1392 19.8118ZM14.1392 22.6397C10.2557 22.6397 7.11029 19.4759 7.11029 15.5699C7.11029 11.6638 10.2557 8.50007 14.1392 8.50007C18.0227 8.50007 21.1682 11.6638 21.1682 15.5699C21.1682 19.4759 18.0227 22.6397 14.1392 22.6397ZM62.0831 19.779C62.0831 22.1097 63.9808 23.9964 66.325 23.9964C68.6692 23.9964 70.5668 22.1097 70.5668 19.779C70.5668 17.4484 68.6692 15.5617 66.325 15.5617C63.9808 15.5617 62.0831 17.4484 62.0831 19.779ZM59.2552 19.779C59.2552 23.6625 62.4189 26.808 66.325 26.808C70.231 26.808 73.3948 23.6625 73.3948 19.779C73.3948 15.8956 70.231 12.7501 66.325 12.7501C62.4189 12.7501 59.2552 15.8956 59.2552 19.779Z" fill="#478DE0"/>
</svg>
