<svg width="45" height="45" viewBox="0 0 73 74" fill="none" xmlns="http://www.w3.org/2000/svg">
<path fill-rule="evenodd" clip-rule="evenodd" d="M41.148 4.73049C43.6225 3.61858 46.3668 3 49.2555 3C54.9405 3 60.066 5.39584 63.6772 9.23292L61.1853 17.0655L49.3549 19.375L40.5726 11.2444L41.1615 5.12239C41.1743 4.98854 41.1692 4.85711 41.148 4.73049ZM64.0578 17.932L65.915 12.0944C67.7059 14.8753 68.8195 18.1337 69.0227 21.6363L64.0578 17.932ZM61.8124 19.9997L50.0961 22.287L47.3518 33.9251L56.8617 41.0882C63.2901 38.4114 68.0046 32.4438 68.9016 25.2889L61.8124 19.9997ZM45.2505 36.0981L38.0473 39.1265C41.2342 41.3187 45.095 42.6018 49.2555 42.6018C50.6515 42.6018 52.0138 42.4574 53.3283 42.1825L45.2505 36.0981ZM35.4275 36.9736C31.7425 33.3776 29.4545 28.3565 29.4545 22.8009C29.4545 20.7251 29.774 18.7239 30.3663 16.8438C30.5578 16.8417 30.7521 16.8027 30.9391 16.7227L38.5568 13.4665L47.2056 21.4735L44.4446 33.1826L35.4275 36.9736ZM71.8849 25.6112C70.9219 33.4458 65.9848 40.0508 59.152 43.3479L59.2849 43.4809L29.0152 73.7506L26.8939 71.6293L53.2743 45.2488C51.9697 45.4808 50.6267 45.6018 49.2555 45.6018C36.6629 45.6018 26.4545 35.3935 26.4545 22.8009C26.4545 21.1208 26.6363 19.483 26.9811 17.9063L7.70256 36.7658L5.60467 34.6213L29.7291 11.0213C33.7226 4.41574 40.9734 0 49.2555 0C61.8481 0 72.0564 10.2083 72.0564 22.8009C72.0564 23.2326 72.0444 23.6614 72.0207 24.0872C72.2497 24.5665 72.2157 25.152 71.8849 25.6112ZM37.6203 10.6042L32.0563 12.9826L32.1104 12.8886L33.4879 11.5411L33.1846 11.231C34.5118 9.39079 36.1473 7.78764 38.0154 6.49728L37.6203 10.6042ZM0 55.3609L24.1037 31.8178L26.1999 33.9639L2.09622 57.507L0 55.3609ZM38.7171 46.3552L26.385 57.5662L28.403 59.7861L40.7351 48.5751L38.7171 46.3552ZM24.6517 43.0412L29.6966 37.9962L31.8179 40.1175L26.773 45.1625L24.6517 43.0412ZM22.3826 45.3109L11.7322 56.5219L13.9072 58.5882L24.5576 47.3772L22.3826 45.3109Z" fill="#478DE0"/>
</svg>
