<svg width="42" height="44" viewBox="0 0 42 44" fill="none" xmlns="http://www.w3.org/2000/svg">
<path d="M27 12C29.7614 12 32 9.7614 32 7C32 4.23858 29.7614 2 27 2C24.2386 2 22 4.23858 22 7C22 9.7614 24.2386 12 27 12Z" stroke="black" stroke-width="3" stroke-miterlimit="2"/>
<path d="M21.5 39.5C21.5 41.1569 20.1569 42.5 18.5 42.5C16.8431 42.5 15.5 41.1569 15.5 39.5C15.5 37.8431 16.8431 36.5 18.5 36.5C20.1569 36.5 21.5 37.8431 21.5 39.5Z" stroke="black" stroke-width="3"/>
<path d="M22.38 16.9099L18 24.9999L25.31 31.0199C25.62 31.2599 25.84 31.5899 25.97 31.9599L29 41.9999" stroke="black" stroke-width="3" stroke-miterlimit="2" stroke-linecap="round" stroke-linejoin="round"/>
<path d="M18 25L12.51 32.64C11.97 33.43 10.95 33.73 10.07 33.36L2 30" stroke="black" stroke-width="3" stroke-miterlimit="2" stroke-linecap="round" stroke-linejoin="round"/>
<path d="M40 21.9999H33C32.64 21.9999 32.28 21.9099 31.96 21.7299L28.75 19.9199C24.74 17.5699 20.35 15.9599 15.78 15.1399L12.56 14.5699C12.11 14.4899 11.64 14.5699 11.24 14.7899L5 17.9999" stroke="black" stroke-width="3" stroke-miterlimit="2" stroke-linecap="round" stroke-linejoin="round"/>
</svg>
