<svg width="40" height="40" viewBox="0 0 57 57" fill="none" xmlns="http://www.w3.org/2000/svg">
<path d="M21.3821 28.5332L8.49746 24.8513C8.0281 24.7213 7.53202 24.9894 7.39664 25.4641C7.26216 25.9361 7.53558 26.4295 8.00939 26.5649L20.8941 30.2468C20.9751 30.269 21.057 30.2806 21.1381 30.2806C21.5255 30.2806 21.8818 30.0259 21.994 29.634C22.1294 29.162 21.855 28.6686 21.3821 28.5332Z" fill="#478DE0"/>
<path d="M21.3821 34.7674L8.49746 31.0865C8.0281 30.9564 7.53202 31.2245 7.39664 31.6992C7.26216 32.1721 7.53558 32.6646 8.00939 32.8L20.8941 36.481C20.9751 36.5032 21.057 36.5148 21.1381 36.5148C21.5255 36.5148 21.8818 36.2601 21.994 35.8682C22.1294 35.3953 21.855 34.9028 21.3821 34.7674Z" fill="#478DE0"/>
<path d="M21.3821 22.2988L8.49746 18.617C8.0281 18.4869 7.53202 18.755 7.39664 19.2297C7.26216 19.7018 7.53558 20.1952 8.00939 20.3305L20.8941 24.0124C20.9751 24.0346 21.057 24.0462 21.1381 24.0462C21.5255 24.0462 21.8818 23.7915 21.994 23.3996C22.1294 22.9276 21.855 22.4342 21.3821 22.2988Z" fill="#478DE0"/>
<path d="M21.3821 16.0642L8.49746 12.3824C8.0281 12.2523 7.53202 12.5204 7.39664 12.9951C7.26216 13.4671 7.53558 13.9605 8.00939 14.0959L20.8941 17.7778C20.9751 17.8 21.057 17.8116 21.1381 17.8116C21.5255 17.8116 21.8818 17.5569 21.994 17.165C22.1294 16.693 21.855 16.1996 21.3821 16.0642Z" fill="#478DE0"/>
<path d="M35.592 30.2465C35.674 30.2465 35.7559 30.2349 35.8369 30.2126L48.7216 26.5308C49.1945 26.3954 49.4688 25.902 49.3344 25.43C49.199 24.9561 48.7038 24.689 48.2335 24.8172L35.348 28.4991C34.8751 28.6344 34.6007 29.1278 34.7352 29.5999C34.8483 29.9917 35.2046 30.2465 35.592 30.2465Z" fill="#478DE0"/>
<path d="M48.5025 31.0865L35.6179 34.7674C35.145 34.9028 34.8706 35.3953 35.0051 35.8683C35.1182 36.2601 35.4745 36.5149 35.8619 36.5149C35.9438 36.5149 36.0258 36.5033 36.1068 36.481L48.9915 32.8001C49.4644 32.6647 49.7387 32.1722 49.6043 31.6992C49.468 31.2254 48.9728 30.9582 48.5025 31.0865Z" fill="#478DE0"/>
<path d="M48.5025 18.6169L35.6179 22.2987C35.145 22.4341 34.8706 22.9275 35.0051 23.3996C35.1182 23.7914 35.4745 24.0462 35.8619 24.0462C35.9438 24.0462 36.0258 24.0346 36.1068 24.0123L48.9915 20.3305C49.4644 20.1951 49.7387 19.7017 49.6043 19.2297C49.468 18.7558 48.9728 18.4869 48.5025 18.6169Z" fill="#478DE0"/>
<path d="M48.5025 12.3824L35.6179 16.0642C35.145 16.1996 34.8706 16.693 35.0051 17.165C35.1182 17.5569 35.4745 17.8116 35.8619 17.8116C35.9438 17.8116 36.0258 17.8001 36.1068 17.7778L48.9915 14.096C49.4644 13.9606 49.7387 13.4672 49.6043 12.9951C49.468 12.5213 48.9728 12.2541 48.5025 12.3824Z" fill="#478DE0"/>
<path d="M56.3044 0.367828C55.9891 0.126469 55.6062 0 55.217 0C55.0638 0 54.9097 0.0195937 54.7592 0.0587812L28.5 7.06176L2.24081 0.0587812C2.08941 0.0187031 1.93533 0 1.78214 0C1.39294 0 1.01086 0.126469 0.695578 0.367828C0.257391 0.705375 0 1.22728 0 1.78036V46.3107C0 47.1176 0.542391 47.8239 1.32169 48.0323L24.3648 54.1767C25.0168 55.8279 26.6181 56.9991 28.5 56.9991C30.3819 56.9991 31.9832 55.8279 32.6352 54.1767L55.6783 48.0323C56.4576 47.8239 57 47.1176 57 46.3107V1.78036C57 1.22728 56.7426 0.705375 56.3044 0.367828ZM28.5 48.0929C28.6541 48.0929 28.809 48.0733 28.9596 48.0332L55.2188 41.0302V42.7705L28.5 49.8429L1.78125 42.7705V41.0302L28.0404 48.0323C28.191 48.0733 28.3459 48.0929 28.5 48.0929ZM1.77947 1.78125C1.77947 1.78125 1.78036 1.78125 1.78214 1.78125L27.6094 8.66756V46.0738L1.78125 39.1866L1.77947 1.78125ZM31.1532 52.7286C31.0828 53.7465 30.454 54.6087 29.5607 54.9961L28.9587 55.1573C28.8082 55.1974 28.6532 55.217 28.4991 55.217C28.345 55.217 28.1901 55.1974 28.0395 55.1573L27.4375 54.9961C26.5442 54.6087 25.9154 53.7465 25.845 52.7286L1.78125 46.3107V44.6132L28.272 51.626C28.3468 51.6456 28.4234 51.6554 28.5 51.6554C28.5766 51.6554 28.6532 51.6456 28.728 51.626L55.2188 44.6132V46.3107L31.1532 52.7286ZM29.3906 46.0738V8.66756L55.2188 1.78036V39.1866L29.3906 46.0738Z" fill="#478DE0"/>
</svg>
