<svg width="129" height="35" viewBox="0 0 129 35" fill="none" xmlns="http://www.w3.org/2000/svg">
<path fill-rule="evenodd" clip-rule="evenodd" d="M16.0182 6.58681C15.5566 6.58681 15.1068 6.49148 14.6829 6.30274C13.0246 5.56521 12.2728 3.6161 13.0103 1.95594C13.5388 0.767906 14.7207 0 16.0219 0C16.4835 0 16.9321 0.095334 17.356 0.283386C19.0161 1.02035 19.7668 2.97071 19.0298 4.63087C18.5014 5.8189 17.3195 6.58681 16.0182 6.58681ZM20.6441 28.2003C21.9646 28.2003 23.1761 28.9745 23.7305 30.173C24.1117 30.996 24.1507 31.9192 23.8375 32.7713C23.5231 33.6245 22.897 34.304 22.0728 34.6851C21.621 34.8942 21.1427 35 20.6483 35C19.328 35 18.1157 34.226 17.5613 33.0286C17.1795 32.2037 17.1425 31.2812 17.4555 30.4291C17.7686 29.5764 18.3955 28.8963 19.2184 28.5152C19.6695 28.3068 20.1491 28.2003 20.6441 28.2003ZM18.0781 18.5055C17.817 19.1806 17.8492 19.8074 18.1666 20.2715C18.4122 20.6279 18.797 20.8339 19.2227 20.8339C19.8805 20.8339 20.4554 20.3605 20.7611 19.5679C22.9799 13.8072 21.6155 9.89847 16.616 7.63184C16.4396 7.4951 16.259 7.37315 16.0616 7.25745C14.8946 6.5669 13.7839 6.21662 12.7623 6.21662C12.5946 6.21662 12.4449 6.22595 12.2568 6.25007L11.6418 6.43937C10.6153 6.88112 7.58323 7.12685 2.63189 7.16894C1.42098 7.17759 0.790392 7.99805 0.794146 8.80247C0.7979 9.59575 1.43088 10.3989 2.63689 10.3989C4.19011 10.3863 5.76337 10.2958 7.29005 10.208L7.40269 10.2015L8.16195 10.1564L3.60662 19.149L0.378453 25.612C0.165032 26.0934 -0.48035 27.5562 0.643295 28.1829C0.652624 28.1928 0.661839 28.2022 0.672419 28.2121L0.643295 28.2777L0.696537 28.2325C0.888343 28.3903 1.24101 28.4813 1.51086 28.4813C1.97365 28.4813 2.64508 28.2734 3.21618 27.2877L7.5946 20.5796C7.5946 20.5778 7.7103 20.3823 7.90279 20.3823C7.9541 20.3823 8.01041 20.3965 8.07105 20.4219C8.16445 20.4621 8.22076 20.5097 8.24306 20.5672C8.28083 20.6669 8.22577 20.7937 8.22451 20.7961L3.59114 31.447C3.03677 32.6963 3.25634 33.7229 4.16474 34.1257C4.43573 34.2464 4.69875 34.3076 4.94743 34.3076C5.40226 34.3076 6.03399 34.1034 6.4597 33.1425C6.5457 32.9829 14.9455 17.2853 17.1538 12.4638C18.7538 13.9891 19.0563 15.9661 18.0781 18.5055ZM40.2915 7.944C40.4301 8.008 40.5582 8.04533 40.6755 8.056V13.416C40.6755 13.7253 40.6702 13.9973 40.6595 14.232C40.6595 14.456 40.6541 14.6693 40.6435 14.872C40.6328 15.0747 40.6168 15.2773 40.5955 15.48C40.5742 15.6827 40.5475 15.912 40.5155 16.168C40.5048 16.2427 40.4835 16.344 40.4515 16.472C40.4195 16.6 40.4035 16.6693 40.4035 16.68C40.4035 16.8293 40.4622 16.968 40.5795 17.096C40.6968 17.2347 40.7928 17.304 40.8675 17.304C40.9528 17.304 41.0541 17.2293 41.1715 17.08C41.2888 16.9413 41.4062 16.7493 41.5235 16.504C41.6408 16.2587 41.7475 15.976 41.8435 15.656C41.9501 15.3253 42.0248 14.9733 42.0675 14.6C42.1101 14.2587 42.1368 13.8747 42.1475 13.448C42.1688 13.0213 42.1795 12.632 42.1795 12.28H45.2355C45.3422 12.28 45.4755 12.2267 45.6355 12.12C45.7955 12.0133 45.9395 11.8853 46.0675 11.736C46.2062 11.576 46.3128 11.4107 46.3875 11.24C46.4622 11.0693 46.4781 10.92 46.4355 10.792C46.4142 10.7173 46.3555 10.6693 46.2595 10.648C46.1635 10.6267 46.0568 10.6213 45.9395 10.632C45.8328 10.632 45.7262 10.6427 45.6195 10.664C45.5128 10.6747 45.4275 10.6853 45.3635 10.696C45.0755 10.728 44.8035 10.7547 44.5475 10.776L43.8115 10.84C43.5662 10.8507 43.3102 10.8667 43.0435 10.888C42.7875 10.8987 42.4995 10.9093 42.1795 10.92C42.2008 10.5467 42.2062 10.1253 42.1955 9.656C42.1848 9.18667 42.1741 8.70667 42.1635 8.216H43.0755C43.3528 8.20533 43.6195 8.19467 43.8755 8.184C44.1315 8.17333 44.3821 8.15733 44.6275 8.136C44.8835 8.104 45.1502 8.06667 45.4275 8.024C45.5875 8.00267 45.7368 7.94933 45.8755 7.864C46.0141 7.77867 46.1315 7.688 46.2275 7.592C46.3235 7.48533 46.3982 7.384 46.4515 7.288C46.5048 7.192 46.5315 7.112 46.5315 7.048C46.5315 6.984 46.4888 6.92533 46.4035 6.872C46.3288 6.81867 46.2382 6.776 46.1315 6.744C46.0248 6.70133 45.9128 6.66933 45.7955 6.648C45.6782 6.62667 45.5821 6.62133 45.5075 6.632C45.1448 6.68533 44.7448 6.73867 44.3075 6.792C43.8808 6.83467 43.4488 6.872 43.0115 6.904C42.5848 6.936 42.1688 6.96267 41.7635 6.984C41.3582 7.00533 40.9955 7.01067 40.6755 7C40.3982 6.98933 40.1581 6.97333 39.9555 6.952C39.7635 6.92 39.6515 6.94667 39.6195 7.032C39.5768 7.14933 39.5875 7.26667 39.6515 7.384C39.7155 7.49067 39.8008 7.592 39.9075 7.688C40.0248 7.784 40.1528 7.86933 40.2915 7.944ZM47.5229 12.264C47.3415 12.7227 47.2509 13.2027 47.2509 13.704C47.2509 14.248 47.3255 14.7547 47.4749 15.224C47.6349 15.6827 47.8589 16.0827 48.1469 16.424C48.4455 16.7547 48.8029 17.0107 49.2189 17.192C49.6349 17.384 50.0989 17.48 50.6109 17.48C51.1549 17.48 51.6509 17.3627 52.0989 17.128C52.5469 16.904 52.9309 16.6107 53.2509 16.248C53.5709 15.8747 53.8162 15.4533 53.9869 14.984C54.1682 14.504 54.2589 14.024 54.2589 13.544C54.2589 13.0747 54.1789 12.6213 54.0189 12.184C53.8695 11.7467 53.6562 11.3573 53.3789 11.016C53.1015 10.6747 52.7655 10.4027 52.3709 10.2C51.9869 9.99733 51.5602 9.896 51.0909 9.896C50.5255 9.896 50.0082 10.0027 49.5389 10.216C49.0695 10.4187 48.6642 10.696 48.3229 11.048C47.9815 11.4 47.7149 11.8053 47.5229 12.264ZM50.0829 11.48C50.3815 11.3413 50.7069 11.272 51.0589 11.272C51.3575 11.272 51.6242 11.3413 51.8589 11.48C52.1042 11.608 52.3069 11.7787 52.4669 11.992C52.6375 12.2053 52.7655 12.44 52.8509 12.696C52.9469 12.952 52.9949 13.208 52.9949 13.464C52.9949 13.784 52.9309 14.104 52.8029 14.424C52.6855 14.7333 52.5202 15.0107 52.3069 15.256C52.1042 15.5013 51.8589 15.704 51.5709 15.864C51.2935 16.0133 51.0002 16.088 50.6909 16.088C50.3815 16.088 50.0935 16.0187 49.8269 15.88C49.5709 15.7413 49.3522 15.56 49.1709 15.336C48.9895 15.112 48.8455 14.8667 48.7389 14.6C48.6429 14.3227 48.5949 14.0453 48.5949 13.768C48.5949 13.4373 48.6535 13.1227 48.7709 12.824C48.8989 12.5147 49.0749 12.248 49.2989 12.024C49.5229 11.7893 49.7842 11.608 50.0829 11.48ZM55.2729 12.264C55.0915 12.7227 55.0009 13.2027 55.0009 13.704C55.0009 14.248 55.0755 14.7547 55.2249 15.224C55.3849 15.6827 55.6089 16.0827 55.8969 16.424C56.1955 16.7547 56.5529 17.0107 56.9689 17.192C57.3849 17.384 57.8489 17.48 58.3609 17.48C58.9049 17.48 59.4009 17.3627 59.8489 17.128C60.2969 16.904 60.6809 16.6107 61.0009 16.248C61.3209 15.8747 61.5662 15.4533 61.7369 14.984C61.9182 14.504 62.0089 14.024 62.0089 13.544C62.0089 13.0747 61.9289 12.6213 61.7689 12.184C61.6195 11.7467 61.4062 11.3573 61.1289 11.016C60.8515 10.6747 60.5155 10.4027 60.1209 10.2C59.7369 9.99733 59.3102 9.896 58.8409 9.896C58.2755 9.896 57.7582 10.0027 57.2889 10.216C56.8195 10.4187 56.4142 10.696 56.0729 11.048C55.7315 11.4 55.4649 11.8053 55.2729 12.264ZM57.8329 11.48C58.1315 11.3413 58.4569 11.272 58.8089 11.272C59.1075 11.272 59.3742 11.3413 59.6089 11.48C59.8542 11.608 60.0569 11.7787 60.2169 11.992C60.3875 12.2053 60.5155 12.44 60.6009 12.696C60.6969 12.952 60.7449 13.208 60.7449 13.464C60.7449 13.784 60.6809 14.104 60.5529 14.424C60.4355 14.7333 60.2702 15.0107 60.0569 15.256C59.8542 15.5013 59.6089 15.704 59.3209 15.864C59.0435 16.0133 58.7502 16.088 58.4409 16.088C58.1315 16.088 57.8435 16.0187 57.5769 15.88C57.3209 15.7413 57.1022 15.56 56.9209 15.336C56.7395 15.112 56.5955 14.8667 56.4889 14.6C56.3929 14.3227 56.3449 14.0453 56.3449 13.768C56.3449 13.4373 56.4035 13.1227 56.5209 12.824C56.6489 12.5147 56.8249 12.248 57.0489 12.024C57.2729 11.7893 57.5342 11.608 57.8329 11.48ZM64.1269 8.76C64.1695 8.952 64.1909 9.21333 64.1909 9.544V10.248L63.1669 10.36L62.8469 10.392H62.5429C62.5109 10.4027 62.4735 10.4453 62.4309 10.52C62.3989 10.584 62.3775 10.648 62.3669 10.712C62.3669 10.7973 62.3989 10.8773 62.4629 10.952C62.5375 11.0267 62.6229 11.096 62.7189 11.16C62.8149 11.2133 62.9109 11.256 63.0069 11.288C63.1135 11.32 63.1989 11.336 63.2629 11.336H63.7429C63.8922 11.336 64.0415 11.3307 64.1909 11.32V13.336C64.1909 14.1147 64.2122 14.76 64.2549 15.272C64.2975 15.784 64.4469 16.2213 64.7029 16.584C64.8842 16.8507 65.1562 17.0587 65.5189 17.208C65.8922 17.3573 66.2815 17.4053 66.6869 17.352C66.8682 17.3307 67.0229 17.2827 67.1509 17.208C67.2895 17.144 67.3962 17.0747 67.4709 17C67.5562 16.9147 67.6149 16.8347 67.6469 16.76C67.6895 16.6853 67.7109 16.6267 67.7109 16.584C67.7109 16.5307 67.6789 16.4987 67.6149 16.488C67.5615 16.4667 67.4922 16.4613 67.4069 16.472C67.3322 16.472 67.2469 16.4773 67.1509 16.488C67.0655 16.4987 66.9855 16.504 66.9109 16.504C66.5909 16.504 66.3455 16.408 66.1749 16.216C66.0042 16.0133 65.8815 15.7573 65.8069 15.448C65.7322 15.128 65.6895 14.7813 65.6789 14.408C65.6682 14.024 65.6629 13.6453 65.6629 13.272V11.16L66.1589 11.112C66.4469 11.08 66.7455 11.064 67.0549 11.064C67.1295 11.064 67.2095 11.032 67.2949 10.968C67.3909 10.904 67.4762 10.8293 67.5509 10.744C67.6362 10.648 67.7002 10.552 67.7429 10.456C67.7962 10.3493 67.8229 10.2533 67.8229 10.168C67.8229 10.136 67.7962 10.104 67.7429 10.072C67.6895 10.0293 67.6255 9.99733 67.5509 9.976C67.4762 9.944 67.3962 9.92267 67.3109 9.912C67.2362 9.90133 67.1669 9.90133 67.1029 9.912C66.8575 9.95467 66.6175 9.99733 66.3829 10.04C66.1482 10.072 65.9082 10.104 65.6629 10.136V9.768V9.272C65.6735 9.12267 65.7055 8.952 65.7589 8.76C65.7589 8.632 65.7109 8.50933 65.6149 8.392C65.5829 8.328 65.4975 8.23733 65.3589 8.12C65.2202 7.992 65.0602 7.87467 64.8789 7.768C64.7082 7.65067 64.5375 7.56 64.3669 7.496C64.1962 7.42133 64.0682 7.40533 63.9829 7.448C63.9402 7.48 63.9029 7.528 63.8709 7.592C63.8389 7.656 63.8175 7.72533 63.8069 7.8C63.7962 7.87467 63.7909 7.94933 63.7909 8.024C63.8015 8.088 63.8229 8.136 63.8549 8.168C64.0042 8.37067 64.0949 8.568 64.1269 8.76ZM69.7374 20.28C69.716 20.3227 69.684 20.3707 69.6414 20.424L69.3854 20.744C69.3 20.8507 69.236 20.952 69.1934 21.048C69.1507 21.144 69.1614 21.2133 69.2254 21.256C69.3214 21.32 69.444 21.3413 69.5934 21.32C69.7534 21.3093 69.9134 21.272 70.0734 21.208C70.2334 21.144 70.3774 21.0693 70.5054 20.984C70.644 20.8987 70.74 20.8187 70.7934 20.744C70.996 20.4667 71.22 20.0933 71.4654 19.624C71.7214 19.1653 71.9774 18.6533 72.2334 18.088C72.4894 17.5333 72.74 16.9573 72.9854 16.36C73.2414 15.752 73.4814 15.1653 73.7054 14.6C73.9294 14.024 74.1267 13.4907 74.2974 13C74.468 12.5093 74.6014 12.104 74.6974 11.784C74.7827 11.5387 74.8574 11.304 74.9214 11.08C74.9854 10.856 74.964 10.616 74.8574 10.36C74.8254 10.2853 74.756 10.1787 74.6494 10.04C74.5427 9.89067 74.42 9.752 74.2814 9.624C74.1534 9.496 74.02 9.39467 73.8814 9.32C73.7427 9.23467 73.6254 9.21333 73.5294 9.256C73.444 9.288 73.38 9.37867 73.3374 9.528C73.3054 9.67733 73.2787 9.84267 73.2574 10.024C73.2467 10.1947 73.2467 10.36 73.2574 10.52C73.268 10.68 73.284 10.792 73.3054 10.856C73.2414 11.112 73.156 11.432 73.0494 11.816C72.9427 12.2 72.8254 12.6053 72.6974 13.032C72.5694 13.448 72.4307 13.8693 72.2814 14.296C72.132 14.712 71.9827 15.0907 71.8334 15.432C71.7374 14.92 71.5667 14.344 71.3214 13.704C71.076 13.064 70.788 12.44 70.4574 11.832C70.3934 11.704 70.244 11.5867 70.0094 11.48C69.7747 11.3733 69.5294 11.2933 69.2734 11.24C69.0174 11.1867 68.7827 11.16 68.5694 11.16C68.356 11.16 68.2387 11.1973 68.2174 11.272C68.196 11.336 68.2014 11.4053 68.2334 11.48C68.2654 11.5547 68.308 11.6347 68.3614 11.72C68.4254 11.7947 68.484 11.8693 68.5374 11.944C68.6014 12.008 68.6547 12.072 68.6974 12.136C68.836 12.328 68.9854 12.568 69.1454 12.856C69.316 13.144 69.4867 13.4533 69.6574 13.784C69.828 14.1147 69.9934 14.4507 70.1534 14.792C70.324 15.1333 70.4787 15.4533 70.6174 15.752C70.756 16.0507 70.8734 16.3173 70.9694 16.552C71.0654 16.776 71.1294 16.936 71.1614 17.032C71.108 17.2027 71.028 17.4213 70.9214 17.688C70.8147 17.9653 70.6974 18.2533 70.5694 18.552C70.4414 18.8507 70.308 19.144 70.1694 19.432C70.0307 19.7307 69.908 19.9813 69.8014 20.184C69.7907 20.2053 69.7694 20.2373 69.7374 20.28ZM75.7684 7.784C75.9284 7.816 76.099 7.832 76.2804 7.832H76.5844C76.595 8.408 76.6004 9.016 76.6004 9.656C76.6004 10.2853 76.595 10.9147 76.5844 11.544C76.5737 12.1627 76.563 12.7653 76.5524 13.352C76.5417 13.928 76.5257 14.44 76.5044 14.888C76.483 15.336 76.4617 15.6987 76.4404 15.976C76.4297 16.2533 76.419 16.4133 76.4084 16.456C76.3977 16.4773 76.387 16.5147 76.3764 16.568V16.68C76.3764 16.8507 76.4404 16.9787 76.5684 17.064C76.707 17.16 76.819 17.208 76.9044 17.208C77.0324 17.208 77.1444 17.1493 77.2404 17.032C77.347 16.9147 77.4377 16.7653 77.5124 16.584C77.587 16.392 77.651 16.1893 77.7044 15.976C77.7684 15.752 77.8164 15.544 77.8484 15.352C77.891 15.16 77.923 14.9947 77.9444 14.856C77.9657 14.7067 77.9817 14.6107 77.9924 14.568C78.0137 14.3653 78.0297 14.2053 78.0404 14.088C78.051 13.9707 78.0617 13.8587 78.0724 13.752C78.083 13.6453 78.0884 13.5333 78.0884 13.416V12.904L78.5524 12.712C78.6804 12.8933 78.8404 13.1867 79.0324 13.592C79.2244 13.9973 79.5124 14.488 79.8964 15.064C80.0457 15.2773 80.2217 15.512 80.4244 15.768C80.6377 16.0133 80.8617 16.248 81.0964 16.472C81.331 16.6853 81.571 16.8613 81.8164 17C82.0617 17.1493 82.3017 17.224 82.5364 17.224C82.6004 17.224 82.675 17.208 82.7604 17.176C82.8564 17.144 82.947 17.1067 83.0324 17.064C83.1284 17.0213 83.203 16.9733 83.2564 16.92C83.3204 16.8667 83.3524 16.8133 83.3524 16.76C83.3524 16.6853 83.3364 16.6053 83.3044 16.52C83.2724 16.4347 83.2137 16.3867 83.1284 16.376C82.915 16.344 82.707 16.248 82.5044 16.088C82.3124 15.928 82.1257 15.736 81.9444 15.512C81.7737 15.288 81.6137 15.0533 81.4644 14.808C81.3257 14.552 81.203 14.3173 81.0964 14.104C80.9364 13.7733 80.7497 13.4107 80.5364 13.016C80.323 12.6107 80.1044 12.2373 79.8804 11.896C80.0404 11.736 80.1844 11.5707 80.3124 11.4C80.451 11.2293 80.5844 11.048 80.7124 10.856C80.8404 10.664 80.9737 10.456 81.1124 10.232C81.251 9.99733 81.411 9.736 81.5924 9.448C81.827 9.07467 82.0244 8.71733 82.1844 8.376C82.3444 8.03467 82.4244 7.63467 82.4244 7.176C82.4244 7.09067 82.3977 7 82.3444 6.904C82.3017 6.808 82.211 6.76 82.0724 6.76C81.9764 6.76 81.8377 6.83467 81.6564 6.984C81.4857 7.13333 81.331 7.40533 81.1924 7.8C81.0964 7.94933 80.9684 8.152 80.8084 8.408C80.6484 8.664 80.4617 8.94133 80.2484 9.24C80.0457 9.528 79.8217 9.82667 79.5764 10.136C79.3417 10.4453 79.1017 10.728 78.8564 10.984C78.707 11.08 78.5737 11.1547 78.4564 11.208C78.3497 11.2613 78.227 11.3147 78.0884 11.368C78.0884 11.144 78.0937 10.8293 78.1044 10.424C78.1257 10.008 78.131 9.58133 78.1204 9.144C78.1204 8.696 78.099 8.28 78.0564 7.896C78.0137 7.512 77.939 7.24 77.8324 7.08C77.747 6.97333 77.651 6.86133 77.5444 6.744C77.4484 6.62667 77.3204 6.568 77.1604 6.568C76.915 6.568 76.6537 6.59467 76.3764 6.648C76.1097 6.69067 75.8697 6.77067 75.6564 6.888C75.6244 6.90933 75.5924 6.952 75.5604 7.016C75.539 7.06933 75.5177 7.13333 75.4964 7.208C75.475 7.272 75.459 7.34133 75.4484 7.416C75.4484 7.48 75.4537 7.53333 75.4644 7.576C75.5177 7.672 75.619 7.74133 75.7684 7.784ZM84.8522 10.84C84.8736 10.8507 84.8842 10.888 84.8842 10.952V15.048C84.8842 15.24 84.8896 15.48 84.9002 15.768C84.9109 16.056 84.9322 16.3387 84.9642 16.616C84.9962 16.8933 85.0389 17.128 85.0922 17.32C85.1456 17.5227 85.2202 17.624 85.3162 17.624C85.4229 17.624 85.5296 17.5387 85.6362 17.368C85.7536 17.1973 85.8496 16.984 85.9242 16.728C86.0096 16.4613 86.0789 16.1787 86.1322 15.88C86.1856 15.5707 86.2122 15.288 86.2122 15.032V10.12C86.2122 10.0773 86.2016 10.024 86.1802 9.96C86.1696 9.88533 86.1429 9.816 86.1002 9.752C86.0682 9.67733 86.0096 9.61333 85.9242 9.56C85.8496 9.50667 85.7482 9.48 85.6202 9.48C85.3642 9.46933 85.1242 9.48533 84.9002 9.528C84.6762 9.57067 84.4309 9.63467 84.1642 9.72C84.0896 9.74133 83.9936 9.784 83.8762 9.848C83.7589 9.90133 83.7002 9.96533 83.7002 10.04C83.7002 10.1467 83.7376 10.2533 83.8122 10.36C83.8869 10.456 83.9776 10.5307 84.0842 10.584C84.1589 10.616 84.2709 10.6533 84.4202 10.696C84.5696 10.728 84.6976 10.76 84.8042 10.792C84.8256 10.8027 84.8416 10.8187 84.8522 10.84ZM84.9002 8.536C85.1136 8.62133 85.2789 8.65333 85.3962 8.632C85.5882 8.61067 85.7536 8.49867 85.8922 8.296C86.0309 8.09333 86.1002 7.90133 86.1002 7.72C86.1002 7.624 86.0629 7.53333 85.9882 7.448C85.9136 7.36267 85.8176 7.288 85.7002 7.224C85.5936 7.14933 85.4709 7.096 85.3322 7.064C85.2042 7.02133 85.0762 7 84.9482 7C84.8309 7 84.7189 7.04267 84.6122 7.128C84.5162 7.21333 84.4362 7.32 84.3722 7.448C84.3189 7.56533 84.2869 7.69333 84.2762 7.832C84.2762 7.96 84.3189 8.072 84.4042 8.168C84.5322 8.31733 84.6976 8.44 84.9002 8.536ZM92.4482 7.592C92.4696 7.60267 92.4802 7.64533 92.4802 7.72V10.696C92.2989 10.472 92.0589 10.3013 91.7602 10.184C91.4616 10.056 91.1789 9.992 90.9122 9.992C90.3576 9.992 89.8616 10.104 89.4242 10.328C88.9976 10.552 88.6349 10.8507 88.3362 11.224C88.0376 11.5973 87.8082 12.0293 87.6482 12.52C87.4882 13.0107 87.4082 13.5227 87.4082 14.056C87.4082 14.6853 87.4936 15.2293 87.6642 15.688C87.8349 16.136 88.0642 16.5093 88.3522 16.808C88.6402 17.1067 88.9709 17.3253 89.3442 17.464C89.7282 17.6133 90.1282 17.688 90.5442 17.688C90.8002 17.688 91.0456 17.6187 91.2802 17.48C91.5149 17.3413 91.7176 17.1867 91.8882 17.016C92.0589 16.8453 92.1816 16.68 92.2562 16.52C92.3309 16.36 92.3309 16.264 92.2562 16.232C92.2136 16.2107 92.1389 16.216 92.0322 16.248C91.9362 16.2693 91.8296 16.3013 91.7122 16.344C91.5949 16.3867 91.4722 16.4293 91.3442 16.472C91.2269 16.5147 91.1256 16.5467 91.0402 16.568C90.6029 16.696 90.2509 16.7013 89.9842 16.584C89.7176 16.4667 89.5042 16.28 89.3442 16.024C89.1949 15.7573 89.0936 15.4427 89.0402 15.08C88.9869 14.7067 88.9602 14.3333 88.9602 13.96C88.9496 13.4267 89.0082 13 89.1362 12.68C89.2749 12.3493 89.4456 12.0933 89.6482 11.912C89.8616 11.7307 90.0856 11.608 90.3202 11.544C90.5656 11.48 90.7949 11.4427 91.0082 11.432C91.3069 11.4107 91.5842 11.4587 91.8402 11.576C92.1069 11.6933 92.3202 11.8107 92.4802 11.928V15.336C92.4802 15.784 92.5069 16.152 92.5602 16.44C92.6242 16.728 92.6989 16.9573 92.7842 17.128C92.8802 17.3093 92.9816 17.4427 93.0882 17.528C93.2056 17.624 93.3229 17.6987 93.4402 17.752C93.4829 17.7733 93.5736 17.7947 93.7122 17.816C93.8616 17.8373 94.0056 17.848 94.1442 17.848C94.2936 17.848 94.4216 17.832 94.5282 17.8C94.6456 17.768 94.6989 17.704 94.6882 17.608C94.6882 17.576 94.6616 17.544 94.6082 17.512C94.5656 17.48 94.5122 17.4373 94.4482 17.384C94.3842 17.3413 94.3149 17.2827 94.2402 17.208C94.1656 17.144 94.0962 17.0587 94.0322 16.952C93.9789 16.8347 93.9416 16.6693 93.9202 16.456C93.9096 16.232 93.9042 16.04 93.9042 15.88V6.936C93.9042 6.89333 93.8882 6.83467 93.8562 6.76C93.8242 6.68533 93.7816 6.616 93.7282 6.552C93.6749 6.47733 93.6162 6.41333 93.5522 6.36C93.4882 6.30667 93.4242 6.28 93.3602 6.28C93.2642 6.28 93.1469 6.28533 93.0082 6.296C92.8696 6.30667 92.7256 6.32267 92.5762 6.344C92.4269 6.36533 92.2776 6.392 92.1282 6.424C91.9896 6.456 91.8669 6.49333 91.7602 6.536C91.6856 6.55733 91.5896 6.60533 91.4722 6.68C91.3549 6.744 91.2962 6.81333 91.2962 6.888C91.2962 6.94133 91.3389 7.02133 91.4242 7.128C91.5096 7.224 91.6109 7.29867 91.7282 7.352C91.9309 7.448 92.1389 7.512 92.3522 7.544C92.4056 7.55467 92.4376 7.57067 92.4482 7.592ZM96.0962 11.112C95.9469 11.3147 95.8669 11.544 95.8562 11.8C95.8349 12.12 95.8829 12.3973 96.0002 12.632C96.1176 12.856 96.2776 13.0533 96.4802 13.224C96.6829 13.3947 96.9229 13.544 97.2002 13.672C97.4776 13.7893 97.7709 13.896 98.0802 13.992C98.2189 14.0347 98.3842 14.0933 98.5762 14.168C98.7789 14.2427 98.9656 14.3387 99.1362 14.456C99.3069 14.5627 99.4456 14.6907 99.5522 14.84C99.6589 14.9893 99.6962 15.1547 99.6642 15.336C99.6322 15.5173 99.4989 15.6827 99.2642 15.832C99.0296 15.9707 98.7416 16.0347 98.4002 16.024C98.1122 16.0133 97.8136 15.9493 97.5042 15.832C97.1949 15.704 96.9549 15.512 96.7842 15.256C96.6562 15.064 96.5442 14.9093 96.4482 14.792C96.3629 14.6747 96.2669 14.6267 96.1602 14.648C96.0536 14.6693 95.9682 14.7333 95.9042 14.84C95.8509 14.936 95.8136 15.0533 95.7922 15.192C95.7816 15.32 95.7922 15.4587 95.8242 15.608C95.8562 15.7573 95.9042 15.8853 95.9682 15.992C96.2029 16.4187 96.5442 16.744 96.9922 16.968C97.4509 17.192 97.9469 17.304 98.4802 17.304C98.7789 17.304 99.0722 17.256 99.3602 17.16C99.6482 17.0747 99.9042 16.9467 100.128 16.776C100.363 16.6053 100.555 16.4027 100.704 16.168C100.854 15.9333 100.939 15.6773 100.96 15.4C100.982 14.9307 100.891 14.5413 100.688 14.232C100.496 13.9227 100.23 13.6667 99.8882 13.464C99.5789 13.2827 99.2322 13.128 98.8482 13C98.4749 12.8613 98.1016 12.712 97.7282 12.552C97.5896 12.488 97.4616 12.3973 97.3442 12.28C97.2376 12.152 97.1949 11.9973 97.2162 11.816C97.2376 11.6667 97.3656 11.5493 97.6002 11.464C97.8349 11.3787 98.1549 11.352 98.5602 11.384C98.7629 11.4053 98.9549 11.432 99.1362 11.464C99.3176 11.496 99.5416 11.5653 99.8082 11.672C99.9042 11.7147 100.006 11.72 100.112 11.688C100.219 11.656 100.315 11.6133 100.4 11.56C100.496 11.5067 100.576 11.448 100.64 11.384C100.704 11.3093 100.742 11.2507 100.752 11.208C100.784 11.112 100.747 11.0107 100.64 10.904C100.534 10.7973 100.438 10.7173 100.352 10.664C100.107 10.5147 99.8029 10.392 99.4402 10.296C99.0882 10.1893 98.7416 10.136 98.4002 10.136C98.0909 10.136 97.7869 10.1733 97.4882 10.248C97.1896 10.3227 96.9176 10.4347 96.6722 10.584C96.4376 10.7227 96.2456 10.8987 96.0962 11.112ZM40.6755 25.056C40.5582 25.0453 40.4301 25.008 40.2915 24.944C40.1528 24.8693 40.0248 24.784 39.9075 24.688C39.8008 24.592 39.7155 24.4907 39.6515 24.384C39.5875 24.2667 39.5768 24.1493 39.6195 24.032C39.6515 23.9467 39.7635 23.92 39.9555 23.952C40.1581 23.9733 40.3982 23.9893 40.6755 24C40.9955 24.0107 41.3582 24.0053 41.7635 23.984C42.1688 23.9627 42.5848 23.936 43.0115 23.904C43.4488 23.872 43.8808 23.8347 44.3075 23.792C44.7448 23.7387 45.1448 23.6853 45.5075 23.632C45.5821 23.6213 45.6782 23.6267 45.7955 23.648C45.9128 23.6693 46.0248 23.7013 46.1315 23.744C46.2382 23.776 46.3288 23.8187 46.4035 23.872C46.4888 23.9253 46.5315 23.984 46.5315 24.048C46.5315 24.112 46.5048 24.192 46.4515 24.288C46.3982 24.384 46.3235 24.4853 46.2275 24.592C46.1315 24.688 46.0141 24.7787 45.8755 24.864C45.7368 24.9493 45.5875 25.0027 45.4275 25.024C45.1502 25.0667 44.8835 25.104 44.6275 25.136C44.3821 25.1573 44.1315 25.1733 43.8755 25.184C43.6195 25.1947 43.3528 25.2053 43.0755 25.216H42.1635C42.1741 25.7067 42.1848 26.1867 42.1955 26.656C42.2062 27.1253 42.2008 27.5467 42.1795 27.92C42.4995 27.9093 42.7875 27.8987 43.0435 27.888C43.3102 27.8667 43.5662 27.8507 43.8115 27.84L44.5475 27.776C44.8035 27.7547 45.0755 27.728 45.3635 27.696C45.4275 27.6853 45.5128 27.6747 45.6195 27.664C45.7262 27.6427 45.8328 27.632 45.9395 27.632C46.0568 27.6213 46.1635 27.6267 46.2595 27.648C46.3555 27.6693 46.4142 27.7173 46.4355 27.792C46.4781 27.92 46.4622 28.0693 46.3875 28.24C46.3128 28.4107 46.2062 28.576 46.0675 28.736C45.9395 28.8853 45.7955 29.0133 45.6355 29.12C45.4755 29.2267 45.3422 29.28 45.2355 29.28H42.1795C42.1795 29.632 42.1688 30.0213 42.1475 30.448C42.1368 30.8747 42.1101 31.2587 42.0675 31.6C42.0248 31.9733 41.9501 32.3253 41.8435 32.656C41.7475 32.976 41.6408 33.2587 41.5235 33.504C41.4062 33.7493 41.2888 33.9413 41.1715 34.08C41.0541 34.2293 40.9528 34.304 40.8675 34.304C40.7928 34.304 40.6968 34.2347 40.5795 34.096C40.4622 33.968 40.4035 33.8293 40.4035 33.68C40.4035 33.6693 40.4195 33.6 40.4515 33.472C40.4835 33.344 40.5048 33.2427 40.5155 33.168C40.5475 32.912 40.5742 32.6827 40.5955 32.48C40.6168 32.2773 40.6328 32.0747 40.6435 31.872C40.6541 31.6693 40.6595 31.456 40.6595 31.232C40.6702 30.9973 40.6755 30.7253 40.6755 30.416V25.056ZM47.2509 30.704C47.2509 30.2027 47.3415 29.7227 47.5229 29.264C47.7149 28.8053 47.9815 28.4 48.3229 28.048C48.6642 27.696 49.0695 27.4187 49.5389 27.216C50.0082 27.0027 50.5255 26.896 51.0909 26.896C51.5602 26.896 51.9869 26.9973 52.3709 27.2C52.7655 27.4027 53.1015 27.6747 53.3789 28.016C53.6562 28.3573 53.8695 28.7467 54.0189 29.184C54.1789 29.6213 54.2589 30.0747 54.2589 30.544C54.2589 31.024 54.1682 31.504 53.9869 31.984C53.8162 32.4533 53.5709 32.8747 53.2509 33.248C52.9309 33.6107 52.5469 33.904 52.0989 34.128C51.6509 34.3627 51.1549 34.48 50.6109 34.48C50.0989 34.48 49.6349 34.384 49.2189 34.192C48.8029 34.0107 48.4455 33.7547 48.1469 33.424C47.8589 33.0827 47.6349 32.6827 47.4749 32.224C47.3255 31.7547 47.2509 31.248 47.2509 30.704ZM51.0589 28.272C50.7069 28.272 50.3815 28.3413 50.0829 28.48C49.7842 28.608 49.5229 28.7893 49.2989 29.024C49.0749 29.248 48.8989 29.5147 48.7709 29.824C48.6535 30.1227 48.5949 30.4373 48.5949 30.768C48.5949 31.0453 48.6429 31.3227 48.7389 31.6C48.8455 31.8667 48.9895 32.112 49.1709 32.336C49.3522 32.56 49.5709 32.7413 49.8269 32.88C50.0935 33.0187 50.3815 33.088 50.6909 33.088C51.0002 33.088 51.2935 33.0133 51.5709 32.864C51.8589 32.704 52.1042 32.5013 52.3069 32.256C52.5202 32.0107 52.6855 31.7333 52.8029 31.424C52.9309 31.104 52.9949 30.784 52.9949 30.464C52.9949 30.208 52.9469 29.952 52.8509 29.696C52.7655 29.44 52.6375 29.2053 52.4669 28.992C52.3069 28.7787 52.1042 28.608 51.8589 28.48C51.6242 28.3413 51.3575 28.272 51.0589 28.272ZM60.3769 27.376C60.4835 27.472 60.5742 27.584 60.6489 27.712C60.7235 27.8293 60.7769 27.9467 60.8089 28.064C60.8409 28.1813 60.8462 28.288 60.8249 28.384C60.8142 28.4693 60.7769 28.528 60.7129 28.56C60.6275 28.6027 60.4995 28.576 60.3289 28.48C60.1689 28.3733 60.0035 28.2773 59.8329 28.192C59.7262 28.1387 59.5502 28.0747 59.3049 28C59.0702 27.9253 58.8089 27.8987 58.5209 27.92C57.9449 27.9733 57.5075 28.256 57.2089 28.768C56.9102 29.2693 56.7715 29.904 56.7929 30.672C56.8035 31.0133 56.8515 31.344 56.9369 31.664C57.0222 31.9733 57.1449 32.2507 57.3049 32.496C57.4755 32.7413 57.6835 32.9387 57.9289 33.088C58.1849 33.2267 58.4835 33.2907 58.8249 33.28C59.2195 33.2693 59.5662 33.2107 59.8649 33.104C60.1742 32.9973 60.4462 32.8693 60.6809 32.72C60.7555 32.6773 60.8355 32.6293 60.9209 32.576C61.0169 32.5227 61.1022 32.48 61.1769 32.448C61.2622 32.4053 61.3315 32.3787 61.3849 32.368C61.4489 32.3573 61.4969 32.368 61.5289 32.4C61.5609 32.4533 61.5662 32.5227 61.5449 32.608C61.5235 32.6933 61.4862 32.784 61.4329 32.88C61.3902 32.976 61.3369 33.0667 61.2729 33.152C61.2089 33.2373 61.1502 33.312 61.0969 33.376C60.7982 33.696 60.4302 33.9413 59.9929 34.112C59.5555 34.2827 59.0969 34.368 58.6169 34.368C58.0942 34.368 57.6249 34.272 57.2089 34.08C56.7929 33.888 56.4355 33.6267 56.1369 33.296C55.8489 32.9653 55.6249 32.576 55.4649 32.128C55.3049 31.68 55.2195 31.2053 55.2089 30.704C55.1982 30.2133 55.2569 29.7387 55.3849 29.28C55.5235 28.8107 55.7262 28.3947 55.9929 28.032C56.2595 27.6693 56.5795 27.376 56.9529 27.152C57.3369 26.9173 57.7689 26.784 58.2489 26.752C58.5049 26.7307 58.7449 26.7413 58.9689 26.784C59.1929 26.816 59.3902 26.8693 59.5609 26.944C59.7422 27.008 59.9022 27.0827 60.0409 27.168C60.1795 27.2427 60.2915 27.312 60.3769 27.376ZM64.2702 30.24C64.2702 30.5707 64.2756 30.8907 64.2862 31.2C64.3076 31.4987 64.3556 31.7707 64.4302 32.016C64.5156 32.2507 64.6382 32.448 64.7982 32.608C64.9582 32.7573 65.1769 32.848 65.4542 32.88C65.6462 32.9013 65.8382 32.8907 66.0302 32.848C66.2329 32.8053 66.4142 32.7467 66.5742 32.672C66.6169 32.6613 66.6916 32.6293 66.7982 32.576C66.9156 32.5227 67.0329 32.48 67.1502 32.448L67.3742 32.384V27.552C67.2249 27.456 67.0969 27.3387 66.9902 27.2C66.8836 27.0613 66.8089 26.9013 66.7662 26.72C66.7556 26.6773 66.7502 26.624 66.7502 26.56C66.7502 26.4853 66.7556 26.416 66.7662 26.352C66.7769 26.288 66.7929 26.2347 66.8142 26.192C66.8462 26.1387 66.8889 26.112 66.9422 26.112C66.9956 26.112 67.0596 26.1227 67.1342 26.144C67.2089 26.1653 67.2782 26.1867 67.3422 26.208C67.4916 26.2613 67.6782 26.3413 67.9022 26.448C68.1369 26.5547 68.3236 26.656 68.4622 26.752C68.5582 26.8267 68.6276 26.9173 68.6702 27.024C68.7236 27.12 68.7502 27.248 68.7502 27.408V32.864C68.7502 33.0027 68.7662 33.1467 68.7982 33.296C68.8409 33.4347 68.8889 33.5573 68.9422 33.664C69.0062 33.8133 69.0596 33.9467 69.1022 34.064C69.1556 34.192 69.1502 34.2827 69.0862 34.336C69.0542 34.368 69.0009 34.384 68.9262 34.384C68.8516 34.384 68.7662 34.3733 68.6702 34.352C68.5742 34.3413 68.4782 34.32 68.3822 34.288C68.2969 34.2667 68.2222 34.24 68.1582 34.208C67.8916 34.0693 67.6889 33.888 67.5502 33.664C67.5289 33.6213 67.5076 33.584 67.4862 33.552C67.4756 33.5093 67.4596 33.4667 67.4382 33.424L67.2302 33.616C67.0062 33.8293 66.7236 34.0107 66.3822 34.16C66.0516 34.32 65.6942 34.4 65.3102 34.4C64.5742 34.4 63.9822 34.1333 63.5342 33.6C63.0862 33.056 62.8516 32.208 62.8302 31.056C62.8302 30.8213 62.8356 30.56 62.8462 30.272C62.8569 29.984 62.8569 29.6907 62.8462 29.392C62.8462 29.0933 62.8302 28.8 62.7982 28.512C62.7769 28.2133 62.7289 27.9413 62.6542 27.696C62.6329 27.632 62.6009 27.5627 62.5582 27.488C62.5262 27.4027 62.4942 27.3227 62.4622 27.248C62.4409 27.1733 62.4302 27.104 62.4302 27.04C62.4302 26.9653 62.4569 26.9067 62.5102 26.864C62.5529 26.832 62.6169 26.8213 62.7022 26.832C62.7876 26.832 62.8782 26.848 62.9742 26.88C63.0702 26.9013 63.1609 26.928 63.2462 26.96C63.3422 26.992 63.4116 27.024 63.4542 27.056C63.6249 27.1627 63.7636 27.3013 63.8702 27.472C63.9769 27.632 64.0569 27.8133 64.1102 28.016C64.1742 28.2187 64.2169 28.4373 64.2382 28.672C64.2596 28.9067 64.2702 29.1413 64.2702 29.376V30.24ZM70.7 28.8C70.7106 28.544 70.7906 28.3147 70.94 28.112C71.0893 27.8987 71.2813 27.7227 71.516 27.584C71.7613 27.4347 72.0333 27.3227 72.332 27.248C72.6307 27.1733 72.9346 27.136 73.244 27.136C73.5853 27.136 73.932 27.1893 74.284 27.296C74.6467 27.392 74.9507 27.5147 75.196 27.664C75.2813 27.7173 75.3773 27.7973 75.484 27.904C75.5907 28.0107 75.628 28.112 75.596 28.208C75.5853 28.2507 75.548 28.3093 75.484 28.384C75.42 28.448 75.34 28.5067 75.244 28.56C75.1587 28.6133 75.0627 28.656 74.956 28.688C74.8493 28.72 74.748 28.7147 74.652 28.672C74.3853 28.5653 74.1613 28.496 73.98 28.464C73.7987 28.432 73.6067 28.4053 73.404 28.384C72.9986 28.352 72.6786 28.3787 72.444 28.464C72.2093 28.5493 72.0813 28.6667 72.06 28.816C72.0387 28.9973 72.0813 29.152 72.188 29.28C72.3053 29.3973 72.4333 29.488 72.572 29.552C72.9453 29.712 73.3186 29.8613 73.692 30C74.076 30.128 74.4227 30.2827 74.732 30.464C75.0733 30.6667 75.34 30.9227 75.532 31.232C75.7346 31.5413 75.8253 31.9307 75.804 32.4C75.7827 32.6773 75.6973 32.9333 75.548 33.168C75.3987 33.4027 75.2066 33.6053 74.972 33.776C74.748 33.9467 74.492 34.0747 74.204 34.16C73.916 34.256 73.6227 34.304 73.324 34.304C72.7906 34.304 72.2946 34.192 71.836 33.968C71.388 33.744 71.0467 33.4187 70.812 32.992C70.748 32.8853 70.7 32.7573 70.668 32.608C70.636 32.4587 70.6253 32.32 70.636 32.192C70.6573 32.0533 70.6946 31.936 70.748 31.84C70.812 31.7333 70.8973 31.6693 71.004 31.648C71.1106 31.6267 71.2066 31.6747 71.292 31.792C71.388 31.9093 71.5 32.064 71.628 32.256C71.7987 32.512 72.0387 32.704 72.348 32.832C72.6573 32.9493 72.956 33.0133 73.244 33.024C73.5853 33.0347 73.8733 32.9707 74.108 32.832C74.3427 32.6827 74.476 32.5173 74.508 32.336C74.54 32.1547 74.5026 31.9893 74.396 31.84C74.2893 31.6907 74.1507 31.5627 73.98 31.456C73.8093 31.3387 73.6227 31.2427 73.42 31.168C73.228 31.0933 73.0627 31.0347 72.924 30.992C72.6146 30.896 72.3213 30.7893 72.044 30.672C71.7666 30.544 71.5266 30.3947 71.324 30.224C71.1213 30.0533 70.9613 29.856 70.844 29.632C70.7266 29.3973 70.6786 29.12 70.7 28.8ZM77.488 25.056C77.3707 25.0453 77.2427 25.008 77.104 24.944C76.9653 24.8693 76.8373 24.784 76.72 24.688C76.6133 24.592 76.528 24.4907 76.464 24.384C76.4 24.2667 76.3893 24.1493 76.432 24.032C76.464 23.9467 76.576 23.92 76.768 23.952C76.9706 23.9733 77.2106 23.9893 77.488 24C77.808 24.0107 78.1706 24.0053 78.576 23.984C78.9813 23.9627 79.3973 23.936 79.824 23.904C80.2613 23.872 80.6933 23.8347 81.12 23.792C81.5573 23.7387 81.9573 23.6853 82.32 23.632C82.3947 23.6213 82.4906 23.6267 82.608 23.648C82.7253 23.6693 82.8373 23.7013 82.944 23.744C83.0507 23.776 83.1413 23.8187 83.216 23.872C83.3013 23.9253 83.344 23.984 83.344 24.048C83.344 24.112 83.3173 24.192 83.264 24.288C83.2106 24.384 83.136 24.4853 83.04 24.592C82.944 24.688 82.8267 24.7787 82.688 24.864C82.5493 24.9493 82.4 25.0027 82.24 25.024C81.9626 25.0667 81.696 25.104 81.44 25.136C81.1946 25.1573 80.944 25.1733 80.688 25.184C80.432 25.1947 80.1653 25.2053 79.888 25.216H78.976C78.9866 25.7067 78.9973 26.1867 79.008 26.656C79.0187 27.1253 79.0133 27.5467 78.992 27.92C79.312 27.9093 79.6 27.8987 79.856 27.888C80.1227 27.8667 80.3786 27.8507 80.624 27.84L81.36 27.776C81.616 27.7547 81.888 27.728 82.176 27.696C82.24 27.6853 82.3253 27.6747 82.432 27.664C82.5387 27.6427 82.6453 27.632 82.752 27.632C82.8693 27.6213 82.976 27.6267 83.072 27.648C83.168 27.6693 83.2266 27.7173 83.248 27.792C83.2906 27.92 83.2747 28.0693 83.2 28.24C83.1253 28.4107 83.0187 28.576 82.88 28.736C82.752 28.8853 82.608 29.0133 82.448 29.12C82.288 29.2267 82.1546 29.28 82.048 29.28H78.992C78.992 29.632 78.9813 30.0213 78.96 30.448C78.9493 30.8747 78.9227 31.2587 78.88 31.6C78.8373 31.9733 78.7626 32.3253 78.656 32.656C78.56 32.976 78.4533 33.2587 78.336 33.504C78.2187 33.7493 78.1013 33.9413 77.984 34.08C77.8667 34.2293 77.7653 34.304 77.68 34.304C77.6053 34.304 77.5093 34.2347 77.392 34.096C77.2747 33.968 77.216 33.8293 77.216 33.68C77.216 33.6693 77.232 33.6 77.264 33.472C77.296 33.344 77.3173 33.2427 77.328 33.168C77.36 32.912 77.3867 32.6827 77.408 32.48C77.4293 32.2773 77.4453 32.0747 77.456 31.872C77.4667 31.6693 77.472 31.456 77.472 31.232C77.4827 30.9973 77.488 30.7253 77.488 30.416V25.056ZM84.0634 30.704C84.0634 30.2027 84.154 29.7227 84.3354 29.264C84.5274 28.8053 84.794 28.4 85.1354 28.048C85.4767 27.696 85.882 27.4187 86.3514 27.216C86.8207 27.0027 87.338 26.896 87.9034 26.896C88.3727 26.896 88.7994 26.9973 89.1834 27.2C89.578 27.4027 89.914 27.6747 90.1914 28.016C90.4687 28.3573 90.682 28.7467 90.8314 29.184C90.9914 29.6213 91.0714 30.0747 91.0714 30.544C91.0714 31.024 90.9807 31.504 90.7994 31.984C90.6287 32.4533 90.3834 32.8747 90.0634 33.248C89.7434 33.6107 89.3594 33.904 88.9114 34.128C88.4634 34.3627 87.9674 34.48 87.4234 34.48C86.9114 34.48 86.4474 34.384 86.0314 34.192C85.6154 34.0107 85.258 33.7547 84.9594 33.424C84.6714 33.0827 84.4474 32.6827 84.2874 32.224C84.138 31.7547 84.0634 31.248 84.0634 30.704ZM87.8714 28.272C87.5194 28.272 87.194 28.3413 86.8954 28.48C86.5967 28.608 86.3354 28.7893 86.1114 29.024C85.8874 29.248 85.7114 29.5147 85.5834 29.824C85.466 30.1227 85.4074 30.4373 85.4074 30.768C85.4074 31.0453 85.4554 31.3227 85.5514 31.6C85.658 31.8667 85.802 32.112 85.9834 32.336C86.1647 32.56 86.3834 32.7413 86.6394 32.88C86.906 33.0187 87.194 33.088 87.5034 33.088C87.8127 33.088 88.106 33.0133 88.3834 32.864C88.6714 32.704 88.9167 32.5013 89.1194 32.256C89.3327 32.0107 89.498 31.7333 89.6154 31.424C89.7434 31.104 89.8074 30.784 89.8074 30.464C89.8074 30.208 89.7594 29.952 89.6634 29.696C89.578 29.44 89.45 29.2053 89.2794 28.992C89.1194 28.7787 88.9167 28.608 88.6714 28.48C88.4367 28.3413 88.17 28.272 87.8714 28.272ZM91.8134 30.704C91.8134 30.2027 91.904 29.7227 92.0854 29.264C92.2774 28.8053 92.544 28.4 92.8854 28.048C93.2267 27.696 93.632 27.4187 94.1014 27.216C94.5707 27.0027 95.088 26.896 95.6534 26.896C96.1227 26.896 96.5494 26.9973 96.9334 27.2C97.328 27.4027 97.664 27.6747 97.9414 28.016C98.2187 28.3573 98.432 28.7467 98.5814 29.184C98.7414 29.6213 98.8214 30.0747 98.8214 30.544C98.8214 31.024 98.7307 31.504 98.5494 31.984C98.3787 32.4533 98.1334 32.8747 97.8134 33.248C97.4934 33.6107 97.1094 33.904 96.6614 34.128C96.2134 34.3627 95.7174 34.48 95.1734 34.48C94.6614 34.48 94.1974 34.384 93.7814 34.192C93.3654 34.0107 93.008 33.7547 92.7094 33.424C92.4214 33.0827 92.1974 32.6827 92.0374 32.224C91.888 31.7547 91.8134 31.248 91.8134 30.704ZM95.6214 28.272C95.2694 28.272 94.944 28.3413 94.6454 28.48C94.3467 28.608 94.0854 28.7893 93.8614 29.024C93.6374 29.248 93.4614 29.5147 93.3334 29.824C93.216 30.1227 93.1574 30.4373 93.1574 30.768C93.1574 31.0453 93.2054 31.3227 93.3014 31.6C93.408 31.8667 93.552 32.112 93.7334 32.336C93.9147 32.56 94.1334 32.7413 94.3894 32.88C94.656 33.0187 94.944 33.088 95.2534 33.088C95.5627 33.088 95.856 33.0133 96.1334 32.864C96.4214 32.704 96.6667 32.5013 96.8694 32.256C97.0827 32.0107 97.248 31.7333 97.3654 31.424C97.4934 31.104 97.5574 30.784 97.5574 30.464C97.5574 30.208 97.5094 29.952 97.4134 29.696C97.328 29.44 97.2 29.2053 97.0294 28.992C96.8694 28.7787 96.6667 28.608 96.4214 28.48C96.1867 28.3413 95.92 28.272 95.6214 28.272ZM101.003 26.544C101.003 26.2133 100.982 25.952 100.939 25.76C100.907 25.568 100.817 25.3707 100.667 25.168C100.635 25.136 100.614 25.088 100.603 25.024C100.603 24.9493 100.609 24.8747 100.619 24.8C100.63 24.7253 100.651 24.656 100.683 24.592C100.715 24.528 100.753 24.48 100.795 24.448C100.881 24.4053 101.009 24.4213 101.179 24.496C101.35 24.56 101.521 24.6507 101.691 24.768C101.873 24.8747 102.033 24.992 102.171 25.12C102.31 25.2373 102.395 25.328 102.427 25.392C102.523 25.5093 102.571 25.632 102.571 25.76C102.518 25.952 102.486 26.1227 102.475 26.272V26.768V27.136C102.721 27.104 102.961 27.072 103.195 27.04C103.43 26.9973 103.67 26.9547 103.915 26.912C103.979 26.9013 104.049 26.9013 104.123 26.912C104.209 26.9227 104.289 26.944 104.363 26.976C104.438 26.9973 104.502 27.0293 104.555 27.072C104.609 27.104 104.635 27.136 104.635 27.168C104.635 27.2533 104.609 27.3493 104.555 27.456C104.513 27.552 104.449 27.648 104.363 27.744C104.289 27.8293 104.203 27.904 104.107 27.968C104.022 28.032 103.942 28.064 103.867 28.064C103.558 28.064 103.259 28.08 102.971 28.112L102.475 28.16V30.272C102.475 30.6453 102.481 31.024 102.491 31.408C102.502 31.7813 102.545 32.128 102.619 32.448C102.694 32.7573 102.817 33.0133 102.987 33.216C103.158 33.408 103.403 33.504 103.723 33.504C103.798 33.504 103.878 33.4987 103.963 33.488C104.059 33.4773 104.145 33.472 104.219 33.472C104.305 33.4613 104.374 33.4667 104.427 33.488C104.491 33.4987 104.523 33.5307 104.523 33.584C104.523 33.6267 104.502 33.6853 104.459 33.76C104.427 33.8347 104.369 33.9147 104.283 34C104.209 34.0747 104.102 34.144 103.963 34.208C103.835 34.2827 103.681 34.3307 103.499 34.352C103.094 34.4053 102.705 34.3573 102.331 34.208C101.969 34.0587 101.697 33.8507 101.515 33.584C101.259 33.2213 101.11 32.784 101.067 32.272C101.025 31.76 101.003 31.1147 101.003 30.336V28.32C100.854 28.3307 100.705 28.336 100.555 28.336H100.075C100.011 28.336 99.926 28.32 99.8194 28.288C99.7234 28.256 99.6274 28.2133 99.5314 28.16C99.4354 28.096 99.35 28.0267 99.2754 27.952C99.2114 27.8773 99.1794 27.7973 99.1794 27.712C99.19 27.648 99.2114 27.584 99.2434 27.52C99.286 27.4453 99.3234 27.4027 99.3554 27.392H99.6594L99.9794 27.36L101.003 27.248V26.544ZM106.39 24.464C106.251 24.4427 106.065 24.4267 105.83 24.416C105.595 24.3947 105.419 24.3733 105.302 24.352C105.153 24.3093 105.03 24.2347 104.934 24.128C104.849 24.0107 104.806 23.9307 104.806 23.888C104.806 23.792 104.897 23.6853 105.078 23.568C105.27 23.44 105.483 23.3227 105.718 23.216C105.953 23.1093 106.182 23.024 106.406 22.96C106.63 22.8853 106.779 22.848 106.854 22.848C106.95 22.848 107.057 22.8747 107.174 22.928C107.291 22.9707 107.398 23.0293 107.494 23.104C107.601 23.168 107.691 23.2427 107.766 23.328C107.841 23.4133 107.878 23.488 107.878 23.552V28.4C107.878 29.3173 107.846 30.1173 107.782 30.8C107.729 31.4827 107.659 32.0267 107.574 32.432L107.446 32.88C107.51 32.9013 107.601 32.928 107.718 32.96C107.835 32.992 107.963 33.024 108.102 33.056C108.251 33.088 108.406 33.1147 108.566 33.136C108.726 33.1467 108.886 33.1413 109.046 33.12C109.387 33.088 109.691 33.0027 109.958 32.864C110.225 32.7253 110.449 32.5547 110.63 32.352C110.822 32.1387 110.966 31.8987 111.062 31.632C111.158 31.3547 111.206 31.072 111.206 30.784C111.206 30.0373 111.094 29.4667 110.87 29.072C110.646 28.6667 110.358 28.3947 110.006 28.256C109.825 28.1813 109.627 28.144 109.414 28.144C109.211 28.1333 108.998 28.1493 108.774 28.192C108.731 28.2027 108.678 28.192 108.614 28.16C108.561 28.1173 108.507 28.0693 108.454 28.016C108.401 27.9627 108.353 27.904 108.31 27.84C108.278 27.776 108.262 27.7173 108.262 27.664C108.262 27.6 108.315 27.536 108.422 27.472C108.539 27.408 108.683 27.3493 108.854 27.296C109.025 27.2427 109.206 27.2 109.398 27.168C109.601 27.136 109.782 27.1253 109.942 27.136C110.465 27.168 110.913 27.312 111.286 27.568C111.67 27.8133 111.979 28.1227 112.214 28.496C112.449 28.8693 112.614 29.2853 112.71 29.744C112.806 30.2027 112.843 30.6453 112.822 31.072C112.801 31.52 112.689 31.9413 112.486 32.336C112.283 32.72 112.022 33.056 111.702 33.344C111.382 33.632 111.009 33.856 110.582 34.016C110.166 34.176 109.723 34.256 109.254 34.256C108.881 34.256 108.502 34.2027 108.118 34.096C107.745 33.9893 107.425 33.8453 107.158 33.664C107.126 33.728 107.083 33.7973 107.03 33.872C106.987 33.9467 106.939 34.016 106.886 34.08C106.833 34.1547 106.779 34.2133 106.726 34.256C106.683 34.3093 106.641 34.336 106.598 34.336C106.577 34.336 106.534 34.3147 106.47 34.272C106.406 34.24 106.342 34.192 106.278 34.128C106.214 34.064 106.155 33.9893 106.102 33.904C106.059 33.808 106.038 33.712 106.038 33.616C106.113 33.328 106.171 33.0347 106.214 32.736C106.267 32.4373 106.305 32.1173 106.326 31.776C106.358 31.424 106.379 31.04 106.39 30.624C106.401 30.208 106.406 29.744 106.406 29.232L106.39 24.464ZM118.748 28.896C118.684 28.6613 118.582 28.4533 118.444 28.272C118.305 28.08 118.124 27.9253 117.9 27.808C117.676 27.6907 117.398 27.632 117.068 27.632C116.801 27.632 116.54 27.6533 116.284 27.696C116.038 27.7387 115.82 27.7867 115.628 27.84C114.881 28.032 114.465 28.0053 114.38 27.76C114.337 27.632 114.38 27.4827 114.508 27.312C114.636 27.1413 114.828 26.9813 115.084 26.832C115.35 26.6827 115.665 26.5547 116.028 26.448C116.401 26.3413 116.806 26.288 117.244 26.288C117.681 26.288 118.081 26.3627 118.444 26.512C118.817 26.6613 119.137 26.8693 119.404 27.136C119.67 27.392 119.878 27.696 120.028 28.048C120.177 28.4 120.252 28.7787 120.252 29.184V32.672C120.252 32.832 120.257 33.04 120.268 33.296C120.278 33.552 120.31 33.7813 120.364 33.984C120.449 34.304 120.46 34.496 120.396 34.56C120.342 34.6027 120.257 34.6187 120.14 34.608C120.033 34.608 119.926 34.5867 119.82 34.544C119.681 34.4907 119.542 34.3787 119.404 34.208C119.276 34.048 119.164 33.8293 119.068 33.552C119.014 33.616 118.918 33.7013 118.78 33.808C118.652 33.904 118.486 34 118.284 34.096C118.081 34.2027 117.852 34.2933 117.596 34.368C117.35 34.4427 117.089 34.4853 116.812 34.496C116.257 34.5067 115.788 34.448 115.404 34.32C115.02 34.2027 114.705 34.0373 114.46 33.824C114.225 33.6107 114.049 33.3653 113.932 33.088C113.825 32.8 113.766 32.5013 113.756 32.192C113.745 31.872 113.798 31.5573 113.916 31.248C114.033 30.9387 114.22 30.6667 114.476 30.432C114.732 30.1973 115.062 30.0107 115.468 29.872C115.873 29.7333 116.358 29.6693 116.924 29.68C117.233 29.6907 117.574 29.7493 117.948 29.856C118.321 29.9627 118.62 30.096 118.844 30.256V29.568C118.844 29.344 118.812 29.12 118.748 28.896ZM118.86 31.12C118.561 31.0133 118.23 30.9227 117.868 30.848C117.516 30.7733 117.158 30.7413 116.796 30.752C115.74 30.7733 115.212 31.2053 115.212 32.048C115.212 32.464 115.34 32.7413 115.596 32.88C115.862 33.0187 116.257 33.088 116.78 33.088C116.95 33.088 117.132 33.0667 117.324 33.024C117.526 32.9813 117.718 32.928 117.9 32.864C118.092 32.7893 118.268 32.704 118.428 32.608C118.598 32.512 118.742 32.416 118.86 32.32V31.12ZM122.489 24.688C122.467 24.6773 122.387 24.624 122.249 24.528C122.121 24.432 121.977 24.3147 121.817 24.176C121.667 24.0373 121.529 23.8933 121.401 23.744C121.273 23.5947 121.209 23.456 121.209 23.328C121.209 23.3067 121.23 23.28 121.273 23.248C121.305 23.2053 121.347 23.168 121.401 23.136C121.465 23.0933 121.523 23.0613 121.577 23.04C121.641 23.0187 121.699 23.008 121.753 23.008C121.881 23.0187 122.025 23.0507 122.185 23.104C122.355 23.1467 122.526 23.2053 122.697 23.28C122.878 23.3547 123.049 23.4347 123.209 23.52C123.369 23.6053 123.507 23.6853 123.625 23.76C123.838 23.8987 123.971 24.0747 124.025 24.288C124.078 24.4907 124.105 24.72 124.105 24.976V28.448C124.105 28.928 124.099 29.4133 124.089 29.904C124.089 30.3947 124.062 30.896 124.009 31.408C123.987 31.6533 123.945 31.9413 123.881 32.272C123.817 32.592 123.731 32.9067 123.625 33.216C123.529 33.5147 123.417 33.7813 123.289 34.016C123.161 34.2507 123.033 34.3947 122.905 34.448C122.809 34.448 122.718 34.416 122.633 34.352C122.547 34.288 122.473 34.208 122.409 34.112C122.355 34.0267 122.313 33.9413 122.281 33.856C122.249 33.7707 122.238 33.7067 122.249 33.664C122.291 33.4187 122.329 33.2107 122.361 33.04C122.393 32.8587 122.414 32.6507 122.425 32.416C122.446 32.1813 122.462 31.888 122.473 31.536C122.483 31.184 122.489 30.704 122.489 30.096V24.688ZM126.426 24.688C126.405 24.6773 126.325 24.624 126.186 24.528C126.058 24.432 125.914 24.3147 125.754 24.176C125.605 24.0373 125.466 23.8933 125.338 23.744C125.21 23.5947 125.146 23.456 125.146 23.328C125.146 23.3067 125.168 23.28 125.21 23.248C125.242 23.2053 125.285 23.168 125.338 23.136C125.402 23.0933 125.461 23.0613 125.514 23.04C125.578 23.0187 125.637 23.008 125.69 23.008C125.818 23.0187 125.962 23.0507 126.122 23.104C126.293 23.1467 126.464 23.2053 126.634 23.28C126.816 23.3547 126.986 23.4347 127.146 23.52C127.306 23.6053 127.445 23.6853 127.562 23.76C127.776 23.8987 127.909 24.0747 127.962 24.288C128.016 24.4907 128.042 24.72 128.042 24.976V28.448C128.042 28.928 128.037 29.4133 128.026 29.904C128.026 30.3947 128 30.896 127.946 31.408C127.925 31.6533 127.882 31.9413 127.818 32.272C127.754 32.592 127.669 32.9067 127.562 33.216C127.466 33.5147 127.354 33.7813 127.226 34.016C127.098 34.2507 126.97 34.3947 126.842 34.448C126.746 34.448 126.656 34.416 126.57 34.352C126.485 34.288 126.41 34.208 126.346 34.112C126.293 34.0267 126.25 33.9413 126.218 33.856C126.186 33.7707 126.176 33.7067 126.186 33.664C126.229 33.4187 126.266 33.2107 126.298 33.04C126.33 32.8587 126.352 32.6507 126.362 32.416C126.384 32.1813 126.4 31.888 126.41 31.536C126.421 31.184 126.426 30.704 126.426 30.096V24.688ZM31 2L31 35H32V2H31Z" fill="black"/>
</svg>
