<svg width="42" height="44" viewBox="0 0 42 44" fill="none" xmlns="http://www.w3.org/2000/svg">
<path d="M21 8.91237C22.9088 8.91237 24.4562 7.36499 24.4562 5.45619C24.4562 3.54739 22.9088 2 21 2C19.0912 2 17.5438 3.54739 17.5438 5.45619C17.5438 7.36499 19.0912 8.91237 21 8.91237Z" stroke="black" stroke-width="3" stroke-miterlimit="10"/>
<path d="M15.8247 14.0876C15.8247 12.715 16.37 11.3987 17.3405 10.4281C18.311 9.4576 19.6274 8.91235 20.9999 8.91235C22.3725 8.91235 23.6888 9.4576 24.6594 10.4281C25.6299 11.3987 26.1752 12.715 26.1752 14.0876" stroke="black" stroke-width="3" stroke-miterlimit="10" stroke-linecap="round"/>
<path d="M34.8247 36.5437C36.7335 36.5437 38.2809 34.9963 38.2809 33.0875C38.2809 31.1787 36.7335 29.6313 34.8247 29.6313C32.9159 29.6313 31.3685 31.1787 31.3685 33.0875C31.3685 34.9963 32.9159 36.5437 34.8247 36.5437Z" stroke="black" stroke-width="3" stroke-miterlimit="10"/>
<path d="M29.6315 41.737C29.6315 40.3597 30.1786 39.0387 31.1526 38.0648C32.1265 37.0909 33.4474 36.5437 34.8248 36.5437C36.199 36.5485 37.5153 37.0978 38.4853 38.0712C39.4554 39.0446 40 40.3628 40 41.737" stroke="black" stroke-width="3" stroke-miterlimit="10" stroke-linecap="round"/>
<path d="M7.1753 36.5437C9.0841 36.5437 10.6315 34.9963 10.6315 33.0875C10.6315 31.1787 9.0841 29.6313 7.1753 29.6313C5.2665 29.6313 3.71912 31.1787 3.71912 33.0875C3.71912 34.9963 5.2665 36.5437 7.1753 36.5437Z" stroke="black" stroke-width="3" stroke-miterlimit="10"/>
<path d="M2 41.737C1.99999 40.3628 2.54466 39.0446 3.51469 38.0712C4.48472 37.0978 5.80102 36.5485 7.17523 36.5437C8.55259 36.5437 9.87353 37.0909 10.8475 38.0648C11.8214 39.0387 12.3686 40.3597 12.3686 41.737" stroke="black" stroke-width="3" stroke-miterlimit="10" stroke-linecap="round"/>
<path d="M21 15.8247V24.4561" stroke="black" stroke-width="3" stroke-miterlimit="10" stroke-linecap="round"/>
<path d="M14.0876 29.6494L21 24.4561L27.9124 29.6494" stroke="black" stroke-width="3" stroke-miterlimit="10" stroke-linecap="round"/>
</svg>
