<svg width="30" height="50" viewBox="0 0 44 64" fill="none" xmlns="http://www.w3.org/2000/svg">
<path fill-rule="evenodd" clip-rule="evenodd" d="M29.8402 1.5C29.8402 0.671573 30.5118 0 31.3402 0H40.5537C40.8644 0 41.153 0.0944401 41.3924 0.256177C41.7914 0.525738 42.0537 0.982234 42.0537 1.5L42.0537 11.2254C42.0537 12.0538 41.3821 12.7254 40.5537 12.7254C39.7253 12.7254 39.0537 12.0538 39.0537 11.2254V5.18061L22.8214 21.4129C22.5026 21.7317 22.076 21.877 21.6589 21.8488C21.2414 21.8774 20.8143 21.7321 20.4952 21.413L11.4253 12.3431L2.56029 21.2081C1.97451 21.7938 1.02476 21.7938 0.438974 21.2081C-0.146813 20.6223 -0.146813 19.6725 0.438974 19.0867L10.1995 9.32624C10.2449 9.26401 10.2957 9.20448 10.3518 9.1483C10.6479 8.85225 11.0369 8.70582 11.4249 8.70901C11.8132 8.70564 12.2025 8.85207 12.4987 9.1483C12.5549 9.20449 12.6057 9.26403 12.6511 9.32628L21.6583 18.3334L36.9917 3L31.3402 3C30.5118 3 29.8402 2.32843 29.8402 1.5ZM41.5529 63.0405C40.7245 63.0362 40.0564 62.3611 40.0608 61.5327L40.2657 22.2912C40.27 21.4628 40.9451 20.7947 41.7735 20.7991C42.6019 20.8034 43.27 21.4785 43.2656 22.3069L43.0607 61.5483C43.0564 62.3767 42.3813 63.0448 41.5529 63.0405ZM21.1385 61.388C21.1385 62.2164 21.81 62.888 22.6385 62.888C23.4669 62.888 24.1385 62.2164 24.1385 61.388L24.1385 36.8185C24.1385 35.9901 23.4669 35.3185 22.6385 35.3185C21.81 35.3185 21.1385 35.9901 21.1385 36.8185L21.1385 61.388ZM0.152063 61.388C0.152063 62.2164 0.823636 62.888 1.65206 62.888C2.48049 62.888 3.15206 62.2164 3.15206 61.388L3.15206 48.5914C3.15206 47.7629 2.48049 47.0914 1.65206 47.0914C0.823636 47.0914 0.152063 47.7629 0.152063 48.5914L0.152063 61.388Z" fill="#478DE0"/>
</svg>
