<svg width="17" height="17" viewBox="0 0 17 17" fill="none" xmlns="http://www.w3.org/2000/svg">
<path d="M11.479 0H4.69999C1.75542 0 0 1.75542 0 4.69999V11.4709C0 14.4235 1.75542 16.179 4.69999 16.179H11.4709C14.4155 16.179 16.1709 14.4235 16.1709 11.479V4.69999C16.179 1.75542 14.4235 0 11.479 0ZM8.08948 11.2282C6.35833 11.2282 4.95076 9.82063 4.95076 8.08948C4.95076 6.35833 6.35833 4.95076 8.08948 4.95076C9.82063 4.95076 11.2282 6.35833 11.2282 8.08948C11.2282 9.82063 9.82063 11.2282 8.08948 11.2282ZM12.8784 3.94766C12.838 4.04474 12.7814 4.13372 12.7086 4.21462C12.6277 4.28742 12.5387 4.34405 12.4416 4.3845C12.3445 4.42494 12.2394 4.44921 12.1342 4.44921C11.9158 4.44921 11.7136 4.36832 11.5599 4.21462C11.4871 4.13372 11.4304 4.04474 11.39 3.94766C11.3495 3.85059 11.3253 3.74543 11.3253 3.64026C11.3253 3.5351 11.3495 3.42994 11.39 3.33286C11.4304 3.2277 11.4871 3.14681 11.5599 3.06591C11.7459 2.87985 12.0291 2.79087 12.2879 2.8475C12.3445 2.85559 12.3931 2.87176 12.4416 2.89603C12.4902 2.91221 12.5387 2.93648 12.5872 2.96884C12.6277 2.99311 12.6681 3.03355 12.7086 3.06591C12.7814 3.14681 12.838 3.2277 12.8784 3.33286C12.9189 3.42994 12.9432 3.5351 12.9432 3.64026C12.9432 3.74543 12.9189 3.85059 12.8784 3.94766Z" fill="white"/>
</svg>
