<svg width="38" height="32" viewBox="0 0 38 32" fill="none" xmlns="http://www.w3.org/2000/svg">
<path d="M32.8542 31.6667H5.14583C2.40187 31.6667 0.159527 29.5189 0.00814599 26.8128L0 26.5208V3.5625C0 1.67697 1.46484 0.133562 3.31859 0.00821884L3.5625 0H28.1042C29.9897 0 31.5331 1.46484 31.6585 3.31859L31.6667 3.5625V4.75H34.4375C36.323 4.75 37.8664 6.21484 37.9918 8.06859L38 8.3125V26.5208C38 29.2648 35.8523 31.5071 33.1462 31.6585L32.8542 31.6667ZM5.14583 29.2917H32.8542C34.3079 29.2917 35.5002 28.1721 35.6158 26.7481L35.625 26.5208V8.3125C35.625 7.71131 35.1783 7.21447 34.5986 7.13584L34.4375 7.125H31.6667V24.1458C31.6667 24.747 31.2199 25.2439 30.6403 25.3225L30.4792 25.3333C29.878 25.3333 29.3811 24.8866 29.3025 24.307L29.2917 24.1458V3.5625C29.2917 2.96131 28.8449 2.46447 28.2653 2.38584L28.1042 2.375H3.5625C2.96132 2.375 2.46447 2.82174 2.38584 3.40136L2.375 3.5625V26.5208C2.375 27.9746 3.49459 29.1669 4.91858 29.2825L5.14583 29.2917ZM13.057 14.2555C14.1501 14.2555 15.0362 15.1416 15.0362 16.2347V21.7708C15.0362 22.8639 14.1501 23.75 13.057 23.75H7.52083C6.42777 23.75 5.54167 22.8639 5.54167 21.7708V16.2347C5.54167 15.1416 6.42777 14.2555 7.52083 14.2555H13.057ZM19.3958 21.375H24.9315C25.5873 21.375 26.119 21.9067 26.119 22.5625C26.119 23.1637 25.6722 23.6605 25.0926 23.7392L24.9315 23.75H19.3958C18.74 23.75 18.2083 23.2183 18.2083 22.5625C18.2083 21.9613 18.6551 21.4645 19.2347 21.3858L19.3958 21.375ZM12.6612 16.6305H7.91667V21.375H12.6612V16.6305ZM19.3958 14.2555H24.9315C25.5873 14.2555 26.119 14.7872 26.119 15.443C26.119 16.0442 25.6722 16.541 25.0926 16.6197L24.9315 16.6305H19.3958C18.74 16.6305 18.2083 16.0988 18.2083 15.443C18.2083 14.8418 18.6551 14.345 19.2347 14.2663L19.3958 14.2555ZM6.72346 7.11971H24.9315C25.5873 7.11971 26.119 7.65137 26.119 8.30721C26.119 8.90839 25.6722 9.40523 25.0926 9.48387L24.9315 9.49471H6.72346C6.06762 9.49471 5.53596 8.96305 5.53596 8.30721C5.53596 7.70602 5.9827 7.20918 6.56232 7.13055L6.72346 7.11971Z" fill="black"/>
</svg>
