<svg width="38" height="45" viewBox="0 0 38 45" fill="none" xmlns="http://www.w3.org/2000/svg">
<path d="M19 22.1667C21.5196 22.1667 23.936 21.1658 25.7176 19.3842C27.4992 17.6026 28.5 15.1862 28.5 12.6667C28.5 10.1471 27.4992 7.73075 25.7176 5.94915C23.936 4.16756 21.5196 3.16667 19 3.16667C16.4805 3.16667 14.0641 4.16756 12.2825 5.94915C10.5009 7.73075 9.50004 10.1471 9.50004 12.6667C9.50004 15.1862 10.5009 17.6026 12.2825 19.3842C14.0641 21.1658 16.4805 22.1667 19 22.1667ZM19 25.3333C15.6406 25.3333 12.4188 23.9988 10.0434 21.6234C7.66789 19.2479 6.33337 16.0261 6.33337 12.6667C6.33337 9.30726 7.66789 6.08544 10.0434 3.70998C12.4188 1.33452 15.6406 0 19 0C22.3594 0 25.5813 1.33452 27.9567 3.70998C30.3322 6.08544 31.6667 9.30726 31.6667 12.6667C31.6667 16.0261 30.3322 19.2479 27.9567 21.6234C25.5813 23.9988 22.3594 25.3333 19 25.3333Z" fill="black"/>
<path d="M19 22.1667C19.4199 22.1667 19.8226 22.3336 20.1195 22.6305C20.4165 22.9274 20.5833 23.3302 20.5833 23.7501V36.4167C20.5833 36.8367 20.4165 37.2394 20.1195 37.5363C19.8226 37.8333 19.4199 38.0001 19 38.0001C18.58 38.0001 18.1773 37.8333 17.8804 37.5363C17.5834 37.2394 17.4166 36.8367 17.4166 36.4167V23.7501C17.4166 23.3302 17.5834 22.9274 17.8804 22.6305C18.1773 22.3336 18.58 22.1667 19 22.1667Z" fill="black"/>
<path d="M12.6667 28.9497V32.1639C7.01417 33.0695 3.16667 35.0265 3.16667 36.4167C3.16667 38.2819 10.089 41.1667 19 41.1667C27.911 41.1667 34.8333 38.2819 34.8333 36.4167C34.8333 35.0234 30.9858 33.0695 25.3333 32.1639V28.9497C32.7117 30.0359 38 32.9714 38 36.4167C38 40.7867 29.4943 44.3334 19 44.3334C8.50567 44.3334 0 40.7867 0 36.4167C0 32.9682 5.28833 30.0359 12.6667 28.9497Z" fill="black"/>
</svg>
