<svg width="38" height="38" viewBox="0 0 38 38" fill="none" xmlns="http://www.w3.org/2000/svg">
<path fill-rule="evenodd" clip-rule="evenodd" d="M13.1538 0C13.961 0 14.6154 0.65436 14.6154 1.46154V3.89744H23.3846V1.46154C23.3846 0.65436 24.039 0 24.8462 0C25.6533 0 26.3077 0.65436 26.3077 1.46154V3.89744H27.1846H27.2472C28.8311 3.89742 30.1089 3.89742 31.1434 3.98193C32.2086 4.06898 33.1442 4.25284 34.01 4.69394C35.385 5.39454 36.5028 6.51248 37.2036 7.88751C37.6446 8.75315 37.8285 9.68883 37.9154 10.7541C38 11.7887 38 13.0663 38 14.6502V14.7128V27.1846V27.2472C38 28.8313 38 30.1089 37.9154 31.1434C37.8285 32.2086 37.6446 33.1442 37.2036 34.01C36.5028 35.385 35.385 36.503 34.01 37.2036C33.1442 37.6446 32.2086 37.8285 31.1434 37.9154C30.1089 38 28.8313 38 27.2472 38H27.1846H10.8154H10.7528C9.16882 38 7.89122 38 6.85662 37.9154C5.7914 37.8285 4.85572 37.6446 3.99008 37.2036C2.61504 36.503 1.4971 35.385 0.7965 34.01C0.355427 33.1442 0.171546 32.2086 0.084497 31.1434C-1.89184e-05 30.1089 -1.89086e-05 28.8313 5.78609e-07 27.2472V27.1846V14.7128V14.6503C-1.89086e-05 13.0663 -1.89184e-05 11.7887 0.084497 10.7541C0.171546 9.68883 0.355427 8.75315 0.7965 7.88751C1.4971 6.51248 2.61504 5.39454 3.99008 4.69394C4.85572 4.25284 5.7914 4.06898 6.85662 3.98193C7.89122 3.89742 9.16884 3.89742 10.7528 3.89744H10.8154H11.6923V1.46154C11.6923 0.65436 12.3467 0 13.1538 0ZM23.3846 6.82051V9.25641C23.3846 10.0636 24.039 10.7179 24.8462 10.7179C25.6533 10.7179 26.3077 10.0636 26.3077 9.25641V6.82051H27.1846C28.8459 6.82051 30.0038 6.82164 30.9053 6.8953C31.7898 6.96756 32.298 7.1023 32.6829 7.29842C33.5078 7.71877 34.1786 8.38954 34.5991 9.21455C34.7951 9.59946 34.9298 10.1076 35.0021 10.9921C35.0758 11.8936 35.0769 13.0516 35.0769 14.7128V27.1846C35.0769 28.8459 35.0758 30.0038 35.0021 30.9053C34.9298 31.7898 34.7951 32.298 34.5991 32.6829C34.1786 33.5078 33.5078 34.1786 32.6829 34.5991C32.298 34.7951 31.7898 34.9298 30.9053 35.0021C30.0038 35.0758 28.8459 35.0769 27.1846 35.0769H10.8154C9.1542 35.0769 7.99619 35.0758 7.09466 35.0021C6.21019 34.9298 5.70203 34.7951 5.31712 34.5991C4.49211 34.1786 3.82134 33.5078 3.40098 32.6829C3.20486 32.298 3.07015 31.7898 2.99787 30.9053C2.92421 30.0038 2.92308 28.8459 2.92308 27.1846V14.7128C2.92308 13.0516 2.92421 11.8936 2.99787 10.9921C3.07015 10.1076 3.20486 9.59946 3.40098 9.21455C3.82134 8.38954 4.49211 7.71877 5.31712 7.29842C5.70203 7.1023 6.21019 6.96756 7.09466 6.8953C7.99619 6.82164 9.1542 6.82051 10.8154 6.82051H11.6923V9.25641C11.6923 10.0636 12.3467 10.7179 13.1538 10.7179C13.961 10.7179 14.6154 10.0636 14.6154 9.25641V6.82051H23.3846ZM11.2051 15.5897C10.398 15.5897 9.74359 16.2441 9.74359 17.0513C9.74359 17.8584 10.398 18.5128 11.2051 18.5128H26.7949C27.602 18.5128 28.2564 17.8584 28.2564 17.0513C28.2564 16.2441 27.602 15.5897 26.7949 15.5897H11.2051Z" fill="black"/>
<circle cx="19" cy="24.2615" r="1.46154" fill="black"/>
<circle cx="11.3415" cy="24.2615" r="1.46154" fill="black"/>
<circle cx="26.6584" cy="24.2615" r="1.46154" fill="black"/>
<circle cx="19" cy="29.2308" r="1.46154" fill="black"/>
<circle cx="11.3415" cy="29.2308" r="1.46154" fill="black"/>
</svg>
