<svg width="30" height="45" viewBox="0 0 45 63" fill="none" xmlns="http://www.w3.org/2000/svg">
<path fill-rule="evenodd" clip-rule="evenodd" d="M43.2105 9.60813H37.9911V6.64791C37.9911 6.04554 37.5028 5.5573 36.9004 5.5573H29.0096C28.3364 2.36985 25.5002 0 22.1505 0C18.8007 0 15.9646 2.36985 15.2914 5.55727H7.40054C6.79817 5.55727 6.3099 6.04551 6.3099 6.64788V9.6081H1.09028C0.487907 9.6081 -0.000366211 10.0964 -0.000366211 10.6987V61.2326C-0.000366211 61.835 0.487907 62.3233 1.09028 62.3233H43.2105C43.8129 62.3233 44.3012 61.835 44.3012 61.2326V10.6988C44.3012 10.0964 43.8129 9.60813 43.2105 9.60813ZM8.49122 7.73856H16.2419C16.8188 7.73856 17.2956 7.28955 17.3306 6.71394C17.4846 4.17229 19.6017 2.18133 22.1505 2.18133C24.6993 2.18133 26.8164 4.17229 26.9704 6.71394C27.0054 7.28955 27.4822 7.73856 28.0591 7.73856H35.8098V9.60813V11.7894V14.3863H8.49122V11.7894V9.60813V7.73856ZM42.1199 60.142H2.181V11.7894H6.3099V15.4769C6.3099 16.0794 6.79817 16.5676 7.40054 16.5676H36.9004C37.5028 16.5676 37.9911 16.0793 37.9911 15.4769V11.7894H42.1199V60.142ZM13.9454 23.6647L9.45813 28.1522L7.45161 26.1455C7.02561 25.7198 6.3351 25.7198 5.90907 26.1455C5.48318 26.5715 5.48318 27.2621 5.90907 27.6881L8.68684 30.4659C8.89984 30.6787 9.17893 30.7853 9.45813 30.7853C9.73732 30.7853 10.0164 30.6787 10.2294 30.4659L15.4879 25.2074C15.9138 24.7813 15.9138 24.0908 15.4879 23.6648C15.0619 23.239 14.3714 23.239 13.9454 23.6647ZM18.4561 27.0646C18.4561 26.4622 18.9443 25.9739 19.5467 25.9739H37.6206C38.223 25.9739 38.7112 26.4622 38.7112 27.0646C38.7112 27.667 38.223 28.1552 37.6206 28.1552H19.5467C18.9444 28.1552 18.4561 27.667 18.4561 27.0646ZM13.9454 36.0189L9.45813 40.5063L7.45161 38.4997C7.02561 38.0739 6.3351 38.0739 5.90907 38.4997C5.48318 38.9257 5.48318 39.6162 5.90907 40.0422L8.68684 42.82C8.89984 43.0329 9.17893 43.1394 9.45813 43.1394C9.73732 43.1394 10.0164 43.0329 10.2294 42.82L15.4879 37.5615C15.9138 37.1355 15.9138 36.445 15.4879 36.0189C15.0619 35.5931 14.3714 35.5931 13.9454 36.0189ZM19.5467 38.3293H37.6206C38.223 38.3293 38.7112 38.8176 38.7112 39.42C38.7112 40.0224 38.223 40.5107 37.6206 40.5107H19.5467C18.9444 40.5107 18.4561 40.0224 18.4561 39.42C18.4561 38.8176 18.9443 38.3293 19.5467 38.3293ZM13.9454 48.3735L9.45813 52.8609L7.45161 50.8542C7.02561 50.4285 6.3351 50.4285 5.90907 50.8542C5.48318 51.2803 5.48318 51.9708 5.90907 52.3969L8.68684 55.1746C8.89984 55.3875 9.17893 55.4939 9.45813 55.4939C9.73732 55.4939 10.0164 55.3875 10.2294 55.1746L15.4879 49.9161C15.9138 49.49 15.9138 48.7995 15.4879 48.3735C15.0619 47.9478 14.3714 47.9478 13.9454 48.3735ZM19.5467 50.6835H37.6206C38.223 50.6835 38.7112 51.1717 38.7112 51.7742C38.7112 52.3766 38.223 52.8648 37.6206 52.8648H19.5467C18.9444 52.8648 18.4561 52.3766 18.4561 51.7742C18.4561 51.1717 18.9443 50.6835 19.5467 50.6835Z" fill="#478DE0"/>
</svg>
