<svg width="113" height="176" viewBox="0 0 113 176" fill="none" xmlns="http://www.w3.org/2000/svg">
<path fill-rule="evenodd" clip-rule="evenodd" d="M80.7989 176H113V0H86.7898L65.9941 1.49192L76.81 2.5681L27.8266 6.08225L52.81 8.5681L25.9065 10.4982L66.81 14.5681L14.9213 18.2907L37.81 20.5681L9.2509 22.617L18.81 23.5681L12.4681 24.0231L22.9037 26.0949L57.81 29.5681L45.0193 30.4857L84.8916 38.4019L1.62721 52.5606L70.6304 61.7517L29.1848 66.1138L67.5569 71.5309L37.3927 74.9446L73.81 78.5681L45.2509 80.617L54.81 81.5681L0.527481 85.4624L54.9152 95.9L33.3603 99.4239L34.81 99.5681L30.6544 99.8662L12.361 102.857L79.8099 109.568L22.0232 113.714L70.81 118.568L43.9941 120.492L54.81 121.568L39.8594 122.641L106.594 133.23L45.1431 141.252L78.5772 146.038L20.8862 152.68L29.81 153.568L23.8535 153.995L69.81 158.568L6.10352e-05 163.576V165.304L32.81 168.568L17.2939 169.681L80.7989 176Z" fill="#478DE0"/>
</svg>
