<svg width="172" height="176" viewBox="0 0 172 176" fill="none" xmlns="http://www.w3.org/2000/svg">
<path fill-rule="evenodd" clip-rule="evenodd" d="M0 0H72.0243L56.3924 2.32388L111.827 9.5159L106.392 10.3239L132.166 13.6677L87.3924 20.3239L104.914 22.5971L66.3924 28.3239L87.5561 31.0696L72.3924 33.3239L99.2839 36.8128L82.3924 39.3239L171.803 50.9238L88.3924 63.3239L104.896 65.4651L92.3924 67.3239L103.118 68.7155L65.3924 74.3239L121.749 81.6355L110.392 83.3239L118.11 84.3252L111.392 85.3239L122.944 86.8226L99.3924 90.3239L157.009 97.799L106.392 105.324L112.953 106.175L47.0686 112.019L59.4279 114.372L19.3924 120.324L60.9437 125.715L43.3924 128.324L66.251 131.289L43.6501 137.57L52.786 139.927L43.3924 141.324L66.5459 144.328L46.3924 147.324L74.9319 151.026L12.3924 160.324L34.5775 163.202L9.65274 169.17L40.7104 176H0V0Z" fill="#478DE0"/>
</svg>
