<svg width="42" height="31" viewBox="0 0 42 31" fill="none" xmlns="http://www.w3.org/2000/svg">
<path d="M12.9665 15.9331C16.8141 15.9331 19.9331 12.8141 19.9331 8.96654C19.9331 5.11904 16.8141 2 12.9665 2C9.11904 2 6 5.11904 6 8.96654C6 12.8141 9.11904 15.9331 12.9665 15.9331Z" stroke="black" stroke-width="3" stroke-linecap="round" stroke-linejoin="round"/>
<path d="M2 27.8661C2 24.8427 3.20105 21.9431 5.33892 19.8052C7.4768 17.6674 10.3764 16.4663 13.3998 16.4663C16.4232 16.4663 19.3228 17.6674 21.4607 19.8052C23.5845 21.9291 24.7839 24.8047 24.7994 27.8067" stroke="black" stroke-width="3" stroke-linecap="round" stroke-linejoin="round"/>
<path d="M30.6999 18.3998C33.8478 18.3998 36.3998 15.8479 36.3998 12.6999C36.3998 9.55193 33.8478 7 30.6999 7C27.5519 7 25 9.55193 25 12.6999C25 15.8479 27.5519 18.3998 30.6999 18.3998Z" stroke="black" stroke-width="3" stroke-linecap="round" stroke-linejoin="round"/>
<path d="M26 19.6208C27.5721 19.0603 29.2607 18.8755 30.9226 19.082C32.5842 19.2883 34.1699 19.8799 35.5445 20.8064C36.9193 21.7329 38.0422 22.9669 38.818 24.4033C39.5845 25.823 39.9896 27.3989 40 29" stroke="black" stroke-width="3" stroke-linecap="round" stroke-linejoin="round"/>
</svg>
