<svg width="28" height="16" viewBox="0 0 28 16" fill="none" xmlns="http://www.w3.org/2000/svg">
<path d="M16.9548 7.69626C16.4429 7.50712 16.4429 6.78479 16.4111 6.28178C16.2831 4.49004 16.9231 1.75464 16.1551 0.591671C15.6114 -0.100478 12.9869 -0.037098 11.3874 0.0574688C10.9389 0.120849 10.3952 0.21441 10.0112 0.403544C9.6272 0.592678 9.2432 0.906558 9.2432 1.18925C9.2432 1.5977 10.2037 1.53533 10.5549 2.06953C10.9389 2.63592 10.9389 3.86127 10.9389 4.8673C10.9389 6.03027 10.7464 7.57151 10.2672 7.63388C9.53094 7.66507 9.1152 6.94173 8.73121 6.40753C7.96322 5.37031 7.19523 4.08058 6.61872 2.82305C6.33098 2.16309 6.17022 1.43975 5.75448 1.15706C5.11448 0.716419 3.9625 0.685232 2.84226 0.716419C1.81827 0.747606 0.345777 0.621853 0.0580363 1.21943C-0.166217 1.87939 0.314033 2.50816 0.57003 3.04337C1.88176 5.84114 3.28974 8.29384 5.01823 10.6198C6.61872 12.7888 8.12194 14.5181 11.0659 15.4296C11.8984 15.6811 15.5458 16.4045 16.2821 15.4296C16.5381 15.0523 16.4746 14.2033 16.6026 13.5745C16.7306 12.9457 16.8903 12.317 17.4986 12.2858C18.0106 12.2546 18.2983 12.6942 18.6188 13.0091C18.9711 13.3552 19.2588 13.6379 19.5148 13.9528C20.1231 14.5503 20.7631 15.3672 21.531 15.6821C22.5868 16.1228 24.219 15.997 25.755 15.9336C27.0032 15.9024 27.8992 15.6509 27.9955 14.9276C28.06 14.3612 27.419 13.5443 27.035 13.0725C26.0745 11.9095 25.627 11.5634 24.5385 10.494C24.0582 10.0222 23.45 9.51918 23.45 8.95379C23.4183 8.60772 23.706 8.29384 23.962 7.94776C25.0822 6.31296 26.2025 5.14999 27.2265 3.45182C27.5142 2.9488 28.187 1.78583 27.931 1.21943C27.6432 0.590666 26.0427 0.778792 25.0505 0.778792C23.7705 0.778792 22.1065 0.684226 21.786 0.935733C21.1778 1.34418 20.9218 2.00514 20.634 2.63391C19.994 4.08058 19.1298 5.55744 18.2338 6.65803C17.9133 7.0353 17.3061 7.821 16.9538 7.69525L16.9548 7.69626Z" fill="white"/>
</svg>
