<svg width="23" height="17" viewBox="0 0 23 17" fill="none" xmlns="http://www.w3.org/2000/svg">
<path fill-rule="evenodd" clip-rule="evenodd" d="M21.7832 1.21841C22.1389 1.57406 22.3953 2.01662 22.5269 2.50207C23 4.301 23 8.03357 23 8.03357C23 8.03357 23 11.7661 22.5269 13.5651C22.3953 14.0505 22.1389 14.4931 21.7832 14.8487C21.4276 15.2044 20.985 15.4608 20.4996 15.5924C18.699 16.0671 11.5 16.0671 11.5 16.0671C11.5 16.0671 4.301 16.0671 2.50043 15.5924C1.51636 15.3279 0.739286 14.5508 0.473143 13.5651C0 11.7842 0 8.03357 0 8.03357C0 8.03357 0 4.301 0.473143 2.50207C0.739286 1.51636 1.51471 0.739286 2.50043 0.474786C4.301 0 11.5 0 11.5 0C11.5 0 18.699 0 20.4996 0.474786C20.985 0.60638 21.4276 0.86275 21.7832 1.21841ZM15.1751 8.05334L9.1885 11.5001V4.58691L15.1751 8.05334Z" fill="white"/>
</svg>
